<svg width="555" height="181" viewBox="0 0 555 181" fill="none" xmlns="http://www.w3.org/2000/svg">
<g clip-path="url(#clip0_437_24)">
<path d="M53.5645 1.87697C54.4296 1.87582 55.2948 1.87466 56.1861 1.87347C59.0991 1.87082 62.012 1.87532 64.9249 1.87976C67.0287 1.87933 69.1326 1.87845 71.2364 1.87717C77.0285 1.87493 82.8206 1.87895 88.6127 1.88395C94.8547 1.88826 101.097 1.88681 107.339 1.88605C118.157 1.88553 128.975 1.88863 139.793 1.89429C151.141 1.9002 162.488 1.90405 173.835 1.90514C174.54 1.90521 175.246 1.90528 175.972 1.90535C179.554 1.90569 183.136 1.90599 186.718 1.90628C212.094 1.90838 237.47 1.91512 262.845 1.92458C287.499 1.93376 312.153 1.94085 336.806 1.94509C337.566 1.94522 338.326 1.94535 339.109 1.94549C346.739 1.9468 354.37 1.94808 362 1.94932C377.544 1.95186 393.088 1.95468 408.632 1.95768C409.347 1.95781 410.062 1.95795 410.798 1.95809C432.706 1.96231 454.615 1.96775 476.523 1.97437C478.364 1.97492 478.364 1.97492 480.243 1.97549C504.829 1.98299 529.414 1.99165 554 2.00002C554 61.07 554 120.14 554 181C371.51 181 189.02 181 1 181C1 32.9126 1 32.9126 16.5508 16.3594C27.0759 6.22032 39.0911 1.82965 53.5645 1.87697ZM77 20C74.0443 26.4073 71.482 32.8964 69.0859 39.5313C68.7188 40.5395 68.3517 41.5478 67.9734 42.5866C67.1833 44.7576 66.3946 46.9291 65.6072 49.1011C63.9235 53.7455 62.2326 58.3872 60.5422 63.0292C59.666 65.4358 58.7901 67.8424 57.9146 70.2493C53.5079 82.3622 49.0707 94.4639 44.625 106.563C44.2547 107.571 43.8844 108.579 43.5029 109.618C39.6819 120.022 35.8501 130.421 31.9844 140.809C31.6733 141.645 31.3622 142.481 31.0417 143.342C29.5993 147.217 28.1544 151.091 26.7056 154.963C26.2073 156.298 25.7091 157.634 25.2109 158.969C24.5658 160.693 24.5658 160.693 23.9077 162.451C22.9441 164.706 22.9441 164.706 23 166C46.43 166 69.86 166 94 166C94 155.77 94 145.54 94 135C84.76 135 75.52 135 66 135C70.9937 120.782 76.0092 106.585 81.293 92.4727C81.6567 91.5005 82.0204 90.5284 82.3952 89.5268C84.2116 84.6767 86.0353 79.8294 87.8672 74.9851C88.5405 73.1933 89.2137 71.4013 89.8867 69.6094C90.2018 68.7826 90.5169 67.9558 90.8416 67.1039C91.1268 66.3423 91.412 65.5806 91.7058 64.7959C91.9569 64.1322 92.2079 63.4685 92.4666 62.7846C93.1432 60.8314 93.1432 60.8314 93 58C93.99 58 94.98 58 96 58C96.1744 58.605 96.3488 59.2099 96.5285 59.8332C98.3403 66.0075 100.395 72.0465 102.633 78.0781C102.982 79.0279 103.332 79.9777 103.692 80.9562C104.833 84.0553 105.979 87.1527 107.125 90.25C107.923 92.4116 108.72 94.5732 109.518 96.7349C111.172 101.219 112.828 105.703 114.485 110.187C116.563 115.812 118.631 121.44 120.695 127.07C122.255 131.323 123.817 135.575 125.38 139.827C126.125 141.854 126.868 143.882 127.61 145.91C128.643 148.73 129.68 151.549 130.719 154.367C131.023 155.202 131.328 156.038 131.641 156.898C131.924 157.662 132.207 158.427 132.498 159.214C132.741 159.877 132.985 160.54 133.235 161.223C134.059 163.284 134.059 163.284 136 166C138.869 166.44 138.869 166.44 142.286 166.341C142.93 166.341 143.574 166.341 144.237 166.342C146.369 166.34 148.501 166.316 150.633 166.293C152.11 166.287 153.587 166.283 155.063 166.28C158.953 166.269 162.843 166.239 166.732 166.206C171.398 166.17 176.064 166.156 180.729 166.139C187.82 166.11 194.909 166.052 202 166C202 148.84 202 131.68 202 114C223 115 223 115 227.621 118.367C229.112 120.522 229.112 120.522 230.438 122.875C231.536 124.523 232.635 126.172 233.734 127.82C234.534 129.103 234.534 129.103 235.35 130.411C238.607 135.52 242.33 140.307 245.996 145.127C248.733 148.765 251.229 152.286 253.305 156.344C255.596 160.489 257.565 163.968 262 166C271.58 167.395 281.451 166.205 291 165C290.463 164.288 290.463 164.288 289.916 163.562C287.203 159.955 284.507 156.338 281.844 152.695C280.729 151.172 279.615 149.648 278.5 148.125C277.905 147.311 277.31 146.498 276.697 145.66C273.536 141.363 270.328 137.116 267.012 132.938C266.371 132.129 265.73 131.321 265.07 130.488C263.84 128.944 262.602 127.406 261.355 125.876C260.799 125.177 260.242 124.478 259.668 123.758C258.93 122.847 258.93 122.847 258.177 121.918C256.78 119.641 256.386 117.626 256 115C256.804 114.835 257.609 114.67 258.438 114.5C269.464 109.857 275.984 99.2477 280.375 88.5625C284.711 77.1201 284.807 63.0067 280.25 51.6289C273.464 37.358 263.882 27.5491 249 22C240.676 19.6645 232.386 19.7387 223.805 19.8047C222.362 19.8084 220.919 19.8113 219.476 19.8133C215.711 19.8209 211.946 19.8404 208.182 19.8627C203.647 19.8869 199.112 19.896 194.577 19.9076C187.718 19.9269 180.859 19.9652 174 20C174 30.23 174 40.46 174 51C178.828 51.0258 183.655 51.0516 188.629 51.0781C191.696 51.1033 194.763 51.1297 197.83 51.1602C202.693 51.2084 207.556 51.2525 212.419 51.271C216.342 51.2862 220.265 51.3207 224.187 51.3683C225.68 51.3831 227.174 51.3911 228.667 51.3919C243.284 51.4085 243.284 51.4085 249 56C253.778 62.0358 254.713 67.4722 254 75C252.234 80.2989 249.981 85.4917 244.793 88.1168C241.478 89.1651 238.668 89.2802 235.19 89.3189C234.526 89.3289 233.862 89.339 233.178 89.3493C230.998 89.38 228.817 89.3971 226.637 89.4141C225.119 89.4328 223.602 89.4524 222.084 89.4728C218.101 89.524 214.118 89.5637 210.134 89.6009C205.349 89.6481 200.564 89.7096 195.78 89.7688C188.52 89.8569 181.26 89.9267 174 90C174 104.85 174 119.7 174 135C168.06 134.67 162.12 134.34 156 134C153.226 126.585 150.455 119.168 147.688 111.75C147.057 110.059 147.057 110.059 146.413 108.335C138.898 88.1854 131.49 67.9983 124.145 47.7862C123.762 46.734 123.379 45.6819 122.985 44.5979C122.277 42.6519 121.57 40.7055 120.865 38.7585C118.026 28.7059 118.026 28.7059 113 20C110.334 19.9115 107.694 19.8848 105.027 19.9024C103.831 19.9045 103.831 19.9045 102.61 19.9067C100.053 19.9123 97.4951 19.9248 94.9375 19.9375C93.2077 19.9425 91.4779 19.9471 89.748 19.9512C85.4987 19.9622 81.2493 19.9795 77 20ZM414 36C406.148 46.5296 402.844 58.5004 404.438 71.5938C406.779 83.8318 411.454 94.3059 421.578 101.945C430.684 108.025 438.606 110.442 449.512 110.406C450.97 110.423 450.97 110.423 452.457 110.439C456.576 110.485 460.696 110.496 464.816 110.511C467.84 110.527 470.863 110.56 473.887 110.594C475.274 110.589 475.274 110.589 476.69 110.585C481.876 110.645 485.512 111.103 490 114C492.631 117.349 492.361 120.88 492 125C490.349 128.539 489.284 129.811 486 132C483.555 132.212 481.221 132.311 478.775 132.319C477.677 132.334 477.677 132.334 476.557 132.349C474.138 132.38 471.72 132.397 469.301 132.414C467.624 132.433 465.946 132.452 464.269 132.473C459.855 132.524 455.441 132.564 451.027 132.601C445.73 132.648 440.434 132.71 435.138 132.769C427.092 132.857 419.046 132.927 411 133C411 144.22 411 155.44 411 167C423.835 167.087 423.835 167.087 436.67 167.146C441.914 167.164 447.159 167.185 452.403 167.226C456.637 167.259 460.871 167.277 465.105 167.285C466.71 167.29 468.316 167.301 469.921 167.317C485.803 167.472 499.287 165.881 511.508 154.707C520.399 145.478 524.906 134.625 525.031 121.805C524.373 107.889 519.026 96.1669 508.91 86.5625C499.948 79.2317 489.823 76.5565 478.453 76.5938C476.992 76.5775 476.992 76.5775 475.501 76.5609C471.37 76.5154 467.24 76.5036 463.109 76.4888C460.078 76.4731 457.047 76.4401 454.016 76.4063C453.085 76.4093 452.155 76.4123 451.197 76.4154C446.318 76.3588 442.951 76.1991 439 73C436.429 69.5724 436.57 66.1603 437 62C440.077 56.4616 440.077 56.4616 443 55C445.307 54.8788 447.618 54.8225 449.928 54.7947C450.997 54.7798 450.997 54.7798 452.087 54.7647C454.446 54.7331 456.805 54.7083 459.164 54.6836C460.798 54.663 462.432 54.642 464.066 54.6206C468.369 54.5654 472.673 54.516 476.977 54.4678C481.368 54.4176 485.758 54.3619 490.148 54.3067C498.766 54.1991 507.383 54.0976 516 54C516.954 49.9968 517.116 46.2779 517.098 42.168C517.094 40.8757 517.091 39.5834 517.088 38.252C517.08 36.8972 517.071 35.5423 517.062 34.1875C517.057 32.8132 517.053 31.4388 517.049 30.0645C517.037 26.7096 517.021 23.3548 517 20C507.95 19.9534 498.9 19.918 489.85 19.8964C485.647 19.886 481.443 19.8719 477.24 19.8491C473.174 19.8272 469.109 19.8154 465.043 19.8103C463.502 19.8066 461.96 19.7995 460.418 19.7886C441.778 19.6622 427.194 21.667 414 36ZM298 21C298 30.57 298 40.14 298 50C299.954 51.9537 302.934 51.1202 305.534 51.1244C306.945 51.119 306.945 51.119 308.385 51.1135C309.37 51.1137 310.356 51.1138 311.371 51.114C314.644 51.1133 317.918 51.1055 321.191 51.0977C323.454 51.0958 325.717 51.0944 327.98 51.0934C333.95 51.0896 339.919 51.0797 345.888 51.0687C351.974 51.0585 358.06 51.0539 364.146 51.0488C376.098 51.0381 388.049 51.0205 400 51C400 41.1 400 31.2 400 21C366.34 21 332.68 21 298 21ZM298 78C298 107.04 298 136.08 298 166C331.66 166 365.32 166 400 166C400 155.77 400 145.54 400 135C376.9 135 353.8 135 330 135C330 126.09 330 117.18 330 108C353.1 108 376.2 108 400 108C400 98.1 400 88.2 400 78C366.34 78 332.68 78 298 78Z" fill="#134795"/>
<path d="M446.257 20.0007C447.038 20.0005 447.819 20.0004 448.623 20.0002C451.199 20.0009 453.774 20.0087 456.35 20.0165C458.138 20.0184 459.926 20.0198 461.714 20.0208C466.415 20.0246 471.117 20.0345 475.819 20.0455C480.618 20.0558 485.418 20.0603 490.217 20.0654C499.631 20.0761 509.045 20.0931 518.459 20.1142C518.489 23.3225 518.506 26.5308 518.522 29.7392C518.53 30.6235 518.539 31.5078 518.547 32.4189C518.574 40.0179 518.075 47.5422 517.459 55.1142C516.541 55.12 515.623 55.1259 514.677 55.132C506.025 55.1899 497.373 55.2619 488.721 55.3499C484.273 55.3946 479.825 55.4339 475.377 55.4606C471.085 55.4866 466.793 55.527 462.5 55.5774C460.862 55.5941 459.225 55.6056 457.587 55.6118C455.293 55.6214 453 55.6494 450.706 55.6818C449.401 55.6929 448.095 55.704 446.75 55.7155C443.28 56.1359 441.868 56.6292 439.459 59.1142C438.067 63.291 437.838 67.1997 439.209 71.4267C440.763 73.5247 442.057 74.1154 444.459 75.1142C446.544 75.41 446.544 75.41 448.746 75.3696C450.004 75.38 450.004 75.38 451.288 75.3906C452.189 75.3896 453.09 75.3886 454.018 75.3876C455.951 75.4079 457.884 75.4288 459.817 75.4501C462.844 75.4726 465.872 75.4891 468.899 75.495C486.307 75.5522 499.941 76.6974 513.42 88.8876C523.677 99.5029 525.953 112.205 525.737 126.263C525.251 138.741 519.237 149.088 510.303 157.552C498.903 167.213 487.119 167.538 472.862 167.407C471.058 167.402 469.255 167.397 467.452 167.394C462.732 167.383 458.013 167.353 453.293 167.32C447.616 167.284 441.939 167.27 436.262 167.253C427.661 167.224 419.06 167.166 410.459 167.114C410.459 155.564 410.459 144.014 410.459 132.114C415.888 132.1 421.316 132.086 426.909 132.071C430.349 132.051 433.79 132.03 437.231 132.003C442.691 131.96 448.151 131.924 453.611 131.919C458.014 131.914 462.416 131.886 466.819 131.841C468.498 131.828 470.177 131.823 471.856 131.828C474.21 131.833 476.561 131.807 478.915 131.774C479.608 131.782 480.3 131.791 481.014 131.8C484.857 131.709 486.381 131.179 489.391 128.702C491.98 125.463 492.141 124.018 491.893 120.048C491.211 117.008 489.657 115.247 487.459 113.114C485.157 111.963 483.822 111.978 481.26 111.956C479.957 111.941 479.957 111.941 478.628 111.925C477.214 111.914 477.214 111.914 475.772 111.903C473.773 111.875 471.774 111.846 469.776 111.817C466.627 111.776 463.479 111.739 460.33 111.713C457.289 111.685 454.25 111.639 451.209 111.591C450.283 111.587 449.356 111.584 448.402 111.581C436.254 111.356 425.645 107.191 416.709 98.8642C406.414 87.8167 403.577 75.5661 404.049 60.8876C404.872 47.9672 411.023 38.0723 420.272 29.3642C428.18 22.7354 436.083 19.9508 446.257 20.0007Z" fill="#D41E1E"/>
</g>
<defs>
<clipPath id="clip0_437_24">
<rect width="555" height="181" fill="white"/>
</clipPath>
</defs>
</svg>
