<svg width="406" height="333" viewBox="0 0 406 333" fill="none" xmlns="http://www.w3.org/2000/svg">
<path fill-rule="evenodd" clip-rule="evenodd" d="M260.918 1.79997C206.516 13.48 167.128 61.222 166.722 115.971C166.628 128.781 168.835 135.285 175.902 143.017C190.967 159.5 218.611 158.401 231.499 140.806C236.096 134.531 237.906 128.895 238.929 117.67C239.979 106.149 242.593 98.745 248.39 90.87C269.351 62.397 313.188 66.817 328.444 98.941C331.352 105.065 332.097 108.078 332.963 117.215C334.275 131.062 337.044 137.663 344.501 144.715C352.541 152.319 357.343 154.144 369.418 154.188C378.371 154.221 380.011 153.934 385.082 151.444C396.283 145.943 404.237 134.536 405.536 122.109C406.357 114.246 404.476 98.35 401.334 86.61C392.454 53.426 366.767 23.619 334.953 9.57997C318.913 2.50197 309.028 0.487974 288.418 0.0999744C273.192 -0.187026 268.954 0.0749744 260.918 1.79997ZM275.148 108.84C263.748 114.483 258.679 128.984 264.002 140.725C266.744 146.773 269.46 149.538 275.418 152.348C284.299 156.535 294.691 155.179 302.061 148.87C307.596 144.133 309.874 138.842 309.874 130.725C309.874 120.302 304.634 112.002 295.7 108.276C290.227 105.993 280.353 106.264 275.148 108.84ZM24.8634 179.117C13.3324 183.554 5.5504 190.798 1.8664 200.523C-0.0856025 205.676 -0.244602 207.572 0.215398 220.225C0.838398 237.377 3.7644 249.485 10.9064 264.468C23.4354 290.752 41.9054 309.199 68.3384 321.825C74.0614 324.559 83.1704 327.997 88.5814 329.464C97.7404 331.949 99.8304 332.133 118.918 332.133C137.994 332.133 140.099 331.948 149.231 329.471C200.361 315.598 235.357 272.89 238.566 220.45C239.324 208.05 237.678 200.997 232.111 192.794C219.783 174.629 191.688 172.503 176.634 188.597C170.346 195.32 167.995 200.456 166.828 210.022C164.333 230.475 161.817 236.81 152.404 246.346C134.025 264.964 105.251 265.547 86.8744 247.675C77.4374 238.497 73.2964 229.05 71.9584 213.642C70.5454 197.38 63.7794 186.766 51.1144 180.949C44.2504 177.795 30.7484 176.853 24.8634 179.117Z" fill="#295D72"/>
<path fill-rule="evenodd" clip-rule="evenodd" d="M260.918 1.79997C206.516 13.48 167.128 61.222 166.722 115.971C166.628 128.781 168.835 135.285 175.902 143.017C190.967 159.5 218.611 158.401 231.499 140.806C236.096 134.531 237.906 128.895 238.929 117.67C239.979 106.149 242.593 98.745 248.39 90.87C269.351 62.397 313.188 66.817 328.444 98.941C331.352 105.065 332.097 108.078 332.963 117.215C334.275 131.062 337.044 137.663 344.501 144.715C352.541 152.319 357.343 154.144 369.418 154.188C378.371 154.221 380.011 153.934 385.082 151.444C396.283 145.943 404.237 134.536 405.536 122.109C406.357 114.246 404.476 98.35 401.334 86.61C392.454 53.426 366.767 23.619 334.953 9.57997C318.913 2.50197 309.028 0.487974 288.418 0.0999744C273.192 -0.187026 268.954 0.0749744 260.918 1.79997ZM275.148 108.84C263.748 114.483 258.679 128.984 264.002 140.725C266.744 146.773 269.46 149.538 275.418 152.348C284.299 156.535 294.691 155.179 302.061 148.87C307.596 144.133 309.874 138.842 309.874 130.725C309.874 120.302 304.634 112.002 295.7 108.276C290.227 105.993 280.353 106.264 275.148 108.84ZM24.8634 179.117C13.3324 183.554 5.5504 190.798 1.8664 200.523C-0.0856025 205.676 -0.244602 207.572 0.215398 220.225C0.838398 237.377 3.7644 249.485 10.9064 264.468C23.4354 290.752 41.9054 309.199 68.3384 321.825C74.0614 324.559 83.1704 327.997 88.5814 329.464C97.7404 331.949 99.8304 332.133 118.918 332.133C137.994 332.133 140.099 331.948 149.231 329.471C200.361 315.598 235.357 272.89 238.566 220.45C239.324 208.05 237.678 200.997 232.111 192.794C219.783 174.629 191.688 172.503 176.634 188.597C170.346 195.32 167.995 200.456 166.828 210.022C164.333 230.475 161.817 236.81 152.404 246.346C134.025 264.964 105.251 265.547 86.8744 247.675C77.4374 238.497 73.2964 229.05 71.9584 213.642C70.5454 197.38 63.7794 186.766 51.1144 180.949C44.2504 177.795 30.7484 176.853 24.8634 179.117Z" fill="#295D72"/>
<path fill-rule="evenodd" clip-rule="evenodd" d="M260.918 1.79997C206.516 13.48 167.128 61.222 166.722 115.971C166.628 128.781 168.835 135.285 175.902 143.017C190.967 159.5 218.611 158.401 231.499 140.806C236.096 134.531 237.906 128.895 238.929 117.67C239.979 106.149 242.593 98.745 248.39 90.87C269.351 62.397 313.188 66.817 328.444 98.941C331.352 105.065 332.097 108.078 332.963 117.215C334.275 131.062 337.044 137.663 344.501 144.715C352.541 152.319 357.343 154.144 369.418 154.188C378.371 154.221 380.011 153.934 385.082 151.444C396.283 145.943 404.237 134.536 405.536 122.109C406.357 114.246 404.476 98.35 401.334 86.61C392.454 53.426 366.767 23.619 334.953 9.57997C318.913 2.50197 309.028 0.487974 288.418 0.0999744C273.192 -0.187026 268.954 0.0749744 260.918 1.79997ZM275.148 108.84C263.748 114.483 258.679 128.984 264.002 140.725C266.744 146.773 269.46 149.538 275.418 152.348C284.299 156.535 294.691 155.179 302.061 148.87C307.596 144.133 309.874 138.842 309.874 130.725C309.874 120.302 304.634 112.002 295.7 108.276C290.227 105.993 280.353 106.264 275.148 108.84ZM24.8634 179.117C13.3324 183.554 5.5504 190.798 1.8664 200.523C-0.0856025 205.676 -0.244602 207.572 0.215398 220.225C0.838398 237.377 3.7644 249.485 10.9064 264.468C23.4354 290.752 41.9054 309.199 68.3384 321.825C74.0614 324.559 83.1704 327.997 88.5814 329.464C97.7404 331.949 99.8304 332.133 118.918 332.133C137.994 332.133 140.099 331.948 149.231 329.471C200.361 315.598 235.357 272.89 238.566 220.45C239.324 208.05 237.678 200.997 232.111 192.794C219.783 174.629 191.688 172.503 176.634 188.597C170.346 195.32 167.995 200.456 166.828 210.022C164.333 230.475 161.817 236.81 152.404 246.346C134.025 264.964 105.251 265.547 86.8744 247.675C77.4374 238.497 73.2964 229.05 71.9584 213.642C70.5454 197.38 63.7794 186.766 51.1144 180.949C44.2504 177.795 30.7484 176.853 24.8634 179.117Z" fill="#295D72"/>
<path fill-rule="evenodd" clip-rule="evenodd" d="M260.918 1.79997C206.516 13.48 167.128 61.222 166.722 115.971C166.628 128.781 168.835 135.285 175.902 143.017C190.967 159.5 218.611 158.401 231.499 140.806C236.096 134.531 237.906 128.895 238.929 117.67C239.979 106.149 242.593 98.745 248.39 90.87C269.351 62.397 313.188 66.817 328.444 98.941C331.352 105.065 332.097 108.078 332.963 117.215C334.275 131.062 337.044 137.663 344.501 144.715C352.541 152.319 357.343 154.144 369.418 154.188C378.371 154.221 380.011 153.934 385.082 151.444C396.283 145.943 404.237 134.536 405.536 122.109C406.357 114.246 404.476 98.35 401.334 86.61C392.454 53.426 366.767 23.619 334.953 9.57997C318.913 2.50197 309.028 0.487974 288.418 0.0999744C273.192 -0.187026 268.954 0.0749744 260.918 1.79997ZM275.148 108.84C263.748 114.483 258.679 128.984 264.002 140.725C266.744 146.773 269.46 149.538 275.418 152.348C284.299 156.535 294.691 155.179 302.061 148.87C307.596 144.133 309.874 138.842 309.874 130.725C309.874 120.302 304.634 112.002 295.7 108.276C290.227 105.993 280.353 106.264 275.148 108.84ZM24.8634 179.117C13.3324 183.554 5.5504 190.798 1.8664 200.523C-0.0856025 205.676 -0.244602 207.572 0.215398 220.225C0.838398 237.377 3.7644 249.485 10.9064 264.468C23.4354 290.752 41.9054 309.199 68.3384 321.825C74.0614 324.559 83.1704 327.997 88.5814 329.464C97.7404 331.949 99.8304 332.133 118.918 332.133C137.994 332.133 140.099 331.948 149.231 329.471C200.361 315.598 235.357 272.89 238.566 220.45C239.324 208.05 237.678 200.997 232.111 192.794C219.783 174.629 191.688 172.503 176.634 188.597C170.346 195.32 167.995 200.456 166.828 210.022C164.333 230.475 161.817 236.81 152.404 246.346C134.025 264.964 105.251 265.547 86.8744 247.675C77.4374 238.497 73.2964 229.05 71.9584 213.642C70.5454 197.38 63.7794 186.766 51.1144 180.949C44.2504 177.795 30.7484 176.853 24.8634 179.117Z" fill="#295D72"/>
<path fill-rule="evenodd" clip-rule="evenodd" d="M260.918 1.79997C206.516 13.48 167.128 61.222 166.722 115.971C166.628 128.781 168.835 135.285 175.902 143.017C190.967 159.5 218.611 158.401 231.499 140.806C236.096 134.531 237.906 128.895 238.929 117.67C239.979 106.149 242.593 98.745 248.39 90.87C269.351 62.397 313.188 66.817 328.444 98.941C331.352 105.065 332.097 108.078 332.963 117.215C334.275 131.062 337.044 137.663 344.501 144.715C352.541 152.319 357.343 154.144 369.418 154.188C378.371 154.221 380.011 153.934 385.082 151.444C396.283 145.943 404.237 134.536 405.536 122.109C406.357 114.246 404.476 98.35 401.334 86.61C392.454 53.426 366.767 23.619 334.953 9.57997C318.913 2.50197 309.028 0.487974 288.418 0.0999744C273.192 -0.187026 268.954 0.0749744 260.918 1.79997ZM275.148 108.84C263.748 114.483 258.679 128.984 264.002 140.725C266.744 146.773 269.46 149.538 275.418 152.348C284.299 156.535 294.691 155.179 302.061 148.87C307.596 144.133 309.874 138.842 309.874 130.725C309.874 120.302 304.634 112.002 295.7 108.276C290.227 105.993 280.353 106.264 275.148 108.84ZM24.8634 179.117C13.3324 183.554 5.5504 190.798 1.8664 200.523C-0.0856025 205.676 -0.244602 207.572 0.215398 220.225C0.838398 237.377 3.7644 249.485 10.9064 264.468C23.4354 290.752 41.9054 309.199 68.3384 321.825C74.0614 324.559 83.1704 327.997 88.5814 329.464C97.7404 331.949 99.8304 332.133 118.918 332.133C137.994 332.133 140.099 331.948 149.231 329.471C200.361 315.598 235.357 272.89 238.566 220.45C239.324 208.05 237.678 200.997 232.111 192.794C219.783 174.629 191.688 172.503 176.634 188.597C170.346 195.32 167.995 200.456 166.828 210.022C164.333 230.475 161.817 236.81 152.404 246.346C134.025 264.964 105.251 265.547 86.8744 247.675C77.4374 238.497 73.2964 229.05 71.9584 213.642C70.5454 197.38 63.7794 186.766 51.1144 180.949C44.2504 177.795 30.7484 176.853 24.8634 179.117Z" fill="#295D72"/>
<path fill-rule="evenodd" clip-rule="evenodd" d="M260.918 1.79997C206.516 13.48 167.128 61.222 166.722 115.971C166.628 128.781 168.835 135.285 175.902 143.017C190.967 159.5 218.611 158.401 231.499 140.806C236.096 134.531 237.906 128.895 238.929 117.67C239.979 106.149 242.593 98.745 248.39 90.87C269.351 62.397 313.188 66.817 328.444 98.941C331.352 105.065 332.097 108.078 332.963 117.215C334.275 131.062 337.044 137.663 344.501 144.715C352.541 152.319 357.343 154.144 369.418 154.188C378.371 154.221 380.011 153.934 385.082 151.444C396.283 145.943 404.237 134.536 405.536 122.109C406.357 114.246 404.476 98.35 401.334 86.61C392.454 53.426 366.767 23.619 334.953 9.57997C318.913 2.50197 309.028 0.487974 288.418 0.0999744C273.192 -0.187026 268.954 0.0749744 260.918 1.79997ZM275.148 108.84C263.748 114.483 258.679 128.984 264.002 140.725C266.744 146.773 269.46 149.538 275.418 152.348C284.299 156.535 294.691 155.179 302.061 148.87C307.596 144.133 309.874 138.842 309.874 130.725C309.874 120.302 304.634 112.002 295.7 108.276C290.227 105.993 280.353 106.264 275.148 108.84ZM24.8634 179.117C13.3324 183.554 5.5504 190.798 1.8664 200.523C-0.0856025 205.676 -0.244602 207.572 0.215398 220.225C0.838398 237.377 3.7644 249.485 10.9064 264.468C23.4354 290.752 41.9054 309.199 68.3384 321.825C74.0614 324.559 83.1704 327.997 88.5814 329.464C97.7404 331.949 99.8304 332.133 118.918 332.133C137.994 332.133 140.099 331.948 149.231 329.471C200.361 315.598 235.357 272.89 238.566 220.45C239.324 208.05 237.678 200.997 232.111 192.794C219.783 174.629 191.688 172.503 176.634 188.597C170.346 195.32 167.995 200.456 166.828 210.022C164.333 230.475 161.817 236.81 152.404 246.346C134.025 264.964 105.251 265.547 86.8744 247.675C77.4374 238.497 73.2964 229.05 71.9584 213.642C70.5454 197.38 63.7794 186.766 51.1144 180.949C44.2504 177.795 30.7484 176.853 24.8634 179.117Z" fill="#295D72"/>
<path fill-rule="evenodd" clip-rule="evenodd" d="M260.918 1.79997C206.516 13.48 167.128 61.222 166.722 115.971C166.628 128.781 168.835 135.285 175.902 143.017C190.967 159.5 218.611 158.401 231.499 140.806C236.096 134.531 237.906 128.895 238.929 117.67C239.979 106.149 242.593 98.745 248.39 90.87C269.351 62.397 313.188 66.817 328.444 98.941C331.352 105.065 332.097 108.078 332.963 117.215C334.275 131.062 337.044 137.663 344.501 144.715C352.541 152.319 357.343 154.144 369.418 154.188C378.371 154.221 380.011 153.934 385.082 151.444C396.283 145.943 404.237 134.536 405.536 122.109C406.357 114.246 404.476 98.35 401.334 86.61C392.454 53.426 366.767 23.619 334.953 9.57997C318.913 2.50197 309.028 0.487974 288.418 0.0999744C273.192 -0.187026 268.954 0.0749744 260.918 1.79997ZM275.148 108.84C263.748 114.483 258.679 128.984 264.002 140.725C266.744 146.773 269.46 149.538 275.418 152.348C284.299 156.535 294.691 155.179 302.061 148.87C307.596 144.133 309.874 138.842 309.874 130.725C309.874 120.302 304.634 112.002 295.7 108.276C290.227 105.993 280.353 106.264 275.148 108.84ZM24.8634 179.117C13.3324 183.554 5.5504 190.798 1.8664 200.523C-0.0856025 205.676 -0.244602 207.572 0.215398 220.225C0.838398 237.377 3.7644 249.485 10.9064 264.468C23.4354 290.752 41.9054 309.199 68.3384 321.825C74.0614 324.559 83.1704 327.997 88.5814 329.464C97.7404 331.949 99.8304 332.133 118.918 332.133C137.994 332.133 140.099 331.948 149.231 329.471C200.361 315.598 235.357 272.89 238.566 220.45C239.324 208.05 237.678 200.997 232.111 192.794C219.783 174.629 191.688 172.503 176.634 188.597C170.346 195.32 167.995 200.456 166.828 210.022C164.333 230.475 161.817 236.81 152.404 246.346C134.025 264.964 105.251 265.547 86.8744 247.675C77.4374 238.497 73.2964 229.05 71.9584 213.642C70.5454 197.38 63.7794 186.766 51.1144 180.949C44.2504 177.795 30.7484 176.853 24.8634 179.117Z" fill="#295D72"/>
<path fill-rule="evenodd" clip-rule="evenodd" d="M260.918 1.79997C206.516 13.48 167.128 61.222 166.722 115.971C166.628 128.781 168.835 135.285 175.902 143.017C190.967 159.5 218.611 158.401 231.499 140.806C236.096 134.531 237.906 128.895 238.929 117.67C239.979 106.149 242.593 98.745 248.39 90.87C269.351 62.397 313.188 66.817 328.444 98.941C331.352 105.065 332.097 108.078 332.963 117.215C334.275 131.062 337.044 137.663 344.501 144.715C352.541 152.319 357.343 154.144 369.418 154.188C378.371 154.221 380.011 153.934 385.082 151.444C396.283 145.943 404.237 134.536 405.536 122.109C406.357 114.246 404.476 98.35 401.334 86.61C392.454 53.426 366.767 23.619 334.953 9.57997C318.913 2.50197 309.028 0.487974 288.418 0.0999744C273.192 -0.187026 268.954 0.0749744 260.918 1.79997ZM275.148 108.84C263.748 114.483 258.679 128.984 264.002 140.725C266.744 146.773 269.46 149.538 275.418 152.348C284.299 156.535 294.691 155.179 302.061 148.87C307.596 144.133 309.874 138.842 309.874 130.725C309.874 120.302 304.634 112.002 295.7 108.276C290.227 105.993 280.353 106.264 275.148 108.84ZM24.8634 179.117C13.3324 183.554 5.5504 190.798 1.8664 200.523C-0.0856025 205.676 -0.244602 207.572 0.215398 220.225C0.838398 237.377 3.7644 249.485 10.9064 264.468C23.4354 290.752 41.9054 309.199 68.3384 321.825C74.0614 324.559 83.1704 327.997 88.5814 329.464C97.7404 331.949 99.8304 332.133 118.918 332.133C137.994 332.133 140.099 331.948 149.231 329.471C200.361 315.598 235.357 272.89 238.566 220.45C239.324 208.05 237.678 200.997 232.111 192.794C219.783 174.629 191.688 172.503 176.634 188.597C170.346 195.32 167.995 200.456 166.828 210.022C164.333 230.475 161.817 236.81 152.404 246.346C134.025 264.964 105.251 265.547 86.8744 247.675C77.4374 238.497 73.2964 229.05 71.9584 213.642C70.5454 197.38 63.7794 186.766 51.1144 180.949C44.2504 177.795 30.7484 176.853 24.8634 179.117Z" fill="#295D72"/>
</svg>
