<svg width="343" height="337" viewBox="0 0 343 337" fill="none" xmlns="http://www.w3.org/2000/svg">
<path d="M28.8441 202.466L35.1686 198.372C35.1686 198.372 38.2395 182.06 35.9583 167.663C32.7558 147.352 18.9516 140.369 13.9359 142.373C8.92013 144.376 7.73565 150.415 16.7947 162.114C22.1394 169.03 29.0123 183.646 28.8441 202.466Z" fill="#295D72"/>
<g opacity="0.3">
<path d="M28.8441 202.466L35.1686 198.372C35.1686 198.372 38.2395 182.06 35.9583 167.663C32.7558 147.352 18.9516 140.369 13.9359 142.373C8.92013 144.376 7.73565 150.415 16.7947 162.114C22.1394 169.03 29.0123 183.646 28.8441 202.466Z" fill="white"/>
</g>
<path d="M31.1473 194.416H31.0815C30.963 194.398 30.8562 194.334 30.7839 194.239C30.7115 194.143 30.6792 194.023 30.6939 193.904C33.3188 174.894 25.6855 154.115 17.1018 145.729C17.0155 145.644 16.9662 145.529 16.9648 145.408C16.9635 145.288 17.0101 145.171 17.0944 145.085C17.1788 144.999 17.294 144.95 17.4146 144.948C17.5353 144.947 17.6516 144.993 17.7379 145.078C26.4752 153.61 34.2547 174.733 31.5933 194.021C31.5791 194.13 31.5262 194.23 31.4442 194.302C31.3622 194.375 31.2568 194.415 31.1473 194.416Z" fill="white"/>
<path d="M12.9196 212.754C11.9691 213.295 9.26377 211.211 8.53262 210.706C7.24847 209.831 6.21111 208.64 5.52025 207.248C4.74935 205.66 4.49373 203.87 4.7891 202.13C4.94119 201.212 5.15617 200.306 5.43251 199.417C5.68842 198.54 5.93701 197.663 6.16367 196.785C6.47121 195.936 6.60063 195.032 6.54387 194.131C6.31721 192.332 4.71598 191.075 3.26829 189.985C1.65975 188.786 -0.0072876 187.2 2.39642e-05 185.035C0.115283 183.354 0.786661 181.76 1.90834 180.502C2.94658 179.186 4.17493 178.031 5.11081 176.642C5.84759 175.678 6.23206 174.491 6.20023 173.278C6.0995 172.537 5.85086 171.824 5.46907 171.18C4.73792 169.769 3.69967 168.475 3.17324 166.961C2.64681 165.448 2.71992 163.561 3.9044 162.479C4.86952 161.587 6.31721 161.463 7.62598 161.551C8.85618 161.701 10.0388 162.118 11.0917 162.772C14.5281 164.68 16.4949 168.753 20.1434 170.222C21.5814 170.675 23.0466 171.037 24.5303 171.304C25.9926 171.692 27.4915 172.445 28.1861 173.798C29.5241 176.474 27.0382 179.771 27.9814 182.608C28.8149 185.123 31.2569 186.081 32.6242 188.348C33.1831 189.348 33.4085 190.501 33.2676 191.638C33.1483 193.559 32.6774 195.443 31.8784 197.195C30.9763 199.013 29.963 200.773 28.8441 202.466L12.9196 212.754Z" fill="#295D72"/>
<g opacity="0.65">
<path d="M12.9196 212.754C11.9691 213.295 9.26377 211.211 8.53262 210.706C7.24847 209.831 6.21111 208.64 5.52025 207.248C4.74935 205.66 4.49373 203.87 4.7891 202.13C4.94119 201.212 5.15617 200.306 5.43251 199.417C5.68842 198.54 5.93701 197.663 6.16367 196.785C6.47121 195.936 6.60063 195.032 6.54387 194.131C6.31721 192.332 4.71598 191.075 3.26829 189.985C1.65975 188.786 -0.0072876 187.2 2.39642e-05 185.035C0.115283 183.354 0.786661 181.76 1.90834 180.502C2.94658 179.186 4.17493 178.031 5.11081 176.642C5.84759 175.678 6.23206 174.491 6.20023 173.278C6.0995 172.537 5.85086 171.824 5.46907 171.18C4.73792 169.769 3.69967 168.475 3.17324 166.961C2.64681 165.448 2.71992 163.561 3.9044 162.479C4.86952 161.587 6.31721 161.463 7.62598 161.551C8.85618 161.701 10.0388 162.118 11.0917 162.772C14.5281 164.68 16.4949 168.753 20.1434 170.222C21.5814 170.675 23.0466 171.037 24.5303 171.304C25.9926 171.692 27.4915 172.445 28.1861 173.798C29.5241 176.474 27.0382 179.771 27.9814 182.608C28.8149 185.123 31.2569 186.081 32.6242 188.348C33.1831 189.348 33.4085 190.501 33.2676 191.638C33.1483 193.559 32.6774 195.443 31.8784 197.195C30.9763 199.013 29.963 200.773 28.8441 202.466L12.9196 212.754Z" fill="white"/>
</g>
<path d="M22.1029 207.372C22.0465 207.37 21.9911 207.357 21.9399 207.334C21.8887 207.31 21.8426 207.277 21.8045 207.235C21.7664 207.194 21.7369 207.145 21.7179 207.092C21.6988 207.039 21.6905 206.983 21.6934 206.926C22.4246 189.934 14.3819 171.165 8.53262 165.718C8.46146 165.638 8.42274 165.534 8.42401 165.427C8.42529 165.32 8.46646 165.217 8.53951 165.138C8.61256 165.06 8.71224 165.011 8.81911 165.002C8.92598 164.993 9.03237 165.024 9.11754 165.09C15.0545 170.654 23.2289 189.729 22.5123 206.963C22.507 207.07 22.4622 207.171 22.3865 207.246C22.3108 207.322 22.2097 207.367 22.1029 207.372Z" fill="white"/>
<path d="M19.3391 186.6H19.2148C15.1975 185.488 11.0717 184.814 6.90945 184.589C6.8531 184.588 6.7977 184.575 6.74647 184.551C6.69524 184.527 6.64922 184.494 6.6111 184.452C6.57297 184.411 6.54351 184.362 6.52444 184.309C6.50536 184.256 6.49705 184.2 6.5 184.143C6.50085 184.087 6.51325 184.031 6.53644 183.979C6.55963 183.927 6.59312 183.881 6.63487 183.843C6.67661 183.804 6.72574 183.775 6.77923 183.756C6.83273 183.738 6.88948 183.73 6.946 183.734C11.1914 183.955 15.4004 184.634 19.5 185.759C19.6072 185.796 19.6961 185.873 19.7479 185.974C19.7997 186.075 19.8104 186.192 19.7778 186.3C19.7486 186.392 19.6896 186.471 19.6101 186.526C19.5306 186.58 19.4352 186.606 19.3391 186.6Z" fill="white"/>
<path d="M174.11 336.334C267.385 336.334 343 292.678 343 238.827C343 184.975 267.385 141.32 174.11 141.32C80.835 141.32 5.22049 184.975 5.22049 238.827C5.22049 292.678 80.835 336.334 174.11 336.334Z" fill="#FAFAFA"/>
<path d="M84.3535 197.26C120.129 176.613 178.124 176.613 213.892 197.26C244.213 214.764 248.82 241.488 227.741 261.807L306.449 306.671C311.246 309.442 311.246 313.931 306.449 316.702L299.372 320.789C294.575 323.56 286.942 323.341 282.292 320.307L213.563 272.24C177.737 292.713 120.034 292.632 84.3827 272.05C48.5853 251.395 48.5853 217.916 84.3535 197.26Z" fill="#E6E6E6"/>
<path d="M98.8523 15.707L92.6521 19.2897C92.6835 19.0178 92.7006 18.7445 92.7033 18.4708V16.6721C92.7033 13.4697 90.4586 12.1755 87.6876 13.7475C86.4934 14.4762 85.4729 15.4569 84.6971 16.621C84.2365 12.5996 81.0852 11.1007 77.2466 13.3088C73.101 15.707 69.745 21.527 69.745 26.3161V28.9994C69.7162 30.075 69.9338 31.1429 70.3811 32.1215L65.263 35.0973C64.4474 35.6263 63.7694 36.3419 63.285 37.1848C62.8006 38.0277 62.5237 38.9738 62.4773 39.9448C62.4773 41.7216 63.7203 42.4381 65.263 41.5534L98.8962 22.1339C99.7079 21.6077 100.384 20.8967 100.868 20.0593C101.352 19.2218 101.631 18.2816 101.682 17.3156C101.638 15.5389 100.395 14.8223 98.8523 15.707Z" fill="#EBEBEB"/>
<path d="M17.0725 31.8363L20.5674 29.1384V21.432C20.5674 15.3195 25.4442 8.2273 30.7305 5.17838C36.0241 2.12215 40.3159 4.60077 40.3159 10.7059V11.8246C41.4317 10.0171 42.9539 8.49492 44.7614 7.37916C48.5707 5.18569 51.6562 6.9624 51.6562 11.3567V11.8685L56.533 9.05351C59.0409 7.5912 61.0735 8.77567 61.0735 11.671C60.9883 13.247 60.5328 14.7807 59.7439 16.1476C58.955 17.5145 57.855 18.6762 56.533 19.5383L17.0725 42.3211C14.5646 43.7834 12.532 42.5916 12.532 39.6963C12.6171 38.1213 13.0727 36.5887 13.8616 35.2229C14.6506 33.8572 15.7507 32.6969 17.0725 31.8363Z" fill="#EBEBEB"/>
<path d="M68.9334 210.699V232.948C68.9334 245.027 76.9176 257.076 92.8788 266.325C124.801 284.758 176.567 284.758 208.489 266.325C224.45 257.106 232.435 245.027 232.435 232.948V210.699C232.435 198.62 224.45 186.571 208.489 177.329C176.567 158.897 124.801 158.897 92.8788 177.329C76.9176 186.542 68.9334 198.62 68.9334 210.699ZM224.523 210.699C224.523 220.365 217.424 229.782 204.534 237.225C190.276 245.458 171.156 249.991 150.684 249.991C130.212 249.991 111.092 245.458 96.8343 237.225C83.944 229.782 76.8445 220.365 76.8445 210.699C76.8445 201.033 83.944 191.616 96.8343 184.173C111.092 175.94 130.212 171.407 150.684 171.407C171.156 171.407 190.283 175.94 204.534 184.173C217.431 191.616 224.523 201.055 224.523 210.699Z" fill="#295D72"/>
<path opacity="0.2" d="M68.9334 210.699V232.948C68.9334 245.027 76.9176 257.076 92.8788 266.325C124.801 284.758 176.567 284.758 208.489 266.325C224.45 257.106 232.435 245.027 232.435 232.948V210.699C232.435 198.62 224.45 186.571 208.489 177.329C176.567 158.897 124.801 158.897 92.8788 177.329C76.9176 186.542 68.9334 198.62 68.9334 210.699ZM224.523 210.699C224.523 220.365 217.424 229.782 204.534 237.225C190.276 245.458 171.156 249.991 150.684 249.991C130.212 249.991 111.092 245.458 96.8343 237.225C83.944 229.782 76.8445 220.365 76.8445 210.699C76.8445 201.033 83.944 191.616 96.8343 184.173C111.092 175.94 130.212 171.407 150.684 171.407C171.156 171.407 190.283 175.94 204.534 184.173C217.431 191.616 224.523 201.055 224.523 210.699Z" fill="white"/>
<path opacity="0.6" d="M232.354 235.025C231.082 242.68 227.711 248.441 214.134 259.036C194.941 274.024 146.341 280.144 118.133 270.837C91.5261 262.063 83.0374 244.888 83.0374 233.109L83.1105 226.185C79.0014 221.294 76.8372 216.037 76.8372 210.699C76.8372 205.23 79.1111 199.841 83.4176 194.848L83.5127 185.094H81.9992C73.2911 192.866 68.9334 201.779 68.9334 210.684V232.934C68.9334 245.012 76.9176 257.062 92.8788 266.311C124.801 284.743 176.567 284.743 208.489 266.311C223.536 257.639 231.491 246.387 232.354 235.025Z" fill="#295D72"/>
<path d="M208.496 177.329C176.567 158.897 124.808 158.897 92.8861 177.329C60.9638 195.762 60.9565 225.644 92.8861 244.076C124.816 262.509 176.567 262.509 208.496 244.076C240.426 225.644 240.419 195.762 208.496 177.329ZM204.541 237.225C190.283 245.458 171.156 249.991 150.691 249.991C130.226 249.991 111.099 245.458 96.8343 237.225C83.944 229.782 76.8445 220.365 76.8445 210.699C76.8445 201.033 83.944 191.616 96.8343 184.173C111.092 175.94 130.219 171.407 150.691 171.407C171.164 171.407 190.283 175.94 204.541 184.173C217.431 191.616 224.531 201.04 224.531 210.699C224.531 220.358 217.431 229.782 204.541 237.225Z" fill="#295D72"/>
<path opacity="0.5" d="M208.496 177.329C176.567 158.897 124.808 158.897 92.8861 177.329C60.9638 195.762 60.9565 225.644 92.8861 244.076C124.816 262.509 176.567 262.509 208.496 244.076C240.426 225.644 240.419 195.762 208.496 177.329ZM204.541 237.225C190.283 245.458 171.156 249.991 150.691 249.991C130.226 249.991 111.099 245.458 96.8343 237.225C83.944 229.782 76.8445 220.365 76.8445 210.699C76.8445 201.033 83.944 191.616 96.8343 184.173C111.092 175.94 130.219 171.407 150.691 171.407C171.164 171.407 190.283 175.94 204.541 184.173C217.431 191.616 224.531 201.04 224.531 210.699C224.531 220.358 217.431 229.782 204.541 237.225Z" fill="white"/>
<path d="M224.538 210.699C224.491 214.628 223.387 218.472 221.343 221.827C218.104 216.219 212.394 210.955 204.526 206.429C190.283 198.189 171.149 193.656 150.677 193.656C130.204 193.656 111.085 198.189 96.8344 206.429C88.9744 210.955 83.2714 216.219 80.0178 221.827C77.9896 218.466 76.8942 214.625 76.8445 210.699C76.8445 201.04 83.9441 191.616 96.8417 184.165C111.092 175.947 130.219 171.407 150.684 171.407C171.149 171.407 190.291 175.947 204.534 184.165C217.439 191.616 224.538 201.055 224.538 210.699Z" fill="#295D72"/>
<path opacity="0.3" d="M224.538 210.699C224.491 214.628 223.387 218.472 221.343 221.827C218.104 216.219 212.394 210.955 204.526 206.429C190.283 198.189 171.149 193.656 150.677 193.656C130.204 193.656 111.085 198.189 96.8344 206.429C88.9744 210.955 83.2714 216.219 80.0178 221.827C77.9896 218.466 76.8942 214.625 76.8445 210.699C76.8445 201.04 83.9441 191.616 96.8417 184.165C111.092 175.947 130.219 171.407 150.684 171.407C171.149 171.407 190.291 175.947 204.534 184.165C217.439 191.616 224.538 201.055 224.538 210.699Z" fill="white"/>
<path opacity="0.6" d="M96.8417 184.165C83.9441 191.616 76.8445 201.04 76.8445 210.699C76.8964 214.625 77.9943 218.467 80.0251 221.827C83.286 216.219 88.989 210.955 96.8417 206.429C100.162 204.53 103.612 202.866 107.166 201.45C104.051 202.656 94.4873 205.734 97.975 196.617C102.121 185.789 122.352 174.061 137.216 172.116C121.928 173.629 107.911 177.782 96.8417 184.165Z" fill="#295D72"/>
<path opacity="0.4" d="M204.541 194.248C190.283 186.015 171.156 181.482 150.691 181.482C130.226 181.482 111.092 186.015 96.8343 194.248C86.2033 200.39 79.5206 207.877 77.5026 215.737C79.5206 223.597 86.2033 231.091 96.8343 237.225C111.099 245.458 130.219 249.991 150.691 249.991C171.164 249.991 190.283 245.458 204.541 237.225C215.179 231.084 221.862 223.597 223.873 215.737C221.869 207.877 215.179 200.39 204.541 194.248Z" fill="white"/>
<path d="M91.3726 220.84C95.9423 224.423 101.126 226.689 106.412 228.488C111.713 230.243 117.143 231.583 122.651 232.495C133.659 234.282 144.823 234.919 155.963 234.396C161.527 234.147 167.098 233.628 172.633 232.882C178.151 232.141 183.618 231.064 189.004 229.658C194.364 228.317 199.549 226.354 204.453 223.809C205.664 223.164 206.836 222.448 207.963 221.666C209.095 220.894 210.167 220.039 211.173 219.107C212.186 218.171 213.091 217.124 213.871 215.985C214.677 214.816 215.291 213.525 215.691 212.161C215.715 213.656 215.467 215.142 214.96 216.548C214.423 217.962 213.721 219.307 212.869 220.555C212.026 221.813 211.066 222.988 210.003 224.065C208.949 225.146 207.829 226.16 206.647 227.099C201.882 230.731 196.601 233.629 190.978 235.697C185.434 237.786 179.716 239.379 173.891 240.457C168.096 241.554 162.233 242.25 156.343 242.541C144.521 243.159 132.675 241.898 121.248 238.805C115.531 237.238 110.01 235.031 104.789 232.224C102.189 230.799 99.7186 229.15 97.4047 227.296C96.827 226.836 96.286 226.331 95.7303 225.834C95.1746 225.337 94.6482 224.832 94.1437 224.299C93.1253 223.225 92.1984 222.068 91.3726 220.84Z" fill="white"/>
<path d="M206.062 258.239C206.16 256.251 206.726 254.314 207.715 252.586C208.703 250.858 210.086 249.388 211.75 248.295C213.315 247.381 214.741 247.286 215.779 247.871L233.999 258.29C235.03 258.882 235.674 260.162 235.681 261.946C235.581 263.934 235.014 265.87 234.025 267.598C233.037 269.325 231.655 270.796 229.992 271.89C228.413 272.811 226.98 272.906 225.942 272.306L207.729 261.895C206.72 261.354 206.069 260.074 206.062 258.239Z" fill="#37474F"/>
<path d="M207.765 261.946C206.72 261.354 206.069 260.074 206.062 258.239C206.088 256.759 206.419 255.3 207.034 253.954L233.217 268.958C232.365 270.156 231.281 271.17 230.029 271.941C228.45 272.862 227.017 272.957 225.978 272.357L207.765 261.946Z" fill="#263238"/>
<path d="M296.038 287.924L238.057 258.378L237.984 258.334C236.639 257.603 234.811 257.734 232.8 258.904C228.691 261.302 225.379 267.093 225.401 271.846C225.401 274.229 226.256 275.896 227.594 276.671L282.087 311.767C283.655 312.759 285.407 313.426 287.238 313.726C289.069 314.027 290.942 313.956 292.745 313.517C294.548 313.079 296.244 312.281 297.732 311.173C299.22 310.065 300.47 308.668 301.407 307.066C302.344 305.464 302.948 303.69 303.184 301.85C303.421 300.009 303.284 298.14 302.782 296.354C302.28 294.567 301.424 292.9 300.264 291.452C299.104 290.004 297.664 288.804 296.031 287.924H296.038Z" fill="#455A64"/>
<path d="M227.602 276.686L282.095 311.781C284.121 313.053 286.442 313.777 288.832 313.881C291.222 313.985 293.597 313.467 295.726 312.377C297.855 311.286 299.665 309.662 300.977 307.662C302.289 305.661 303.058 303.355 303.21 300.968C302.165 305.508 294.663 309.369 285.363 304.17C276.063 298.972 241.611 277.19 225.957 268.175C225.589 269.359 225.397 270.591 225.386 271.831C225.394 274.244 226.256 275.911 227.602 276.686Z" fill="#37474F"/>
<path d="M227.602 276.686C226.242 275.911 225.408 274.244 225.408 271.86C225.408 267.108 228.698 261.317 232.807 258.919C234.818 257.749 236.646 257.625 237.991 258.348L243.109 260.951C241.728 260.22 239.863 260.337 237.794 261.536C233.582 263.993 230.183 269.937 230.205 274.814C230.205 277.256 231.045 279.004 232.435 279.793" fill="#295D72"/>
<path opacity="0.2" d="M232.427 279.793C231.038 279.004 230.234 277.256 230.197 274.814C230.205 273.522 230.405 272.238 230.789 271.005C229.042 269.967 227.412 269.016 225.957 268.175C225.772 268.787 225.628 269.409 225.525 270.04C225.481 270.347 225.445 270.654 225.415 270.961C225.415 271.268 225.379 271.568 225.415 271.86C225.415 274.244 226.271 275.911 227.609 276.686L232.427 279.793Z" fill="black"/>
<path d="M88.9525 310.553L45.0831 288.611L27.6085 296.347L88.9525 310.553Z" fill="#295D72"/>
<g opacity="0.15">
<path d="M88.9525 310.553L45.0831 288.611L27.6085 296.347L88.9525 310.553Z" fill="white"/>
</g>
<path d="M88.9525 310.553L50.3109 284.721L57.2276 274.778L88.9525 310.553Z" fill="#295D72"/>
<g opacity="0.15">
<path d="M88.9525 310.553L50.3109 284.721L57.2276 274.778L88.9525 310.553Z" fill="white"/>
</g>
<path d="M50.3109 284.721L51.0347 291.587L88.9525 310.553L50.3109 284.721Z" fill="#295D72"/>
<g opacity="0.2">
<path d="M50.3109 284.721L51.0347 291.587L88.9525 310.553L50.3109 284.721Z" fill="black"/>
</g>
<path d="M44.0522 283.405C44.1584 283.403 44.2599 283.361 44.3373 283.288C44.4269 283.2 44.4808 283.082 44.4889 282.957C44.497 282.831 44.4586 282.707 44.3812 282.608L43.5404 281.482C43.5063 281.435 43.4624 281.395 43.4118 281.366C43.3611 281.337 43.3048 281.319 43.2466 281.313C43.1884 281.308 43.1297 281.315 43.0744 281.334C43.0192 281.353 42.9686 281.384 42.9262 281.424C42.837 281.512 42.7827 281.629 42.7733 281.754C42.7639 281.879 42.8 282.003 42.875 282.104C43.1529 282.477 43.438 282.835 43.7232 283.208C43.7591 283.264 43.8074 283.311 43.8645 283.345C43.9216 283.379 43.9858 283.4 44.0522 283.405Z" fill="#455A64"/>
<path d="M40.199 278.419C39.6775 277.658 39.173 276.891 38.6855 276.116C38.6196 276.009 38.5943 275.882 38.6145 275.759C38.6347 275.635 38.6988 275.523 38.7952 275.443C38.8407 275.407 38.8934 275.381 38.9498 275.367C39.0062 275.354 39.0649 275.352 39.1219 275.363C39.1788 275.375 39.2327 275.398 39.2798 275.432C39.3269 275.466 39.3661 275.509 39.3947 275.56C39.8846 276.328 40.3818 277.088 40.857 277.841C40.9287 277.944 40.9593 278.07 40.9431 278.194C40.9269 278.319 40.8649 278.433 40.7693 278.514C40.6984 278.575 40.6074 278.609 40.5134 278.609C40.4502 278.602 40.3893 278.582 40.335 278.549C40.2806 278.516 40.2342 278.472 40.199 278.419ZM36.3312 272.138C35.8852 271.327 35.4465 270.5 35.0297 269.674C34.9725 269.563 34.958 269.434 34.9889 269.313C35.0199 269.192 35.0943 269.086 35.1979 269.016C35.2482 268.985 35.3046 268.965 35.3633 268.958C35.422 268.951 35.4815 268.957 35.5378 268.975C35.594 268.993 35.6457 269.023 35.6893 269.063C35.7329 269.103 35.7673 269.152 35.7901 269.206C36.1996 270.018 36.631 270.829 37.0697 271.634C37.1319 271.742 37.1522 271.87 37.1266 271.993C37.101 272.115 37.0313 272.224 36.9307 272.299C36.8625 272.341 36.7842 272.364 36.7041 272.365C36.6274 272.364 36.5524 272.342 36.4869 272.302C36.4213 272.262 36.3676 272.206 36.3312 272.138ZM33.0702 265.441C32.7047 264.571 32.3391 263.693 32.032 262.823C31.9871 262.708 31.9862 262.58 32.0293 262.464C32.0724 262.348 32.1567 262.252 32.266 262.194C32.3204 262.171 32.3791 262.16 32.4382 262.161C32.4974 262.162 32.5557 262.175 32.6094 262.2C32.6631 262.224 32.7111 262.26 32.7501 262.305C32.7892 262.349 32.8185 262.401 32.8363 262.458C33.1507 263.313 33.4943 264.176 33.8599 265.031C33.909 265.146 33.9146 265.275 33.8756 265.393C33.8365 265.512 33.7555 265.612 33.6479 265.675C33.5911 265.703 33.5285 265.718 33.4651 265.719C33.3793 265.716 33.2962 265.688 33.226 265.639C33.1558 265.589 33.1017 265.521 33.0702 265.441ZM30.5404 258.363C30.2772 257.449 30.0286 256.521 29.8093 255.621C29.7744 255.502 29.7868 255.374 29.844 255.264C29.9012 255.153 29.9988 255.069 30.1164 255.029C30.1736 255.014 30.2333 255.011 30.2918 255.02C30.3503 255.029 30.4063 255.05 30.4563 255.081C30.5064 255.113 30.5494 255.154 30.5828 255.203C30.6161 255.252 30.639 255.307 30.6501 255.365C30.8621 256.257 31.1034 257.164 31.3813 258.063C31.4185 258.181 31.4107 258.308 31.3593 258.42C31.308 258.532 31.2168 258.622 31.1034 258.67H30.9718C30.8765 258.672 30.7833 258.643 30.7056 258.588C30.628 258.532 30.5701 258.454 30.5404 258.363ZM28.8442 250.971C28.6979 250.043 28.5663 249.092 28.4566 248.149C28.4352 248.028 28.4624 247.903 28.5321 247.802C28.6019 247.701 28.7088 247.631 28.8295 247.608C28.9494 247.6 29.0677 247.639 29.1592 247.717C29.2508 247.794 29.3082 247.905 29.3194 248.025C29.4218 248.953 29.5534 249.889 29.6996 250.803C29.7242 250.922 29.7023 251.046 29.6384 251.149C29.5745 251.253 29.4734 251.328 29.356 251.359H29.2755C29.1701 251.353 29.0697 251.312 28.9912 251.241C28.9127 251.171 28.8608 251.075 28.8442 250.971ZM28.113 243.396C28.113 242.665 28.0691 241.934 28.0691 241.152V240.538C28.0662 240.478 28.075 240.418 28.0951 240.362C28.1152 240.306 28.1462 240.255 28.1862 240.21C28.2263 240.166 28.2747 240.13 28.3286 240.105C28.3825 240.08 28.441 240.065 28.5005 240.062C28.6215 240.072 28.7338 240.128 28.8132 240.22C28.8926 240.312 28.9326 240.431 28.9246 240.552V241.152C28.9246 241.883 28.9246 242.614 28.9246 243.345C28.9348 243.467 28.8969 243.588 28.8191 243.682C28.7412 243.777 28.6294 243.837 28.5078 243.85C28.398 243.835 28.2972 243.781 28.2245 243.698C28.1517 243.614 28.1121 243.507 28.113 243.396ZM28.6906 236.311C28.5709 236.29 28.4641 236.223 28.392 236.125C28.3199 236.028 28.2881 235.906 28.3031 235.785C28.3835 234.842 28.4859 233.884 28.6029 232.941C28.6073 232.881 28.6239 232.823 28.6517 232.77C28.6795 232.717 28.7179 232.67 28.7645 232.632C28.8111 232.595 28.8649 232.567 28.9226 232.551C28.9803 232.535 29.0407 232.531 29.1001 232.539C29.2195 232.563 29.3245 232.634 29.3928 232.735C29.4611 232.836 29.4872 232.96 29.4656 233.08C29.3487 234.008 29.2463 234.952 29.1659 235.873C29.1607 235.986 29.1138 236.094 29.0342 236.175C28.9545 236.256 28.8478 236.304 28.7345 236.311H28.6906ZM29.7142 228.839C29.5972 228.802 29.4987 228.721 29.4389 228.614C29.3791 228.507 29.3625 228.381 29.3925 228.261C29.5826 227.333 29.802 226.404 30.0433 225.49C30.0542 225.432 30.0771 225.377 30.1105 225.329C30.144 225.28 30.1872 225.239 30.2374 225.208C30.2877 225.177 30.3438 225.157 30.4023 225.149C30.4608 225.141 30.5203 225.145 30.577 225.161C30.6927 225.206 30.7877 225.292 30.8431 225.403C30.8986 225.514 30.9106 225.642 30.8768 225.761C30.6428 226.653 30.4235 227.574 30.2334 228.481C30.2181 228.582 30.1682 228.674 30.0921 228.742C30.016 228.81 29.9186 228.85 29.8166 228.854L29.7142 228.839ZM31.6884 221.608C31.5771 221.554 31.4904 221.46 31.4457 221.345C31.4009 221.229 31.4014 221.101 31.4471 220.986C31.7615 220.109 32.1124 219.224 32.478 218.362C32.4987 218.307 32.5304 218.257 32.5713 218.215C32.6122 218.173 32.6613 218.14 32.7156 218.118C32.7698 218.096 32.8281 218.086 32.8866 218.087C32.9451 218.089 33.0027 218.103 33.0556 218.128C33.1621 218.192 33.2421 218.292 33.2811 218.41C33.32 218.528 33.3152 218.656 33.2676 218.771C32.9021 219.619 32.5365 220.482 32.2513 221.345C32.2239 221.43 32.1704 221.505 32.0983 221.559C32.0262 221.613 31.9391 221.643 31.8492 221.644C31.7933 221.646 31.7379 221.634 31.6884 221.608ZM34.6934 214.815C34.5904 214.743 34.5178 214.635 34.4895 214.512C34.4611 214.389 34.4791 214.26 34.5399 214.15C34.9859 213.339 35.4538 212.527 35.9291 211.745C35.9571 211.693 35.9961 211.648 36.0433 211.612C36.0904 211.577 36.1447 211.552 36.2023 211.54C36.2599 211.527 36.3195 211.527 36.3771 211.54C36.4347 211.552 36.4889 211.577 36.5359 211.613C36.6322 211.693 36.6968 211.805 36.7182 211.928C36.7397 212.051 36.7165 212.178 36.6529 212.286C36.1777 213.053 35.717 213.85 35.2856 214.647C35.2509 214.717 35.1977 214.775 35.1319 214.816C35.0662 214.858 34.9904 214.88 34.9128 214.881C34.8348 214.881 34.7586 214.858 34.6934 214.815ZM38.5758 208.608C38.4872 208.521 38.4332 208.405 38.4237 208.281C38.4143 208.158 38.4502 208.035 38.5247 207.935C39.073 207.204 39.6506 206.473 40.2283 205.786C40.266 205.741 40.313 205.705 40.3661 205.681C40.4191 205.656 40.4769 205.643 40.5353 205.643C40.5938 205.643 40.6516 205.656 40.7046 205.681C40.7576 205.705 40.8047 205.741 40.8424 205.786C40.9257 205.879 40.9717 206 40.9717 206.126C40.9717 206.251 40.9257 206.372 40.8424 206.466C40.2721 207.146 39.7091 207.848 39.1681 208.571C39.1299 208.625 39.0795 208.669 39.021 208.7C38.9626 208.73 38.8977 208.746 38.8317 208.747C38.776 208.746 38.721 208.733 38.6706 208.709C38.6202 208.685 38.5754 208.65 38.5393 208.608H38.5758ZM43.2772 203.139C43.1939 203.045 43.1479 202.924 43.1479 202.799C43.1479 202.674 43.1939 202.553 43.2772 202.459C43.9206 201.823 44.5859 201.201 45.2513 200.616C45.2952 200.577 45.347 200.548 45.4031 200.531C45.4593 200.514 45.5185 200.509 45.5768 200.516C45.635 200.524 45.691 200.544 45.7408 200.575C45.7906 200.606 45.8331 200.648 45.8655 200.697C45.9362 200.8 45.9678 200.926 45.9544 201.05C45.941 201.175 45.8835 201.291 45.7924 201.377C45.1343 201.947 44.4836 202.554 43.8475 203.175C43.7725 203.253 43.67 203.297 43.5623 203.3C43.5001 203.299 43.4389 203.284 43.3832 203.256C43.3276 203.228 43.2788 203.188 43.2406 203.139H43.2772ZM48.6585 198.511C48.5985 198.402 48.5788 198.276 48.6029 198.154C48.6269 198.032 48.6933 197.923 48.7901 197.845C49.5212 197.319 50.2524 196.829 50.9836 196.383C51.0336 196.353 51.0894 196.335 51.1473 196.328C51.2051 196.322 51.2637 196.328 51.319 196.346C51.3744 196.364 51.4253 196.393 51.4683 196.433C51.5113 196.472 51.5455 196.52 51.5685 196.573C51.6253 196.683 51.6396 196.811 51.6085 196.931C51.5775 197.051 51.5034 197.155 51.4003 197.224C50.6692 197.663 49.938 198.145 49.2069 198.686C49.1384 198.734 49.0566 198.76 48.9729 198.759C48.8982 198.751 48.8268 198.724 48.7655 198.68C48.7041 198.637 48.6547 198.578 48.6219 198.511H48.6585Z" fill="#455A64"/>
<path d="M55.0926 195.352H55.2242C55.6105 195.206 56.0094 195.096 56.416 195.023C56.536 194.997 56.6412 194.925 56.7093 194.823C56.7775 194.72 56.8034 194.596 56.7816 194.475C56.777 194.415 56.7606 194.358 56.7334 194.305C56.7062 194.252 56.6686 194.205 56.623 194.167C56.5773 194.129 56.5245 194.1 56.4676 194.083C56.4107 194.065 56.3509 194.059 56.2917 194.065C55.8388 194.15 55.3937 194.272 54.961 194.431C54.8453 194.477 54.7513 194.565 54.6984 194.678C54.6454 194.791 54.6374 194.919 54.6759 195.038C54.7035 195.127 54.7586 195.206 54.8335 195.262C54.9083 195.319 54.999 195.35 55.0926 195.352Z" fill="#455A64"/>
<path d="M260.401 27.1496L215.435 13.3673L250.077 37.1664L260.401 27.1496Z" fill="#295D72"/>
<path opacity="0.15" d="M260.401 27.1496L215.435 13.3673L250.077 37.1664L260.401 27.1496Z" fill="white"/>
<path d="M215.435 13.3673L263.83 21.1541L274.154 11.1373L215.435 13.3673Z" fill="#295D72"/>
<path opacity="0.15" d="M215.435 13.3673L263.83 21.1541L274.154 11.1373L215.435 13.3673Z" fill="white"/>
<path d="M263.83 21.1541L263.874 33.1158L260.401 27.1496L215.435 13.3673L263.83 21.1541Z" fill="#295D72"/>
<path opacity="0.2" d="M263.83 21.1541L263.874 33.1158L260.401 27.1496L215.435 13.3673L263.83 21.1541Z" fill="black"/>
<path d="M263.874 33.1159L256.958 30.491L260.401 27.1496L263.874 33.1159Z" fill="#295D72"/>
<path opacity="0.2" d="M260.401 27.1496L256.958 30.491L258.062 30.9078L260.401 27.1496Z" fill="black"/>
<path d="M272.948 25.0439C272.906 25.0751 272.871 25.1145 272.844 25.1598C272.818 25.205 272.801 25.2551 272.794 25.3071C272.779 25.4319 272.809 25.558 272.879 25.6626C272.949 25.7672 273.054 25.8434 273.175 25.8774L274.505 26.2357C274.561 26.2533 274.62 26.2584 274.678 26.2508C274.736 26.2432 274.792 26.2231 274.841 26.1918C274.891 26.1604 274.933 26.1187 274.964 26.0694C274.996 26.0202 275.016 25.9646 275.024 25.9067C275.042 25.7836 275.015 25.6583 274.947 25.5537C274.88 25.449 274.778 25.3719 274.659 25.3364L273.314 24.9781C273.252 24.9601 273.186 24.9566 273.123 24.968C273.06 24.9794 273 25.0054 272.948 25.0439Z" fill="#455A64"/>
<path d="M279.038 26.6744C279.909 26.9668 280.779 27.2739 281.634 27.5883C281.751 27.6327 281.849 27.7175 281.909 27.8274C281.97 27.9373 281.989 28.0651 281.963 28.1879C281.948 28.2444 281.921 28.2971 281.883 28.3423C281.846 28.3875 281.8 28.4241 281.747 28.4497C281.694 28.4754 281.637 28.4894 281.578 28.4909C281.52 28.4924 281.461 28.4813 281.407 28.4584C280.559 28.144 279.696 27.8442 278.834 27.5518C278.716 27.5116 278.617 27.4302 278.556 27.3226C278.494 27.215 278.473 27.0885 278.497 26.9668C278.514 26.873 278.567 26.7893 278.644 26.7329C278.699 26.6909 278.765 26.6635 278.834 26.6533C278.903 26.6431 278.973 26.6503 279.038 26.6744ZM285.919 29.3212C286.774 29.7014 287.615 30.0523 288.448 30.4983C288.561 30.5511 288.651 30.6438 288.699 30.7586C288.748 30.8733 288.752 31.002 288.712 31.1198C288.69 31.1744 288.657 31.2237 288.615 31.2645C288.572 31.3054 288.522 31.3369 288.467 31.3569C288.411 31.3769 288.353 31.385 288.294 31.3807C288.235 31.3764 288.178 31.3597 288.127 31.3318C287.308 30.9297 286.474 30.5422 285.633 30.1766C285.52 30.1253 285.429 30.0351 285.377 29.9224C285.325 29.8097 285.314 29.682 285.348 29.5624C285.372 29.4835 285.421 29.4144 285.487 29.365C285.549 29.3196 285.621 29.2915 285.697 29.2838C285.773 29.2761 285.849 29.289 285.919 29.3212ZM292.572 32.6772C293.391 33.1451 294.195 33.635 294.985 34.1395C295.09 34.2047 295.168 34.3059 295.204 34.4242C295.241 34.5425 295.233 34.6699 295.182 34.7829C295.153 34.8346 295.114 34.8797 295.066 34.9152C295.019 34.9507 294.964 34.9758 294.906 34.9889C294.848 35.002 294.788 35.0028 294.73 34.9912C294.672 34.9797 294.617 34.956 294.568 34.9218C293.793 34.4319 292.996 33.9567 292.192 33.4595C292.084 33.399 292.001 33.3007 291.961 33.1834C291.92 33.066 291.924 32.9378 291.973 32.8234C291.997 32.7625 292.037 32.7094 292.09 32.6698C292.162 32.6238 292.246 32.5999 292.332 32.6012C292.418 32.6025 292.501 32.6289 292.572 32.6772ZM298.875 36.7789C299.642 37.3419 300.396 37.9269 301.119 38.5118C301.217 38.5873 301.283 38.6972 301.304 38.8193C301.324 38.9413 301.297 39.0666 301.229 39.1698C301.193 39.2172 301.147 39.2564 301.095 39.2849C301.043 39.3135 300.985 39.3308 300.926 39.3356C300.867 39.3404 300.807 39.3327 300.751 39.313C300.695 39.2932 300.643 39.2619 300.6 39.221C299.869 38.6434 299.138 38.0731 298.407 37.5174C298.304 37.4461 298.232 37.3389 298.205 37.217C298.178 37.095 298.198 36.9674 298.261 36.8594C298.282 36.8211 298.312 36.7884 298.348 36.7643C298.427 36.7116 298.519 36.6847 298.614 36.6873C298.708 36.69 298.799 36.722 298.875 36.7789ZM304.687 41.6631C305.375 42.3138 306.055 42.9865 306.713 43.6737C306.798 43.7622 306.845 43.8801 306.845 44.0028C306.845 44.1254 306.798 44.2433 306.713 44.3318C306.671 44.3742 306.62 44.4079 306.565 44.4309C306.51 44.4539 306.451 44.4657 306.391 44.4657C306.331 44.4657 306.272 44.4539 306.217 44.4309C306.162 44.4079 306.111 44.3742 306.069 44.3318C305.426 43.6591 304.753 42.9938 304.081 42.3577C303.989 42.276 303.932 42.1625 303.921 42.0402C303.91 41.918 303.946 41.7962 304.022 41.6996L304.081 41.6411C304.166 41.5691 304.276 41.5314 304.388 41.5355C304.5 41.5395 304.607 41.585 304.687 41.6631ZM309.871 47.2345C310.347 47.8121 310.807 48.397 311.268 48.9966L311.633 49.4864C311.71 49.5799 311.747 49.6998 311.736 49.8201C311.725 49.9405 311.667 50.0517 311.575 50.1299C311.525 50.1641 311.469 50.1881 311.41 50.2004C311.351 50.2127 311.29 50.2131 311.231 50.2015C311.171 50.1899 311.115 50.1666 311.065 50.133C311.015 50.0993 310.972 50.056 310.939 50.0056L310.573 49.523C310.127 48.9381 309.674 48.3605 309.206 47.7902C309.122 47.7029 309.074 47.5862 309.074 47.4648C309.074 47.3434 309.122 47.2267 309.206 47.1394C309.253 47.0975 309.308 47.0657 309.368 47.0462C309.427 47.0266 309.491 47.0197 309.553 47.0259C309.616 47.0321 309.676 47.0512 309.731 47.0821C309.786 47.113 309.834 47.1549 309.871 47.2052V47.2345ZM313.71 53.23C313.817 53.1734 313.942 53.16 314.059 53.1926C314.176 53.2253 314.276 53.3014 314.339 53.4054C314.843 54.2097 315.34 55.0286 315.801 55.8548C315.833 55.905 315.854 55.9611 315.864 56.0197C315.874 56.0784 315.872 56.1385 315.859 56.1964C315.845 56.2543 315.82 56.3089 315.785 56.357C315.75 56.405 315.706 56.4456 315.655 56.4763C315.544 56.5259 315.418 56.5316 315.302 56.4923C315.187 56.453 315.091 56.3715 315.033 56.2643C314.565 55.4527 314.075 54.6411 313.571 53.8588C313.506 53.7658 313.478 53.652 313.493 53.5397C313.508 53.4274 313.565 53.3247 313.651 53.2519L313.71 53.23ZM317.417 59.8104C317.534 59.7684 317.662 59.7722 317.776 59.821C317.89 59.8699 317.981 59.9601 318.031 60.0736C318.433 60.929 318.828 61.7991 319.186 62.6692C319.212 62.7227 319.226 62.7809 319.228 62.8401C319.23 62.8993 319.221 62.9584 319.199 63.0137C319.178 63.0691 319.146 63.1196 319.105 63.1621C319.064 63.2047 319.014 63.2385 318.96 63.2614C318.84 63.2952 318.713 63.2832 318.602 63.2278C318.491 63.1723 318.405 63.0774 318.36 62.9616C318.009 62.1062 317.629 61.2507 317.227 60.4172C317.176 60.3266 317.16 60.221 317.18 60.1193C317.2 60.0176 317.255 59.9263 317.336 59.8615C317.355 59.8219 317.383 59.787 317.417 59.7592V59.8104ZM320.232 66.7563C320.353 66.7333 320.479 66.7565 320.585 66.8214C320.69 66.8863 320.768 66.9883 320.802 67.1073C321.08 67.9993 321.343 68.9133 321.57 69.8199C321.587 69.8761 321.593 69.9354 321.586 69.9939C321.579 70.0523 321.559 70.1086 321.529 70.159C321.498 70.2095 321.458 70.2529 321.409 70.2864C321.361 70.32 321.306 70.3429 321.248 70.3536C321.126 70.3695 321.002 70.3395 320.901 70.2692C320.799 70.1989 320.728 70.0935 320.7 69.9734C320.473 69.0814 320.217 68.1821 319.969 67.312C319.938 67.2279 319.934 67.1362 319.957 67.0497C319.981 66.9632 320.031 66.8863 320.1 66.8295C320.133 66.7778 320.178 66.7352 320.232 66.7052V66.7563ZM321.987 73.9582C322.112 73.9552 322.234 73.9981 322.329 74.079C322.425 74.1598 322.488 74.2729 322.506 74.3969C322.652 75.3109 322.769 76.2394 322.864 77.1607C322.871 77.218 322.866 77.2762 322.849 77.3314C322.832 77.3866 322.804 77.4377 322.766 77.4812C322.728 77.5247 322.681 77.5597 322.629 77.5838C322.577 77.608 322.52 77.6207 322.462 77.6213C322.337 77.62 322.216 77.5721 322.124 77.4869C322.032 77.4018 321.976 77.2855 321.965 77.1607C321.87 76.2614 321.76 75.3547 321.614 74.4554C321.6 74.3797 321.608 74.3018 321.635 74.2298C321.662 74.1578 321.707 74.0943 321.767 74.046C321.823 73.9771 321.9 73.9283 321.987 73.9071V73.9582Z" fill="#455A64"/>
<path d="M329.993 190.695C328.033 189.525 325.269 189.686 322.199 191.426L266.514 223.597C260.569 227.026 255.744 235.185 255.744 241.817C255.744 245.056 256.899 247.323 258.771 248.397L264.744 251.841C266.697 252.953 269.424 252.777 272.451 251.03L328.143 218.859C334.087 215.43 338.906 207.27 338.906 200.638C338.906 197.421 337.765 195.147 335.908 194.058C334.891 193.502 330.972 191.28 329.993 190.695Z" fill="#E0E0E0"/>
<path d="M267.508 252.236C264.145 252.236 262.054 249.575 262.054 245.297C262.054 238.797 266.799 230.762 272.634 227.399L328.326 195.228C329.76 194.338 331.399 193.835 333.086 193.765C336.449 193.765 338.54 196.427 338.54 200.704C338.54 207.211 333.795 215.24 327.96 218.61L272.268 250.781C270.835 251.671 269.194 252.173 267.508 252.236Z" fill="#FAFAFA"/>
<path d="M333.086 194.102C336.222 194.102 338.204 196.624 338.204 200.682C338.204 207.072 333.539 214.962 327.807 218.23L272.114 250.401C270.737 251.261 269.16 251.749 267.537 251.819C266.843 251.843 266.152 251.706 265.518 251.421C264.885 251.136 264.325 250.709 263.882 250.174C262.843 248.748 262.327 247.008 262.419 245.246C262.419 238.863 267.084 230.974 272.816 227.698L328.508 195.528C329.886 194.668 331.463 194.179 333.086 194.109M333.086 193.378C331.333 193.444 329.629 193.969 328.143 194.899L272.451 227.07C266.506 230.506 261.688 238.658 261.688 245.29C261.688 249.933 264.05 252.602 267.537 252.602C269.288 252.534 270.991 252.012 272.48 251.088L328.172 218.917C334.116 215.488 338.935 207.328 338.935 200.697C338.935 196.054 336.573 193.385 333.086 193.385V193.378Z" fill="#EBEBEB"/>
<path d="M281.181 234.22C281.407 233.796 281.371 233.358 281.181 233.241L279.316 232.166C279.277 232.145 279.233 232.135 279.188 232.135C279.144 232.135 279.1 232.145 279.06 232.166L277.349 232.824L276.786 231.625C276.759 231.566 276.712 231.517 276.655 231.486L274.79 230.404C274.556 230.272 274.169 230.572 274.015 231.069L272.853 234.878C272.789 235.108 272.657 235.312 272.473 235.463L269.877 237.474C269.46 237.788 269.299 238.563 269.599 238.775L271.478 240.135C271.543 240.202 271.59 240.284 271.616 240.373C271.641 240.462 271.644 240.556 271.625 240.647L271.179 244.354C271.142 244.625 271.222 244.807 271.347 244.873L273.211 245.955C273.357 246.036 273.577 245.955 273.774 245.714L276.099 242.746C276.148 242.664 276.216 242.597 276.298 242.55C276.38 242.502 276.473 242.477 276.567 242.475L278.9 242.731C279.265 242.782 279.696 242.11 279.631 241.605L279.185 238.41C279.164 238.174 279.215 237.937 279.331 237.73L281.181 234.22Z" fill="#295D72"/>
<path opacity="0.15" d="M281.159 233.226C281.119 233.208 281.075 233.198 281.031 233.198C280.987 233.198 280.943 233.208 280.903 233.226L278.3 234.22C278.266 234.237 278.229 234.247 278.192 234.248C278.154 234.25 278.116 234.244 278.081 234.23C278.046 234.216 278.014 234.195 277.988 234.168C277.961 234.141 277.941 234.109 277.927 234.074L277.328 232.802L279.038 232.151C279.078 232.131 279.122 232.121 279.166 232.121C279.211 232.121 279.255 232.131 279.294 232.151L281.159 233.226Z" fill="white"/>
<path opacity="0.15" d="M274.695 235.946C274.63 236.175 274.498 236.378 274.315 236.531L271.72 238.534C271.6 238.627 271.505 238.748 271.442 238.885L269.577 237.803C269.644 237.668 269.739 237.548 269.855 237.452L272.451 235.449C272.633 235.299 272.766 235.098 272.831 234.871L274.695 235.946Z" fill="white"/>
<path opacity="0.1" d="M276.648 231.478C276.414 231.325 276.019 231.625 275.858 232.137L274.695 235.946L272.831 234.864L273.993 231.054C274.147 230.557 274.535 230.257 274.769 230.389C274.82 230.389 276.399 231.34 276.64 231.471L276.648 231.478Z" fill="black"/>
<path opacity="0.25" d="M273.321 241.203L271.471 240.135L269.592 238.775C269.373 238.615 269.402 238.176 269.592 237.818L271.456 238.9C271.266 239.251 271.237 239.697 271.456 239.858L273.321 241.203Z" fill="black"/>
<path opacity="0.15" d="M273.05 245.422C273.05 245.692 273.094 245.875 273.233 245.948L271.361 244.866C271.288 244.804 271.234 244.722 271.205 244.63C271.177 244.538 271.175 244.44 271.2 244.347L271.646 240.64C271.665 240.552 271.663 240.462 271.64 240.376C271.617 240.289 271.574 240.209 271.515 240.143L273.365 241.21C273.424 241.275 273.468 241.354 273.491 241.439C273.513 241.524 273.515 241.614 273.496 241.7L273.05 245.422Z" fill="black"/>
<path d="M276.765 231.61L277.927 234.081C277.941 234.117 277.961 234.149 277.988 234.176C278.014 234.202 278.046 234.223 278.081 234.237C278.116 234.251 278.154 234.257 278.192 234.255C278.229 234.254 278.266 234.244 278.3 234.228L280.903 233.233C281.312 233.072 281.481 233.657 281.181 234.22L279.302 237.745C279.186 237.951 279.135 238.188 279.155 238.424L279.601 241.62C279.667 242.124 279.236 242.797 278.87 242.746L276.545 242.46C276.451 242.462 276.358 242.488 276.276 242.535C276.194 242.582 276.126 242.65 276.077 242.731L273.781 245.699C273.409 246.175 272.977 246.007 273.05 245.414L273.496 241.707C273.517 241.617 273.515 241.522 273.489 241.433C273.464 241.343 273.416 241.261 273.35 241.196L271.471 239.843C271.171 239.624 271.339 238.856 271.749 238.534L274.344 236.531C274.528 236.38 274.661 236.175 274.725 235.946L275.887 232.137C276.041 231.53 276.574 231.223 276.765 231.61Z" fill="#295D72"/>
<path opacity="0.5" d="M276.765 231.61L277.927 234.081C277.941 234.117 277.961 234.149 277.988 234.176C278.014 234.202 278.046 234.223 278.081 234.237C278.116 234.251 278.154 234.257 278.192 234.255C278.229 234.254 278.266 234.244 278.3 234.228L280.903 233.233C281.312 233.072 281.481 233.657 281.181 234.22L279.302 237.745C279.186 237.951 279.135 238.188 279.155 238.424L279.601 241.62C279.667 242.124 279.236 242.797 278.87 242.746L276.545 242.46C276.451 242.462 276.358 242.488 276.276 242.535C276.194 242.582 276.126 242.65 276.077 242.731L273.781 245.699C273.409 246.175 272.977 246.007 273.05 245.414L273.496 241.707C273.517 241.617 273.515 241.522 273.489 241.433C273.464 241.343 273.416 241.261 273.35 241.196L271.471 239.843C271.171 239.624 271.339 238.856 271.749 238.534L274.344 236.531C274.528 236.38 274.661 236.175 274.725 235.946L275.887 232.137C276.041 231.53 276.574 231.223 276.765 231.61Z" fill="white"/>
<path d="M294.254 226.689C294.48 226.265 294.437 225.834 294.254 225.717L292.397 224.642C292.356 224.622 292.311 224.611 292.265 224.611C292.219 224.611 292.174 224.622 292.133 224.642L290.43 225.3L289.86 224.101C289.836 224.041 289.792 223.992 289.735 223.962L287.871 222.88C287.637 222.748 287.249 223.048 287.096 223.545L285.882 227.377C285.816 227.605 285.683 227.808 285.502 227.962L282.906 229.965C282.49 230.287 282.329 231.062 282.621 231.274L284.508 232.634C284.572 232.7 284.619 232.782 284.643 232.872C284.667 232.961 284.668 233.055 284.646 233.146L284.208 236.852C284.171 237.123 284.244 237.306 284.369 237.372L286.211 238.417C286.357 238.498 286.569 238.417 286.774 238.176L289.099 235.207C289.148 235.126 289.216 235.059 289.298 235.011C289.38 234.964 289.473 234.938 289.567 234.937L291.892 235.222C292.258 235.266 292.689 234.601 292.623 234.096L292.185 230.901C292.161 230.665 292.212 230.427 292.331 230.221L294.254 226.689Z" fill="#295D72"/>
<path opacity="0.15" d="M294.21 225.71C294.17 225.692 294.126 225.682 294.082 225.682C294.038 225.682 293.994 225.692 293.954 225.71L291.329 226.704C291.295 226.721 291.257 226.73 291.219 226.732C291.181 226.734 291.143 226.728 291.107 226.714C291.072 226.7 291.039 226.679 291.012 226.652C290.985 226.626 290.963 226.593 290.949 226.558L290.357 225.286L292.06 224.635C292.101 224.615 292.146 224.604 292.192 224.604C292.238 224.604 292.283 224.615 292.324 224.635L294.21 225.71Z" fill="white"/>
<path opacity="0.15" d="M287.747 228.422C287.681 228.651 287.549 228.855 287.366 229.007L284.749 231.032C284.629 231.125 284.534 231.246 284.471 231.383L282.621 230.301C282.693 230.167 282.79 230.048 282.906 229.95L285.502 227.947C285.683 227.794 285.816 227.59 285.882 227.362L287.747 228.422Z" fill="white"/>
<path opacity="0.1" d="M289.699 223.955C289.465 223.801 289.07 224.101 288.909 224.613L287.747 228.422L285.882 227.377L287.045 223.567C287.198 223.07 287.586 222.77 287.82 222.902C287.871 222.902 289.45 223.853 289.684 223.977L289.699 223.955Z" fill="black"/>
<path opacity="0.25" d="M286.372 233.672L284.522 232.612L282.643 231.252C282.431 231.091 282.46 230.652 282.643 230.294L284.515 231.376C284.325 231.727 284.295 232.173 284.515 232.327L286.372 233.672Z" fill="black"/>
<path opacity="0.15" d="M286.072 237.891C286.036 238.169 286.116 238.351 286.248 238.424L284.383 237.342C284.259 237.269 284.186 237.094 284.222 236.823L284.668 233.116C284.685 233.029 284.682 232.939 284.659 232.853C284.637 232.767 284.595 232.687 284.537 232.619L286.387 233.679C286.446 233.744 286.49 233.823 286.512 233.908C286.535 233.993 286.537 234.083 286.518 234.169L286.072 237.891Z" fill="black"/>
<path d="M289.808 224.087L290.971 226.558C290.985 226.593 291.007 226.626 291.034 226.652C291.061 226.679 291.093 226.7 291.129 226.714C291.165 226.728 291.203 226.734 291.241 226.732C291.279 226.73 291.317 226.721 291.351 226.704L293.954 225.71C294.363 225.549 294.532 226.134 294.232 226.689L292.353 230.221C292.234 230.427 292.183 230.665 292.207 230.901L292.645 234.096C292.718 234.601 292.287 235.266 291.914 235.222L289.589 234.937C289.494 234.938 289.402 234.964 289.32 235.011C289.238 235.059 289.17 235.126 289.121 235.207L286.796 238.176C286.423 238.651 285.992 238.483 286.065 237.891L286.511 234.184C286.531 234.093 286.528 233.999 286.502 233.91C286.477 233.82 286.429 233.739 286.365 233.672L284.486 232.319C284.186 232.1 284.347 231.332 284.763 231.011L287.359 229.007C287.543 228.856 287.676 228.652 287.739 228.422L288.902 224.613C289.092 224.006 289.626 223.721 289.808 224.087Z" fill="#295D72"/>
<path opacity="0.5" d="M289.808 224.087L290.971 226.558C290.985 226.593 291.007 226.626 291.034 226.652C291.061 226.679 291.093 226.7 291.129 226.714C291.165 226.728 291.203 226.734 291.241 226.732C291.279 226.73 291.317 226.721 291.351 226.704L293.954 225.71C294.363 225.549 294.532 226.134 294.232 226.689L292.353 230.221C292.234 230.427 292.183 230.665 292.207 230.901L292.645 234.096C292.718 234.601 292.287 235.266 291.914 235.222L289.589 234.937C289.494 234.938 289.402 234.964 289.32 235.011C289.238 235.059 289.17 235.126 289.121 235.207L286.796 238.176C286.423 238.651 285.992 238.483 286.065 237.891L286.511 234.184C286.531 234.093 286.528 233.999 286.502 233.91C286.477 233.82 286.429 233.739 286.365 233.672L284.486 232.319C284.186 232.1 284.347 231.332 284.763 231.011L287.359 229.007C287.543 228.856 287.676 228.652 287.739 228.422L288.902 224.613C289.092 224.006 289.626 223.721 289.808 224.087Z" fill="white"/>
<path d="M307.283 219.166C307.502 218.742 307.466 218.31 307.283 218.193L305.397 217.141C305.355 217.122 305.31 217.112 305.265 217.112C305.22 217.112 305.175 217.122 305.133 217.141L303.423 217.799L302.86 216.599C302.836 216.54 302.792 216.49 302.735 216.461L300.871 215.378C300.637 215.247 300.242 215.547 300.096 216.044L298.933 219.853C298.867 220.081 298.735 220.285 298.553 220.438L295.95 222.441C295.541 222.763 295.372 223.531 295.672 223.75L297.551 225.11C297.619 225.175 297.668 225.256 297.694 225.346C297.72 225.436 297.721 225.531 297.698 225.622L297.252 229.329C297.252 229.599 297.295 229.775 297.42 229.848L299.284 230.93C299.438 231.011 299.65 230.93 299.854 230.689L302.172 227.72C302.221 227.638 302.291 227.57 302.374 227.523C302.458 227.475 302.552 227.45 302.647 227.45L304.965 227.735C305.338 227.779 305.77 227.114 305.696 226.609L305.258 223.414C305.235 223.178 305.283 222.941 305.397 222.734L307.283 219.166Z" fill="#295D72"/>
<path opacity="0.15" d="M307.261 218.186C307.22 218.168 307.175 218.159 307.129 218.159C307.084 218.159 307.039 218.168 306.998 218.186L304.402 219.18C304.368 219.197 304.33 219.207 304.292 219.209C304.254 219.21 304.216 219.204 304.18 219.19C304.145 219.177 304.112 219.156 304.085 219.129C304.058 219.102 304.036 219.07 304.022 219.034L303.423 217.762L305.133 217.111C305.173 217.091 305.217 217.081 305.261 217.081C305.306 217.081 305.35 217.091 305.389 217.111L307.261 218.186Z" fill="white"/>
<path opacity="0.15" d="M300.834 220.891C300.768 221.122 300.636 221.327 300.454 221.484L297.858 223.487C297.739 223.582 297.641 223.701 297.573 223.838L295.709 222.756C295.781 222.622 295.878 222.503 295.994 222.405L298.59 220.401C298.771 220.248 298.903 220.045 298.97 219.817L300.834 220.891Z" fill="white"/>
<path opacity="0.1" d="M302.75 216.409C302.516 216.256 302.114 216.556 301.96 217.06L300.834 220.891L298.97 219.817L300.132 216.007C300.286 215.51 300.673 215.21 300.907 215.342C300.959 215.342 302.53 216.292 302.772 216.417L302.75 216.409Z" fill="black"/>
<path opacity="0.25" d="M299.416 226.148L297.573 225.088L295.672 223.721C295.46 223.56 295.482 223.121 295.672 222.763L297.537 223.845C297.354 224.196 297.325 224.642 297.537 224.796L299.416 226.148Z" fill="black"/>
<path opacity="0.15" d="M299.123 230.367C299.087 230.645 299.167 230.828 299.299 230.901L297.434 229.819C297.31 229.746 297.237 229.57 297.266 229.3L297.712 225.585C297.731 225.5 297.73 225.411 297.708 225.326C297.686 225.241 297.645 225.162 297.588 225.096L299.43 226.156C299.488 226.222 299.529 226.301 299.552 226.386C299.575 226.47 299.578 226.559 299.562 226.646L299.123 230.367Z" fill="black"/>
<path d="M302.86 216.563L304.022 219.034C304.036 219.07 304.058 219.102 304.085 219.129C304.112 219.156 304.145 219.177 304.18 219.19C304.216 219.204 304.254 219.21 304.292 219.209C304.33 219.207 304.368 219.197 304.402 219.18L306.998 218.186C307.415 218.025 307.575 218.61 307.283 219.166L305.397 222.697C305.283 222.905 305.235 223.142 305.258 223.377L305.696 226.572C305.77 227.077 305.338 227.742 304.965 227.698L302.647 227.413C302.552 227.414 302.458 227.439 302.374 227.486C302.291 227.533 302.221 227.602 302.172 227.684L299.854 230.652C299.482 231.128 299.05 230.959 299.123 230.367L299.562 226.66C299.584 226.57 299.583 226.476 299.559 226.386C299.534 226.297 299.488 226.215 299.423 226.148L297.537 224.788C297.244 224.576 297.405 223.801 297.822 223.487L300.417 221.484C300.599 221.33 300.731 221.127 300.798 220.899L301.96 217.089C302.143 216.482 302.677 216.175 302.86 216.563Z" fill="#295D72"/>
<path opacity="0.5" d="M302.86 216.563L304.022 219.034C304.036 219.07 304.058 219.102 304.085 219.129C304.112 219.156 304.145 219.177 304.18 219.19C304.216 219.204 304.254 219.21 304.292 219.209C304.33 219.207 304.368 219.197 304.402 219.18L306.998 218.186C307.415 218.025 307.575 218.61 307.283 219.166L305.397 222.697C305.283 222.905 305.235 223.142 305.258 223.377L305.696 226.572C305.77 227.077 305.338 227.742 304.965 227.698L302.647 227.413C302.552 227.414 302.458 227.439 302.374 227.486C302.291 227.533 302.221 227.602 302.172 227.684L299.854 230.652C299.482 231.128 299.05 230.959 299.123 230.367L299.562 226.66C299.584 226.57 299.583 226.476 299.559 226.386C299.534 226.297 299.488 226.215 299.423 226.148L297.537 224.788C297.244 224.576 297.405 223.801 297.822 223.487L300.417 221.484C300.599 221.33 300.731 221.127 300.798 220.899L301.96 217.089C302.143 216.482 302.677 216.175 302.86 216.563Z" fill="white"/>
<path d="M320.327 211.642C320.554 211.218 320.517 210.787 320.327 210.67L318.47 209.588C318.428 209.569 318.383 209.56 318.338 209.56C318.293 209.56 318.248 209.569 318.206 209.588L316.496 210.246L315.933 209.047C315.908 208.986 315.864 208.935 315.808 208.9C315.574 208.776 313.995 207.855 313.944 207.826C313.71 207.694 313.315 207.994 313.161 208.491L311.999 212.3C311.935 212.528 311.806 212.732 311.626 212.885L309.023 214.889C308.614 215.21 308.446 215.978 308.745 216.197L310.624 217.557C310.691 217.621 310.739 217.701 310.765 217.79C310.791 217.879 310.793 217.972 310.771 218.062L310.325 221.769C310.325 222.039 310.368 222.222 310.493 222.295L312.357 223.377C312.503 223.458 312.723 223.377 312.92 223.136L315.245 220.168C315.294 220.086 315.362 220.019 315.444 219.972C315.526 219.924 315.619 219.899 315.713 219.897L318.038 220.182C318.411 220.226 318.843 219.561 318.769 219.056L318.323 215.861C318.306 215.625 318.357 215.389 318.47 215.181L320.327 211.642Z" fill="#295D72"/>
<path opacity="0.15" d="M320.305 210.662C320.265 210.644 320.221 210.635 320.177 210.635C320.133 210.635 320.089 210.644 320.049 210.662L317.446 211.657C317.412 211.674 317.375 211.683 317.338 211.685C317.3 211.686 317.262 211.68 317.227 211.666C317.192 211.652 317.16 211.632 317.134 211.605C317.107 211.578 317.087 211.546 317.073 211.511L316.474 210.238L318.185 209.588C318.224 209.566 318.268 209.554 318.313 209.554C318.357 209.554 318.401 209.566 318.44 209.588L320.305 210.662Z" fill="white"/>
<path opacity="0.15" d="M313.849 213.368C313.783 213.598 313.65 213.804 313.469 213.96L310.873 215.963C310.753 216.058 310.656 216.178 310.588 216.314L308.723 215.232C308.793 215.099 308.887 214.979 309.001 214.881L311.597 212.878C311.783 212.727 311.919 212.523 311.984 212.293L313.849 213.368Z" fill="white"/>
<path opacity="0.1" d="M315.801 208.908C315.567 208.754 315.165 209.054 315.011 209.558L313.849 213.368L311.984 212.293L313.147 208.484C313.293 207.986 313.688 207.687 313.922 207.818C313.973 207.818 315.545 208.769 315.786 208.893L315.801 208.908Z" fill="black"/>
<path opacity="0.25" d="M312.467 218.603L310.624 217.543L308.745 216.183C308.526 216.022 308.555 215.583 308.745 215.225L310.61 216.307C310.42 216.658 310.398 217.104 310.61 217.258L312.467 218.603Z" fill="black"/>
<path opacity="0.15" d="M312.167 222.844C312.167 223.121 312.218 223.304 312.35 223.377L310.471 222.259C310.347 222.186 310.273 222.01 310.303 221.74L310.749 218.025C310.766 217.939 310.764 217.851 310.742 217.766C310.721 217.681 310.68 217.603 310.624 217.535L312.467 218.596C312.524 218.662 312.566 218.741 312.587 218.826C312.609 218.911 312.61 219 312.591 219.085L312.167 222.844Z" fill="black"/>
<path d="M315.911 209.039L317.073 211.511C317.087 211.546 317.109 211.578 317.136 211.605C317.163 211.632 317.196 211.653 317.231 211.667C317.267 211.68 317.305 211.687 317.343 211.685C317.382 211.683 317.419 211.674 317.453 211.657L320.049 210.662C320.466 210.502 320.627 211.087 320.327 211.642L318.448 215.174C318.335 215.382 318.284 215.618 318.302 215.854L318.748 219.049C318.821 219.553 318.389 220.219 318.016 220.175L315.691 219.89C315.597 219.891 315.504 219.917 315.422 219.964C315.34 220.012 315.272 220.079 315.223 220.16L312.898 223.129C312.533 223.604 312.101 223.436 312.167 222.844L312.613 219.137C312.636 219.046 312.635 218.951 312.609 218.861C312.584 218.771 312.535 218.689 312.467 218.625L310.588 217.265C310.288 217.053 310.456 216.278 310.866 215.963L313.469 213.96C313.649 213.806 313.781 213.603 313.849 213.375L315.011 209.558C315.194 208.959 315.728 208.652 315.911 209.039Z" fill="#295D72"/>
<path opacity="0.5" d="M315.911 209.039L317.073 211.511C317.087 211.546 317.109 211.578 317.136 211.605C317.163 211.632 317.196 211.653 317.231 211.667C317.267 211.68 317.305 211.687 317.343 211.685C317.382 211.683 317.419 211.674 317.453 211.657L320.049 210.662C320.466 210.502 320.627 211.087 320.327 211.642L318.448 215.174C318.335 215.382 318.284 215.618 318.302 215.854L318.748 219.049C318.821 219.553 318.389 220.219 318.016 220.175L315.691 219.89C315.597 219.891 315.504 219.917 315.422 219.964C315.34 220.012 315.272 220.079 315.223 220.16L312.898 223.129C312.533 223.604 312.101 223.436 312.167 222.844L312.613 219.137C312.636 219.046 312.635 218.951 312.609 218.861C312.584 218.771 312.535 218.689 312.467 218.625L310.588 217.265C310.288 217.053 310.456 216.278 310.866 215.963L313.469 213.96C313.649 213.806 313.781 213.603 313.849 213.375L315.011 209.558C315.194 208.959 315.728 208.652 315.911 209.039Z" fill="white"/>
<path d="M333.378 204.119C333.605 203.695 333.568 203.263 333.378 203.139L331.514 202.064C331.473 202.046 331.43 202.036 331.386 202.036C331.341 202.036 331.298 202.046 331.258 202.064L329.547 202.722L328.984 201.523C328.954 201.465 328.911 201.415 328.859 201.377C328.618 201.252 327.039 200.331 326.995 200.302C326.754 200.17 326.366 200.463 326.213 200.967L325.05 204.777C324.987 205.006 324.854 205.21 324.67 205.362L322.038 207.358C321.621 207.679 321.46 208.447 321.76 208.666L323.639 210.026C323.705 210.09 323.754 210.171 323.78 210.259C323.805 210.348 323.807 210.441 323.785 210.531L323.354 214.216C323.354 214.486 323.398 214.669 323.522 214.742L325.386 215.824C325.533 215.905 325.752 215.824 325.949 215.583L328.275 212.615C328.323 212.533 328.391 212.466 328.473 212.419C328.555 212.371 328.648 212.346 328.742 212.344L331.068 212.629C331.433 212.673 331.864 212.008 331.799 211.503L331.353 208.308C331.332 208.072 331.383 207.835 331.499 207.628L333.378 204.119Z" fill="#295D72"/>
<path opacity="0.15" d="M333.356 203.139C333.316 203.119 333.273 203.109 333.228 203.109C333.184 203.109 333.14 203.119 333.1 203.139L330.497 204.133C330.463 204.15 330.426 204.159 330.389 204.161C330.351 204.163 330.314 204.156 330.278 204.143C330.243 204.129 330.211 204.108 330.185 204.081C330.158 204.054 330.138 204.022 330.124 203.987L329.525 202.715L331.236 202.057C331.275 202.036 331.319 202.026 331.364 202.026C331.408 202.026 331.452 202.036 331.492 202.057L333.356 203.139Z" fill="white"/>
<path opacity="0.15" d="M326.9 205.844C326.831 206.075 326.697 206.281 326.512 206.436L323.917 208.44C323.799 208.535 323.705 208.655 323.639 208.791L321.775 207.709C321.841 207.573 321.936 207.454 322.052 207.358L324.648 205.354C324.832 205.203 324.965 204.999 325.028 204.769L326.9 205.844Z" fill="white"/>
<path opacity="0.1" d="M328.852 201.377C328.618 201.231 328.216 201.53 328.062 202.035L326.9 205.844L325.028 204.769L326.191 200.96C326.344 200.463 326.739 200.163 326.973 200.295C327.024 200.295 328.596 201.245 328.837 201.369L328.852 201.377Z" fill="black"/>
<path opacity="0.25" d="M325.518 211.101L323.668 210.041L321.789 208.681C321.57 208.52 321.599 208.081 321.789 207.723L323.654 208.805C323.463 209.156 323.434 209.602 323.654 209.756L325.518 211.101Z" fill="black"/>
<path opacity="0.15" d="M325.218 215.32C325.218 215.598 325.262 215.781 325.401 215.846L323.5 214.764C323.376 214.691 323.303 214.516 323.332 214.238L323.778 210.531C323.796 210.445 323.793 210.355 323.77 210.27C323.748 210.185 323.705 210.107 323.646 210.041L325.496 211.101C325.554 211.167 325.596 211.246 325.617 211.331C325.639 211.416 325.64 211.505 325.62 211.591L325.218 215.32Z" fill="black"/>
<path d="M328.962 201.516L330.124 203.987C330.139 204.023 330.16 204.055 330.187 204.082C330.214 204.108 330.247 204.129 330.283 204.143C330.318 204.157 330.356 204.163 330.395 204.161C330.433 204.16 330.47 204.15 330.505 204.133L333.1 203.139C333.51 202.978 333.678 203.563 333.378 204.119L331.499 207.635C331.383 207.842 331.332 208.079 331.353 208.315L331.799 211.511C331.864 212.015 331.433 212.68 331.068 212.637L328.742 212.351C328.648 212.353 328.555 212.379 328.473 212.426C328.391 212.473 328.323 212.541 328.275 212.622L325.949 215.59C325.584 216.066 325.152 215.89 325.218 215.305L325.664 211.598C325.685 211.508 325.683 211.413 325.657 211.324C325.632 211.234 325.584 211.152 325.518 211.087L323.639 209.727C323.339 209.515 323.507 208.74 323.917 208.425L326.52 206.422C326.696 206.265 326.825 206.063 326.893 205.837L328.055 202.02C328.245 201.435 328.779 201.121 328.962 201.516Z" fill="#295D72"/>
<path opacity="0.5" d="M328.962 201.516L330.124 203.987C330.139 204.023 330.16 204.055 330.187 204.082C330.214 204.108 330.247 204.129 330.283 204.143C330.318 204.157 330.356 204.163 330.395 204.161C330.433 204.16 330.47 204.15 330.505 204.133L333.1 203.139C333.51 202.978 333.678 203.563 333.378 204.119L331.499 207.635C331.383 207.842 331.332 208.079 331.353 208.315L331.799 211.511C331.864 212.015 331.433 212.68 331.068 212.637L328.742 212.351C328.648 212.353 328.555 212.379 328.473 212.426C328.391 212.473 328.323 212.541 328.275 212.622L325.949 215.59C325.584 216.066 325.152 215.89 325.218 215.305L325.664 211.598C325.685 211.508 325.683 211.413 325.657 211.324C325.632 211.234 325.584 211.152 325.518 211.087L323.639 209.727C323.339 209.515 323.507 208.74 323.917 208.425L326.52 206.422C326.696 206.265 326.825 206.063 326.893 205.837L328.055 202.02C328.245 201.435 328.779 201.121 328.962 201.516Z" fill="white"/>
<path d="M338.357 23.3841L332.508 25.892L331.258 32.1288C331.222 32.3001 331.139 32.4581 331.019 32.5851C330.898 32.7121 330.745 32.8031 330.576 32.8479C330.406 32.8926 330.228 32.8894 330.061 32.8386C329.893 32.7878 329.743 32.6914 329.627 32.5601L325.438 27.7711L319.113 28.5022C318.932 28.5297 318.747 28.5033 318.58 28.4265C318.414 28.3497 318.274 28.2257 318.178 28.0701C318.081 27.9144 318.032 27.7338 318.037 27.5506C318.043 27.3675 318.101 27.1899 318.206 27.0399L321.46 21.5782L318.813 15.7947C318.749 15.6394 318.728 15.4697 318.751 15.3032C318.775 15.1368 318.844 14.9799 318.949 14.849C319.055 14.7181 319.193 14.618 319.351 14.5593C319.508 14.5005 319.679 14.4853 319.844 14.5152L326.044 15.9263L330.724 11.6198C330.852 11.4997 331.012 11.4182 331.185 11.3846C331.357 11.3511 331.536 11.3669 331.7 11.4303C331.864 11.4936 332.007 11.602 332.113 11.7428C332.218 11.8837 332.281 12.0514 332.296 12.2267L332.873 18.5585L338.416 21.6732C338.579 21.7522 338.716 21.8769 338.809 22.0321C338.903 22.1874 338.95 22.3665 338.944 22.5477C338.937 22.729 338.879 22.9045 338.774 23.053C338.67 23.2015 338.525 23.3165 338.357 23.3841Z" fill="#E0E0E0"/>
<path d="M306.12 12.5484C306.069 12.6159 306.007 12.6751 305.938 12.7239C305.814 12.8132 305.667 12.866 305.515 12.8763C305.362 12.8866 305.21 12.8541 305.075 12.7824L301.821 11.0715L298.56 12.7824C298.425 12.8541 298.273 12.8866 298.121 12.8763C297.968 12.866 297.822 12.8132 297.698 12.7239C297.572 12.6351 297.475 12.512 297.418 12.3693C297.361 12.2266 297.346 12.0704 297.376 11.9196L297.997 8.26383L295.358 5.69748C295.248 5.59091 295.17 5.45541 295.134 5.30662C295.098 5.15784 295.104 5.00184 295.153 4.85665C295.199 4.71117 295.285 4.58169 295.402 4.4833C295.518 4.38491 295.66 4.32168 295.811 4.30097L299.467 3.77454L301.097 0.469709C301.165 0.333224 301.269 0.218355 301.398 0.138203C301.527 0.0580517 301.676 0.0158445 301.829 0.0163932C301.98 0.0175187 302.129 0.0604166 302.258 0.140382C302.387 0.220347 302.491 0.334289 302.56 0.469709L304.19 3.77454L307.846 4.30097C307.997 4.32306 308.139 4.38697 308.256 4.48547C308.372 4.58398 308.459 4.71316 308.506 4.85842C308.554 5.00368 308.559 5.15922 308.523 5.30749C308.486 5.45576 308.409 5.59084 308.299 5.69748L305.66 8.26383L306.289 11.9196C306.317 12.1431 306.256 12.3688 306.12 12.5484ZM295.716 4.9517L295.672 5.04675C295.654 5.10134 295.652 5.16002 295.666 5.21577C295.681 5.27152 295.711 5.32199 295.753 5.36114L298.575 8.1176L297.91 12.0074C297.901 12.0646 297.908 12.1232 297.93 12.1768C297.952 12.2303 297.989 12.2766 298.035 12.3107C298.082 12.3447 298.138 12.3652 298.196 12.3697C298.253 12.3742 298.311 12.3627 298.363 12.3364L301.858 10.5012L305.345 12.3364C305.395 12.3653 305.452 12.3805 305.51 12.3805C305.568 12.3805 305.624 12.3653 305.674 12.3364C305.723 12.3031 305.761 12.2562 305.783 12.2016C305.805 12.1469 305.811 12.087 305.799 12.0293L305.133 8.13954L307.956 5.38308C307.996 5.34294 308.025 5.29246 308.04 5.23706C308.054 5.18166 308.053 5.12345 308.036 5.06868C308.02 5.01308 307.987 4.96345 307.943 4.92582C307.899 4.88818 307.845 4.86416 307.788 4.85665L303.876 4.28634L302.092 0.718302C302.068 0.665178 302.028 0.620273 301.979 0.589101C301.93 0.557929 301.872 0.541846 301.814 0.542825C301.761 0.548643 301.711 0.567794 301.667 0.598485C301.624 0.629177 301.589 0.670403 301.565 0.718302L299.825 4.2571L295.914 4.8274C295.835 4.84333 295.765 4.88754 295.716 4.9517Z" fill="#E0E0E0"/>
<path d="M265.402 61.4043C259.897 58.2164 252.329 58.6478 243.965 63.4735C227.148 73.1978 213.483 97.0116 213.483 116.672C213.483 126.565 216.949 133.489 222.527 136.728C223.822 137.459 228.881 140.384 228.881 140.384C228.644 142.609 227.875 144.744 226.64 146.61C225.404 148.475 223.738 150.016 221.782 151.103C221.46 151.285 221.657 151.6 221.942 151.761L229.671 156.228C229.775 156.29 229.893 156.325 230.014 156.33C237.626 156.33 246.436 151.212 248.893 140.581C249.814 140.142 250.743 139.667 251.686 139.119C268.502 129.402 282.168 105.581 282.168 85.9273C282.168 76.0274 278.709 69.1107 273.131 65.8497L265.402 61.4043Z" fill="#37474F"/>
<path d="M251.686 67.9335C234.869 77.6506 221.204 101.472 221.204 121.125C221.204 134.469 227.485 142.453 236.785 143.184C236.434 147.425 235.198 152.192 229.473 155.563C229.02 155.833 229.612 156.338 229.992 156.338C237.604 156.338 246.414 151.22 248.871 140.589C249.792 140.15 250.721 139.675 251.664 139.126C268.481 129.409 282.146 105.588 282.146 85.9346C282.146 66.2811 268.517 58.2165 251.686 67.9335Z" fill="#455A64"/>
<path d="M229.495 155.563C229.217 155.738 229.342 155.994 229.576 156.169L221.942 151.782C221.657 151.607 221.46 151.307 221.782 151.117C223.742 150.029 225.411 148.483 226.647 146.612C227.883 144.741 228.649 142.6 228.881 140.369L229.722 140.866L230.497 141.32C232.434 142.384 234.58 143.013 236.785 143.162C236.441 147.425 235.198 152.192 229.495 155.563Z" fill="#263238"/>
<path d="M248.469 124.203C247.657 123.626 247.248 122.587 247.248 121.089C247.265 119.527 247.678 117.995 248.447 116.636C249.145 115.277 250.209 114.14 251.518 113.353C252.761 112.636 253.782 112.551 254.581 113.097C255.378 113.638 255.78 114.662 255.78 116.161C255.757 117.75 255.337 119.308 254.559 120.694C253.878 122.066 252.824 123.219 251.518 124.021C250.304 124.715 249.288 124.781 248.469 124.203ZM247.379 84.4576L255.649 79.6832L254.267 107.555L248.761 110.735L247.379 84.4576Z" fill="#FAFAFA"/>
<path opacity="0.2" d="M255.751 136.457C264.73 129.877 272.473 119.443 277.211 108.242C268.232 114.83 260.489 125.256 255.751 136.457Z" fill="black"/>
<path d="M313.161 174.551C310.047 174.587 307.729 172.408 306.274 169.667C315.604 158.195 321.913 142.914 321.913 129.548C321.913 119.641 318.44 112.68 312.847 109.463L305.133 105.018C299.628 101.837 292.068 102.276 283.711 107.094C266.894 116.819 253.229 140.632 253.229 160.293C253.229 170.186 256.687 177.11 262.266 180.363C263.567 181.095 268.693 184.063 269.957 184.801C275.47 188.011 283.053 187.587 291.432 182.747C293.675 181.441 295.806 179.949 297.8 178.287C303.459 182.769 310.361 177.885 313.096 175.545C313.461 175.238 313.505 174.551 313.161 174.551Z" fill="#E0E0E0"/>
<path d="M277.942 186.432C267.749 186.432 261.425 178.133 261.425 164.782C261.425 145.304 274.995 121.644 291.666 112C296.33 109.31 300.79 107.942 304.921 107.942C315.106 107.942 321.438 116.234 321.438 129.592C321.438 142.365 315.487 157.624 305.908 169.403L305.711 169.652L305.857 169.93C307.575 173.169 310.069 174.982 312.891 175.048C312.871 175.109 312.836 175.165 312.789 175.209C310.844 176.876 306.983 179.661 302.984 179.661C301.203 179.669 299.474 179.06 298.092 177.936L297.793 177.702L297.493 177.943C295.517 179.577 293.409 181.045 291.19 182.33C286.533 185.028 282.073 186.432 277.942 186.432Z" fill="#FAFAFA"/>
<path d="M304.921 107.467V108.418C314.814 108.418 320.963 116.533 320.963 129.585C320.963 142.263 315.055 157.405 305.543 169.104L305.141 169.593L305.44 170.149C307.02 173.132 309.243 174.967 311.794 175.428C309.769 177.044 306.413 179.201 302.984 179.201C301.309 179.209 299.684 178.635 298.385 177.578L297.785 177.102L297.193 177.592C295.238 179.224 293.152 180.691 290.956 181.979C286.365 184.626 281.985 185.971 277.942 185.971C268.049 185.971 261.9 177.856 261.9 164.768C261.9 145.443 275.361 121.951 291.878 112.395C296.469 109.748 300.849 108.403 304.892 108.403V107.467M304.892 107.467C300.827 107.467 296.25 108.791 291.402 111.591C274.586 121.308 260.92 145.122 260.92 164.782C260.92 178.784 267.844 186.907 277.912 186.907C281.978 186.907 286.555 185.584 291.402 182.784C293.646 181.478 295.776 179.986 297.771 178.323C299.233 179.518 301.066 180.164 302.955 180.151C307.137 180.151 311.136 177.227 313.066 175.582C313.432 175.275 313.476 174.587 313.132 174.587H313.059C309.988 174.587 307.692 172.43 306.245 169.703C315.574 158.231 321.884 142.95 321.884 129.585C321.884 115.583 314.96 107.467 304.892 107.467Z" fill="#295D72"/>
<path d="M289.867 150.496C290.754 148.368 291.772 146.297 292.916 144.295C293.704 142.922 294.421 141.509 295.065 140.062C295.509 139.07 295.745 137.998 295.76 136.911C295.76 135.448 295.321 134.549 294.444 134.198C293.567 133.847 292.411 134.103 290.956 134.929C289.518 135.774 288.258 136.891 287.249 138.22C286.123 139.691 285.202 141.31 284.515 143.031L279.141 141.927C280.343 138.751 282.046 135.789 284.186 133.153C286.279 130.565 288.832 128.387 291.717 126.726C295.129 124.776 297.861 124.167 299.913 124.898C301.965 125.629 302.994 127.72 302.998 131.171C303.008 132.729 302.806 134.281 302.399 135.785C302.038 137.147 301.549 138.471 300.937 139.74C300.359 140.925 299.606 142.336 298.692 143.974C297.806 145.485 297.005 147.045 296.294 148.646C295.803 149.802 295.555 151.046 295.563 152.302L288.858 156.177C288.831 154.236 289.173 152.308 289.867 150.496ZM289.136 169.308C288.324 168.731 287.915 167.692 287.915 166.186C287.932 164.625 288.345 163.093 289.114 161.734C289.812 160.377 290.872 159.241 292.177 158.451C293.428 157.719 294.444 157.646 295.248 158.195C296.052 158.743 296.447 159.767 296.447 161.266C296.423 162.852 296.003 164.408 295.226 165.791C294.545 167.166 293.487 168.32 292.177 169.118C291 169.82 289.991 169.879 289.172 169.308H289.136Z" fill="#455A64"/>
<path d="M135.432 117.191L101.799 136.669L115.157 159.379C115.415 159.992 115.863 160.505 116.437 160.842C118.031 161.741 127.47 167.21 127.989 167.51C128.394 167.743 128.846 167.882 129.312 167.916C129.779 167.95 130.246 167.877 130.681 167.704C131.115 167.531 131.504 167.262 131.819 166.916C132.134 166.571 132.367 166.159 132.5 165.711L147.006 123.904L135.432 117.191Z" fill="#295D72"/>
<path opacity="0.2" d="M135.432 117.191L101.799 136.669L115.157 159.379C115.415 159.992 115.863 160.505 116.437 160.842C118.031 161.741 127.47 167.21 127.989 167.51C128.394 167.743 128.846 167.882 129.312 167.916C129.779 167.95 130.246 167.877 130.681 167.704C131.115 167.531 131.504 167.262 131.819 166.916C132.134 166.571 132.367 166.159 132.5 165.711L147.006 123.904L135.432 117.191Z" fill="black"/>
<path d="M113.373 143.352L126.731 166.062C126.987 166.639 127.413 167.123 127.953 167.45C128.492 167.776 129.119 167.929 129.749 167.888C130.378 167.846 130.979 167.612 131.472 167.218C131.964 166.823 132.323 166.287 132.5 165.682L147.006 123.874L113.373 143.352Z" fill="#295D72"/>
<path d="M172.955 0.718325L46.1213 73.929C45.271 74.4802 44.5629 75.2244 44.0547 76.1011C43.5465 76.9778 43.2525 77.9622 43.1967 78.974V166.998C43.2506 168.006 43.544 168.987 44.0526 169.859C44.5612 170.732 45.2704 171.47 46.1213 172.014L56.5549 177.863C57.4623 178.319 58.4639 178.557 59.4796 178.557C60.4953 178.557 61.4969 178.319 62.4042 177.863L189.245 104.608C190.094 104.056 190.801 103.311 191.31 102.435C191.818 101.558 192.112 100.575 192.17 99.5633V11.5394C192.115 10.5313 191.822 9.5506 191.313 8.67842C190.805 7.80625 190.096 7.06766 189.245 6.5237L178.819 0.674456C177.906 0.223486 176.9 -0.00743538 175.882 0.000182538C174.863 0.00780045 173.861 0.253746 172.955 0.718325Z" fill="#295D72"/>
<path opacity="0.3" d="M192.119 11.0057C191.885 9.54337 190.693 9.01694 189.238 9.85046L62.4115 83.083C61.5473 83.6228 60.8391 84.3789 60.357 85.2765L44.118 76.0274C44.6053 75.1833 45.2935 74.4726 46.1213 73.9582L172.962 0.718316C173.87 0.263493 174.872 0.0266724 175.887 0.0266724C176.902 0.0266724 177.904 0.263493 178.812 0.718316L189.238 6.56756C190.006 7.06049 190.659 7.71119 191.156 8.47642C191.653 9.24164 191.981 10.1038 192.119 11.0057Z" fill="white"/>
<path d="M59.4942 176.488V88.4571C59.5499 87.4462 59.844 86.4629 60.3522 85.5874C60.8605 84.7119 61.5687 83.969 62.4188 83.4194L189.245 10.2233C190.846 9.29478 192.17 10.0479 192.17 11.905V99.8996C192.112 100.911 191.818 101.895 191.31 102.771C190.801 103.648 190.094 104.392 189.245 104.945L62.4042 178.17C60.7957 179.12 59.4942 178.345 59.4942 176.488Z" fill="#295D72"/>
<path opacity="0.2" d="M62.4042 177.834C61.4935 178.279 60.4932 178.51 59.4796 178.51C58.4659 178.51 57.4657 178.279 56.555 177.834L46.1287 171.984C45.2784 171.444 44.5695 170.708 44.0608 169.838C43.5521 168.968 43.2584 167.989 43.204 166.983V78.952C43.256 77.9134 43.5759 76.9058 44.1326 76.0274L60.357 85.2619C59.8222 86.122 59.5245 87.1084 59.4942 88.1207V176.145C59.4942 177.848 60.6933 178.828 62.4042 177.834Z" fill="black"/>
<path d="M95.0795 106.005L93.8146 105.274C93.3304 104.997 92.7822 104.851 92.2244 104.851C91.6665 104.851 91.1183 104.997 90.6341 105.274L82.9058 109.734V99.1758L97.2145 90.9211C97.8844 90.5258 98.4392 89.9623 98.824 89.2864C99.2087 88.6104 99.4101 87.8456 99.408 87.0679V81.1455C99.4101 80.3678 99.2087 79.603 98.824 78.927C98.4392 78.2511 97.8844 77.6876 97.2145 77.2923C96.5378 76.9008 95.7699 76.6946 94.9881 76.6946C94.2064 76.6946 93.4384 76.9008 92.7618 77.2923L72.9182 88.7495C71.7434 89.4269 70.768 90.402 70.0903 91.5766C69.4125 92.7511 69.0563 94.0836 69.0577 95.4396V150.415C69.0543 151.194 69.255 151.961 69.6399 152.638C70.0247 153.315 70.5802 153.88 71.2512 154.276C71.9283 154.666 72.6961 154.871 73.4775 154.871C74.259 154.871 75.0268 154.666 75.7039 154.276L80.6538 151.424C81.3247 151.028 81.8803 150.464 82.2651 149.786C82.6499 149.109 82.8507 148.343 82.8473 147.564V125.995L95.0284 118.961C95.511 118.681 95.9115 118.278 96.19 117.795C96.4684 117.311 96.615 116.763 96.615 116.204V108.776C96.625 108.22 96.4883 107.671 96.2188 107.184C95.9493 106.698 95.5563 106.291 95.0795 106.005Z" fill="#E0E0E0"/>
<path opacity="0.1" d="M76.1572 154.013L75.7332 154.261C75.056 154.65 74.2885 154.855 73.5075 154.854C72.7264 154.854 71.9592 154.648 71.2826 154.258C70.606 153.868 70.0437 153.307 69.6519 152.631C69.2602 151.956 69.0528 151.189 69.0504 150.408V95.4323C69.0523 94.1556 69.3714 92.8994 69.979 91.7765L74.4317 94.3429C73.8215 95.4647 73.5023 96.7216 73.5031 97.9987V152.462C73.5044 152.773 73.5867 153.078 73.7418 153.346C73.8968 153.615 74.1194 153.839 74.3874 153.996C74.6555 154.152 74.9597 154.236 75.2701 154.239C75.5805 154.242 75.8862 154.164 76.1572 154.013Z" fill="black"/>
<path d="M82.9058 99.1758V114.881L95.0649 107.869C95.2277 107.774 95.4129 107.723 95.6017 107.722C95.7905 107.721 95.9762 107.771 96.1397 107.865C96.3032 107.959 96.4388 108.095 96.5326 108.259C96.6263 108.423 96.6749 108.609 96.6735 108.798V116.241C96.6731 116.796 96.5271 117.342 96.2499 117.823C95.9728 118.304 95.5743 118.704 95.0942 118.983L82.9058 126.017V147.578C82.9088 148.355 82.7078 149.119 82.3229 149.794C81.938 150.469 81.3826 151.031 80.7123 151.424L76.2084 154.027C75.9379 154.184 75.6308 154.267 75.318 154.267C75.0053 154.268 74.698 154.185 74.4272 154.029C74.1564 153.872 73.9318 153.647 73.7759 153.376C73.6201 153.105 73.5386 152.797 73.5397 152.484V97.9986C73.5398 96.6429 73.8966 95.311 74.5742 94.1367C75.2518 92.9624 76.2264 91.9871 77.4002 91.3086L97.0537 79.961C97.2984 79.8197 97.5762 79.7454 97.8588 79.7455C98.1415 79.7457 98.4191 79.8203 98.6637 79.9619C98.9083 80.1035 99.1114 80.307 99.2523 80.552C99.3932 80.7971 99.4671 81.0749 99.4665 81.3575V87.0825C99.4684 87.8572 99.2668 88.6189 98.8819 89.2913C98.4969 89.9637 97.9421 90.5232 97.273 90.9137L82.9058 99.1758Z" fill="#FAFAFA"/>
<path d="M125.357 65.9667C125.131 65.2034 124.736 64.5011 124.2 63.9127C123.664 63.3242 123.002 62.8649 122.263 62.5694C121.524 62.2738 120.728 62.1496 119.934 62.2061C119.14 62.2627 118.369 62.4985 117.68 62.8959L112.759 65.74C112.125 66.1053 111.574 66.5991 111.143 67.1896C110.711 67.7801 110.407 68.4544 110.251 69.1692L95.5767 135.982C95.4618 136.545 95.5262 137.13 95.761 137.655C95.9957 138.179 96.389 138.617 96.8855 138.907L98.2308 139.682C98.6476 139.923 99.1204 140.049 99.6017 140.049C100.083 140.049 100.556 139.923 100.973 139.682L106.902 136.26C107.728 135.755 108.4 135.034 108.847 134.176C109.347 133.31 109.715 132.373 109.937 131.398L112.32 119.217L124.311 112.293L125.554 117.243C125.73 117.888 126.132 118.449 126.687 118.822C127.185 119.114 130.643 121.096 131.14 121.396C131.461 121.533 131.814 121.581 132.16 121.535C132.506 121.489 132.833 121.35 133.107 121.132L140.345 116.95L125.357 65.9667ZM115.61 102.4L118.177 89.1882L118.33 88.4571L121.05 99.2562L115.61 102.4Z" fill="#E0E0E0"/>
<path opacity="0.1" d="M131.082 121.359C130.431 120.972 127.17 119.107 126.695 118.822C126.14 118.449 125.737 117.888 125.561 117.243L124.318 112.293L127.638 110.377L130.014 119.809C130.19 120.429 130.565 120.974 131.082 121.359Z" fill="black"/>
<path opacity="0.1" d="M125.503 101.823L121.05 99.2489L118.33 88.4571C118.33 88.4571 118.33 88.4571 118.33 88.4132C118.564 87.3603 118.798 86.1612 119.061 84.8305C119.376 83.1708 119.668 81.4014 119.946 79.5077C120.263 81.0285 120.577 82.4299 120.889 83.7119C121.204 84.9914 121.496 86.0881 121.774 87.0094L125.503 101.823Z" fill="black"/>
<path opacity="0.1" d="M100.11 138.176C100.07 138.351 100.077 138.534 100.129 138.706C100.181 138.878 100.277 139.034 100.408 139.158C100.538 139.282 100.699 139.369 100.873 139.413C101.048 139.456 101.231 139.453 101.404 139.404V139.463L100.987 139.696C100.57 139.937 100.098 140.064 99.6163 140.064C99.1351 140.064 98.6622 139.937 98.2454 139.696L96.8855 138.907C96.389 138.617 95.9957 138.18 95.761 137.655C95.5262 137.13 95.4618 136.545 95.5767 135.982L110.244 69.1984C110.378 68.5806 110.626 67.9931 110.975 67.4656L115.428 70.0392C115.075 70.5618 114.826 71.1478 114.696 71.7648L100.11 138.176Z" fill="black"/>
<path d="M140.353 116.972L133.107 121.154C132.295 121.622 131.645 121.71 131.147 121.418C130.593 121.043 130.191 120.483 130.014 119.838L127.638 110.392L112.284 119.231L109.907 131.412C109.678 132.389 109.309 133.327 108.811 134.198C108.366 135.056 107.693 135.774 106.866 136.275L101.623 139.309C101.447 139.409 101.246 139.456 101.043 139.445C100.841 139.433 100.646 139.363 100.482 139.243C100.318 139.124 100.193 138.959 100.12 138.77C100.048 138.58 100.031 138.374 100.073 138.176L114.66 71.7428C114.817 71.0294 115.121 70.3565 115.553 69.7673C115.985 69.1781 116.535 68.6855 117.168 68.321L121.898 65.5865C122.235 65.3926 122.611 65.2776 122.998 65.2501C123.385 65.2225 123.773 65.2832 124.134 65.4275C124.494 65.5718 124.817 65.7959 125.078 66.0831C125.34 66.3703 125.532 66.713 125.642 67.0854L140.353 116.972ZM125.503 101.837L121.774 86.9947C121.496 86.0808 121.204 84.9768 120.889 83.6972C120.575 82.4177 120.261 81.0139 119.946 79.4931C119.676 81.3868 119.376 83.1489 119.069 84.8159C118.762 86.4829 118.455 87.916 118.177 89.159L114.477 108.169L125.503 101.837Z" fill="#FAFAFA"/>
<path d="M175.01 91.3817C176.286 89.1866 177.408 86.9046 178.366 84.5527C179.355 82.1281 180.185 79.6418 180.851 77.1095C181.524 74.5507 182.037 71.9525 182.387 69.33C182.746 66.6813 182.926 64.0114 182.928 61.3385C183.006 57.4086 182.503 53.4888 181.436 49.7058C180.675 46.8629 179.218 44.2545 177.196 42.1164C176.559 41.5063 175.846 40.9804 175.075 40.5517L170.688 38.0073C169.299 37.2022 167.737 36.7432 166.133 36.6693C163.56 36.523 160.708 37.3541 157.579 39.1625C154.304 41.0857 151.401 43.5821 149.01 46.5326C146.372 49.7341 144.151 53.2571 142.4 57.0173C138.631 65.1272 136.666 73.9576 136.638 82.9003C136.563 86.8358 137.07 90.7608 138.145 94.5476C138.903 97.3989 140.367 100.014 142.4 102.152C143.034 102.78 143.75 103.321 144.528 103.76C145.259 104.17 148.147 105.851 148.863 106.268C150.27 107.082 151.853 107.541 153.477 107.606C156.051 107.733 158.907 106.892 162.046 105.084C163.382 104.313 164.651 103.432 165.841 102.451L167.654 104.535C167.901 104.789 168.182 105.008 168.488 105.186C168.999 105.486 172.641 107.577 172.918 107.745C173.407 108.045 173.977 108.183 174.549 108.14C175.608 108.013 176.625 107.651 177.525 107.08L185.209 102.649L175.01 91.3817ZM168.151 73.0297C167.686 75.6092 166.938 78.1298 165.921 80.5459C165.03 82.6871 163.836 84.689 162.375 86.4902C161.041 88.1341 159.421 89.5237 157.593 90.592C156.254 91.4597 154.712 91.9637 153.119 92.0543C152.317 90.7557 151.746 89.3285 151.43 87.8356C150.867 85.2521 150.607 82.6119 150.655 79.9683C150.641 77.0406 150.9 74.1179 151.43 71.2383C151.884 68.6602 152.619 66.1397 153.623 63.722C154.523 61.5715 155.724 59.5602 157.191 57.7485C158.534 56.0827 160.17 54.6754 162.017 53.5955C163.332 52.7544 164.844 52.2706 166.404 52.1917C167.214 53.5016 167.793 54.941 168.115 56.447C168.688 59.0343 168.961 61.6791 168.926 64.3289C168.935 67.2565 168.676 70.1787 168.151 73.0589V73.0297Z" fill="#E0E0E0"/>
<path opacity="0.1" d="M148.681 106.188C147.752 105.654 145.2 104.17 144.528 103.789C143.75 103.351 143.034 102.81 142.4 102.181C140.367 100.043 138.903 97.4282 138.145 94.5769C137.07 90.7901 136.563 86.865 136.638 82.9295C136.638 78.4272 137.144 73.939 138.145 69.5494C139.037 65.5517 140.33 61.6544 142.005 57.9167L146.458 60.4904C142.941 68.3718 141.113 76.9021 141.091 85.5325C141.015 89.4656 141.522 93.3883 142.597 97.1725C143.355 100.026 144.818 102.644 146.853 104.784C147.409 105.317 148.022 105.788 148.681 106.188Z" fill="black"/>
<path opacity="0.1" d="M170.374 54.0927C169.944 53.5536 169.407 53.1096 168.796 52.7887C168.186 52.4678 167.516 52.277 166.828 52.2283C166.704 52.2283 166.572 52.2283 166.448 52.2283C167.254 53.5366 167.83 54.9734 168.151 56.4763C168.71 59.0554 168.97 61.6903 168.926 64.3289C168.938 67.2711 168.678 70.2081 168.151 73.1028C167.686 75.6824 166.938 78.2029 165.921 80.6191C165.03 82.7602 163.836 84.7621 162.375 86.5634C161.041 88.2072 159.421 89.5968 157.593 90.6652C156.254 91.5328 154.712 92.0368 153.119 92.1275C153.278 92.3842 153.457 92.6286 153.652 92.8586C154.081 93.4018 154.622 93.8468 155.237 94.1633C155.853 94.4799 156.529 94.6608 157.22 94.6938C158.937 94.6852 160.614 94.1771 162.046 93.2315C163.874 92.1631 165.494 90.7736 166.828 89.1297C168.286 87.3262 169.479 85.3248 170.374 83.1854C171.391 80.7671 172.139 78.244 172.604 75.6618C173.131 72.7672 173.391 69.8302 173.379 66.888C173.421 64.2567 173.161 61.6292 172.604 59.0573C172.256 57.2519 171.492 55.5523 170.374 54.0927Z" fill="black"/>
<path opacity="0.1" d="M167.106 101.384C166.689 101.764 166.272 102.115 165.841 102.481L167.654 104.564C167.901 104.818 168.182 105.037 168.488 105.215C168.985 105.508 172.414 107.474 172.875 107.752C172.591 107.578 172.331 107.37 172.1 107.131L167.106 101.384Z" fill="black"/>
<path d="M185.209 102.678L177.525 107.116C176.625 107.681 175.611 108.041 174.556 108.169C174.096 108.192 173.637 108.11 173.213 107.93C172.788 107.751 172.41 107.477 172.107 107.131L167.106 101.384C165.56 102.807 163.863 104.057 162.046 105.113C158.907 106.921 156.051 107.762 153.477 107.635C150.985 107.544 148.619 106.515 146.853 104.755C144.82 102.613 143.357 99.996 142.597 97.1432C141.529 93.3677 141.021 89.4556 141.091 85.5324C141.119 76.5898 143.084 67.7594 146.853 59.6495C148.607 55.8808 150.833 52.3503 153.477 49.1428C155.87 46.194 158.772 43.6979 162.046 41.7727C165.175 39.9595 168.027 39.1284 170.601 39.2795C173.082 39.398 175.43 40.4413 177.181 42.2041C179.207 44.3421 180.665 46.9539 181.422 49.8008C182.495 53.5704 183.003 57.4783 182.928 61.397C182.929 64.0697 182.751 66.7396 182.394 69.3885C182.037 72.0229 181.519 74.6331 180.844 77.2046C180.175 79.7346 179.342 82.2185 178.351 84.6404C177.396 86.9937 176.275 89.2758 174.995 91.4694L185.209 102.678ZM150.655 80.0122C150.607 82.6582 150.868 85.3007 151.43 87.8868C151.774 89.6823 152.524 91.3754 153.623 92.8367C154.055 93.3768 154.596 93.8194 155.211 94.1357C155.826 94.452 156.501 94.6347 157.191 94.6719C158.908 94.6624 160.584 94.1544 162.017 93.2096C163.845 92.1412 165.465 90.7516 166.799 89.1078C168.259 87.3046 169.455 85.3032 170.352 83.1635C171.357 80.7437 172.093 78.2206 172.546 75.6399C173.077 72.7458 173.336 69.8084 173.321 66.866C173.367 64.2346 173.106 61.6067 172.546 59.0353C172.203 57.2392 171.452 55.5458 170.352 54.0854C169.921 53.5461 169.382 53.102 168.771 52.7811C168.159 52.4603 167.488 52.2695 166.799 52.221C165.101 52.207 163.437 52.6955 162.017 53.6248C160.168 54.6996 158.532 56.1048 157.191 57.7704C155.727 59.5839 154.526 61.5949 153.623 63.744C152.623 66.1627 151.887 68.6829 151.43 71.2603C150.901 74.1375 150.642 77.0576 150.655 79.983V80.0122Z" fill="#FAFAFA"/>
</svg>
