<svg width="1000" height="1046" viewBox="0 0 1000 1046" fill="none" xmlns="http://www.w3.org/2000/svg">
<path d="M1000 954.7H0V955.2H1000V954.7Z" fill="#E0E0E0"/>
<path d="M758.66 973.14H689.86V973.64H758.66V973.14Z" fill="#E0E0E0"/>
<path d="M839.6 971.72H800.88V972.22H839.6V971.72Z" fill="#E0E0E0"/>
<path d="M494.68 972.9H443.32V973.4H494.68V972.9Z" fill="#E0E0E0"/>
<path d="M531.78 980H496.7V980.5H531.78V980Z" fill="#E0E0E0"/>
<path d="M289.34 967.84H183.36V968.34H289.34V967.84Z" fill="#E0E0E0"/>
<path d="M474 865.5H87.82C84.7947 865.495 81.8951 864.289 79.7578 862.148C77.6204 860.007 76.42 857.105 76.42 854.08V311.22C76.4463 308.212 77.6584 305.336 79.7929 303.216C81.9274 301.097 84.8119 299.905 87.82 299.9H474C477.029 299.9 479.933 301.103 482.075 303.245C484.217 305.387 485.42 308.291 485.42 311.32V854.08C485.42 857.109 484.217 860.014 482.075 862.155C479.933 864.297 477.029 865.5 474 865.5ZM87.82 300.3C84.9273 300.305 82.1549 301.458 80.1113 303.505C78.0678 305.553 76.92 308.327 76.92 311.22V854.08C76.92 856.973 78.0678 859.747 80.1113 861.795C82.1549 863.842 84.9273 864.995 87.82 865H474C476.895 864.995 479.669 863.843 481.716 861.796C483.763 859.749 484.915 856.975 484.92 854.08V311.22C484.915 308.325 483.763 305.551 481.716 303.504C479.669 301.458 476.895 300.305 474 300.3H87.82Z" fill="#E0E0E0"/>
<path d="M906.62 865.5H520.42C517.393 865.495 514.491 864.29 512.351 862.149C510.21 860.009 509.005 857.107 509 854.08V311.22C509.032 308.21 510.248 305.334 512.386 303.215C514.523 301.096 517.41 299.905 520.42 299.9H906.62C909.625 299.91 912.504 301.105 914.634 303.223C916.764 305.342 917.974 308.216 918 311.22V854.08C918 857.102 916.802 860.001 914.669 862.141C912.536 864.282 909.642 865.489 906.62 865.5ZM520.42 300.3C517.525 300.305 514.751 301.458 512.704 303.504C510.658 305.551 509.505 308.325 509.5 311.22V854.08C509.505 856.975 510.658 859.749 512.704 861.796C514.751 863.843 517.525 864.995 520.42 865H906.62C909.515 864.995 912.289 863.843 914.336 861.796C916.383 859.749 917.535 856.975 917.54 854.08V311.22C917.535 308.325 916.383 305.551 914.336 303.504C912.289 301.458 909.515 300.305 906.62 300.3H520.42Z" fill="#E0E0E0"/>
<path d="M868.06 348.44H566.66V607.56H868.06V348.44Z" fill="#E0E0E0"/>
<path d="M874.76 348.44H573.36V607.56H874.76V348.44Z" fill="#F0F0F0"/>
<path d="M862.74 595.4V360.6H585.38V595.4H862.74Z" fill="#FAFAFA"/>
<path d="M774.1 595.4V360.6H755.98V595.4H774.1Z" fill="#E0E0E0"/>
<path d="M678.78 595.4V360.6H660.66V595.4H678.78Z" fill="#E0E0E0"/>
<path d="M780.48 603.1V351.54H762.36V603.1H780.48Z" fill="#F0F0F0"/>
<path d="M685.14 603.12V351.56H667.02V603.12H685.14Z" fill="#F0F0F0"/>
<path d="M862.74 595.38V360.58H857.68V595.38H862.74Z" fill="#E0E0E0"/>
<path d="M354.68 553.08C354.68 553.08 318 489.9 368.9 439.52C368.9 439.52 382.18 448.18 381.98 459.82C381.78 471.46 367.74 474.4 370.76 484.12C373.78 493.84 387 503.34 378.32 511.38C369.64 519.42 379.72 526.54 379.14 536.38C378.56 546.22 354.68 553.08 354.68 553.08Z" fill="#E0E0E0"/>
<path d="M360.44 563.42C360.44 563.42 375.32 491.86 311.16 460.14C311.16 460.14 301.28 472.54 305.16 483.52C309.04 494.5 323.26 492.86 323.46 503.04C323.66 513.22 314.12 526.42 324.88 531.3C335.64 536.18 328.34 546.14 332 555.3C335.66 564.46 360.44 563.42 360.44 563.42Z" fill="#E6E6E6"/>
<path d="M327.78 545.24C327.78 545.24 328.42 607.02 353.12 607.02C377.82 607.02 378.44 545.24 378.44 545.24H327.78Z" fill="#F0F0F0"/>
<path d="M179.38 583.78C179.38 583.78 180.76 607.02 233.5 607.02C286.24 607.02 287.64 583.78 287.64 583.78H179.38Z" fill="#E6E6E6"/>
<path d="M735.4 723.9H707.56C704.092 723.9 701.28 726.712 701.28 730.18V776.22C701.28 779.688 704.092 782.5 707.56 782.5H735.4C738.868 782.5 741.68 779.688 741.68 776.22V730.18C741.68 726.712 738.868 723.9 735.4 723.9Z" fill="#F0F0F0"/>
<path d="M809.24 743.06H790.5C788.169 743.06 786.28 744.949 786.28 747.28V778.28C786.28 780.611 788.169 782.5 790.5 782.5H809.24C811.571 782.5 813.46 780.611 813.46 778.28V747.28C813.46 744.949 811.571 743.06 809.24 743.06Z" fill="#E6E6E6"/>
<path d="M812.04 739.24H787.7C786.916 739.24 786.28 739.876 786.28 740.66V742.26C786.28 743.044 786.916 743.68 787.7 743.68H812.04C812.824 743.68 813.46 743.044 813.46 742.26V740.66C813.46 739.876 812.824 739.24 812.04 739.24Z" fill="#F0F0F0"/>
<path d="M636.84 749.9C636.84 749.9 637.84 782.5 676.02 782.5C714.2 782.5 715.22 749.9 715.22 749.9H636.84Z" fill="#E6E6E6"/>
<path d="M541.88 706.84H599.66V695.44H541.88V706.84Z" fill="#E0E0E0"/>
<path d="M886.92 695.46H599.66V706.86H886.92V695.46Z" fill="#F0F0F0"/>
<path d="M541.88 793.9H599.66V782.5H541.88V793.9Z" fill="#E0E0E0"/>
<path d="M886.92 782.5H599.66V793.9H886.92V782.5Z" fill="#F0F0F0"/>
<path d="M562.7 706.84H552.04V954.68H562.7V706.84Z" fill="#E0E0E0"/>
<path d="M610.32 706.84H599.66V954.68H610.32V706.84Z" fill="#F0F0F0"/>
<path d="M849.96 706.84H839.3V954.68H849.96V706.84Z" fill="#E0E0E0"/>
<path d="M886.92 706.84H876.26V954.68H886.92V706.84Z" fill="#F0F0F0"/>
<path d="M179.38 621.52H124.74V939.7H179.38V621.52Z" fill="#E6E6E6"/>
<path d="M404.68 939.68H135.24V954.7H404.68V939.68Z" fill="#E6E6E6"/>
<path d="M179.38 939.68H415.16L415.16 621.5H179.38L179.38 939.68Z" fill="#F0F0F0"/>
<path d="M200.86 819.46H393.68V741.74H200.86V819.46Z" fill="#E6E6E6"/>
<path d="M200.86 911.34H393.68V833.62H200.86V911.34Z" fill="#E6E6E6"/>
<path d="M318.92 750.26H275.62C274.211 750.255 272.861 749.693 271.864 748.696C270.867 747.699 270.305 746.349 270.3 744.94C270.3 743.527 270.86 742.172 271.857 741.171C272.854 740.17 274.207 739.605 275.62 739.6H318.92C320.333 739.605 321.686 740.17 322.683 741.171C323.68 742.172 324.24 743.527 324.24 744.94C324.235 746.349 323.673 747.699 322.676 748.696C321.679 749.693 320.329 750.255 318.92 750.26Z" fill="#F0F0F0"/>
<path d="M200.86 727.56H393.68V649.84H200.86V727.56Z" fill="#E6E6E6"/>
<path d="M318.92 658.38H275.62C274.207 658.375 272.854 657.81 271.857 656.809C270.86 655.808 270.3 654.453 270.3 653.04C270.305 651.631 270.867 650.281 271.864 649.284C272.861 648.288 274.211 647.725 275.62 647.72H318.92C320.329 647.725 321.679 648.288 322.676 649.284C323.673 650.281 324.235 651.631 324.24 653.04C324.24 654.453 323.68 655.808 322.683 656.809C321.686 657.81 320.333 658.375 318.92 658.38Z" fill="#F0F0F0"/>
<path d="M318.92 842.14H275.62C274.211 842.135 272.861 841.572 271.864 840.576C270.867 839.579 270.305 838.229 270.3 836.82C270.3 835.407 270.86 834.052 271.857 833.051C272.854 832.05 274.207 831.485 275.62 831.48H318.92C320.333 831.485 321.686 832.05 322.683 833.051C323.68 834.052 324.24 835.407 324.24 836.82C324.235 838.229 323.673 839.579 322.676 840.576C321.679 841.572 320.329 842.135 318.92 842.14Z" fill="#F0F0F0"/>
<path d="M422.44 607.02H179.38V621.52H422.44V607.02Z" fill="#E6E6E6"/>
<path d="M117.1 621.5H179.38V607H117.1V621.5Z" fill="#E0E0E0"/>
<path d="M240.28 360.6H151.88V457.68H240.28V360.6Z" fill="#E6E6E6"/>
<path d="M249.86 360.6H158.54V457.68H249.86V360.6Z" fill="#F0F0F0"/>
<path d="M242.2 450.02V368.24H166.18V450.02H242.2Z" fill="#FAFAFA"/>
<path d="M223.78 430.2V388.06H184.62V430.2H223.78Z" fill="#F0F0F0"/>
<path d="M333.48 331.94H266.44V403.96H333.48V331.94Z" fill="#E6E6E6"/>
<path d="M340.6 331.94H272.86V403.96H340.6V331.94Z" fill="#F0F0F0"/>
<path d="M334.92 398.28V337.62H278.54V398.28H334.92Z" fill="#FAFAFA"/>
<path d="M306.72 352.6L291.3 379.32H322.14L306.72 352.6Z" fill="#F0F0F0"/>
<path d="M500 1045.02C714.165 1045.02 887.78 1034.88 887.78 1022.38C887.78 1009.88 714.165 999.74 500 999.74C285.835 999.74 112.22 1009.88 112.22 1022.38C112.22 1034.88 285.835 1045.02 500 1045.02Z" fill="#F5F5F5"/>
<path d="M839.6 481.54H643.4C633.05 481.54 624.66 489.93 624.66 500.28V553.64C624.66 563.99 633.05 572.38 643.4 572.38H839.6C849.95 572.38 858.34 563.99 858.34 553.64V500.28C858.34 489.93 849.95 481.54 839.6 481.54Z" fill="#ADD8E6"/>
<path d="M800.68 496.86H647.42C645.608 496.86 644.14 498.329 644.14 500.14V503.74C644.14 505.552 645.608 507.02 647.42 507.02H800.68C802.491 507.02 803.96 505.552 803.96 503.74V500.14C803.96 498.329 802.491 496.86 800.68 496.86Z" fill="#ADD8E6"/>
<path d="M752.14 521.34H647.42C645.608 521.34 644.14 522.809 644.14 524.62V528.22C644.14 530.032 645.608 531.5 647.42 531.5H752.14C753.951 531.5 755.42 530.032 755.42 528.22V524.62C755.42 522.809 753.951 521.34 752.14 521.34Z" fill="#ADD8E6"/>
<path d="M724.06 545.82H647.42C645.608 545.82 644.14 547.289 644.14 549.1V552.7C644.14 554.512 645.608 555.98 647.42 555.98H724.06C725.871 555.98 727.34 554.512 727.34 552.7V549.1C727.34 547.289 725.871 545.82 724.06 545.82Z" fill="#ADD8E6"/>
<path d="M819.04 545.82H742.4C740.589 545.82 739.12 547.289 739.12 549.1V552.7C739.12 554.512 740.589 555.98 742.4 555.98H819.04C820.851 555.98 822.32 554.512 822.32 552.7V549.1C822.32 547.289 820.851 545.82 819.04 545.82Z" fill="#ADD8E6"/>
<g opacity="0.5">
<path d="M800.68 496.86H647.42C645.608 496.86 644.14 498.329 644.14 500.14V503.74C644.14 505.552 645.608 507.02 647.42 507.02H800.68C802.491 507.02 803.96 505.552 803.96 503.74V500.14C803.96 498.329 802.491 496.86 800.68 496.86Z" fill="white"/>
<path d="M752.14 521.34H647.42C645.609 521.34 644.14 522.809 644.14 524.62V528.22C644.14 530.031 645.609 531.5 647.42 531.5H752.14C753.952 531.5 755.42 530.031 755.42 528.22V524.62C755.42 522.809 753.952 521.34 752.14 521.34Z" fill="white"/>
<path d="M724.06 545.82H647.42C645.609 545.82 644.14 547.288 644.14 549.1V552.7C644.14 554.511 645.609 555.98 647.42 555.98H724.06C725.872 555.98 727.34 554.511 727.34 552.7V549.1C727.34 547.288 725.872 545.82 724.06 545.82Z" fill="white"/>
<path d="M819.04 545.82H742.4C740.589 545.82 739.12 547.288 739.12 549.1V552.7C739.12 554.511 740.589 555.98 742.4 555.98H819.04C820.851 555.98 822.32 554.511 822.32 552.7V549.1C822.32 547.288 820.851 545.82 819.04 545.82Z" fill="white"/>
</g>
<path d="M682.44 460.36H459.74C444.563 460.36 432.26 472.663 432.26 487.84V566.08C432.26 581.257 444.563 593.56 459.74 593.56H682.44C697.617 593.56 709.92 581.257 709.92 566.08V487.84C709.92 472.663 697.617 460.36 682.44 460.36Z" fill="#ADD8E6"/>
<path d="M690.32 482.82H465.64C462.978 482.82 460.82 484.978 460.82 487.64V492.9C460.82 495.562 462.978 497.72 465.64 497.72H690.32C692.982 497.72 695.14 495.562 695.14 492.9V487.64C695.14 484.978 692.982 482.82 690.32 482.82Z" fill="#ADD8E6"/>
<path d="M619.14 518.72H465.64C462.978 518.72 460.82 520.878 460.82 523.54V528.8C460.82 531.462 462.978 533.62 465.64 533.62H619.14C621.802 533.62 623.96 531.462 623.96 528.8V523.54C623.96 520.878 621.802 518.72 619.14 518.72Z" fill="#ADD8E6"/>
<path d="M577.98 554.62H465.64C462.978 554.62 460.82 556.778 460.82 559.44V564.7C460.82 567.362 462.978 569.52 465.64 569.52H577.98C580.642 569.52 582.8 567.362 582.8 564.7V559.44C582.8 556.778 580.642 554.62 577.98 554.62Z" fill="#ADD8E6"/>
<path d="M698.5 554.62H604.9C602.238 554.62 600.08 556.778 600.08 559.44V564.7C600.08 567.362 602.238 569.52 604.9 569.52H698.5C701.162 569.52 703.32 567.362 703.32 564.7V559.44C703.32 556.778 701.162 554.62 698.5 554.62Z" fill="#ADD8E6"/>
<g opacity="0.5">
<path d="M690.32 482.82H465.64C462.978 482.82 460.82 484.978 460.82 487.64V492.9C460.82 495.562 462.978 497.72 465.64 497.72H690.32C692.982 497.72 695.14 495.562 695.14 492.9V487.64C695.14 484.978 692.982 482.82 690.32 482.82Z" fill="white"/>
<path d="M619.14 518.72H465.64C462.978 518.72 460.82 520.878 460.82 523.54V528.8C460.82 531.462 462.978 533.62 465.64 533.62H619.14C621.802 533.62 623.96 531.462 623.96 528.8V523.54C623.96 520.878 621.802 518.72 619.14 518.72Z" fill="white"/>
<path d="M577.98 554.62H465.64C462.978 554.62 460.82 556.778 460.82 559.44V564.7C460.82 567.362 462.978 569.52 465.64 569.52H577.98C580.642 569.52 582.8 567.362 582.8 564.7V559.44C582.8 556.778 580.642 554.62 577.98 554.62Z" fill="white"/>
<path d="M698.5 554.62H604.9C602.238 554.62 600.08 556.778 600.08 559.44V564.7C600.08 567.362 602.238 569.52 604.9 569.52H698.5C701.162 569.52 703.32 567.362 703.32 564.7V559.44C703.32 556.778 701.162 554.62 698.5 554.62Z" fill="white"/>
</g>
<path d="M543.98 617.7H436.72C429.629 617.7 423.88 623.449 423.88 630.54V791.22C423.88 798.311 429.629 804.06 436.72 804.06H543.98C551.071 804.06 556.82 798.311 556.82 791.22V630.54C556.82 623.449 551.071 617.7 543.98 617.7Z" fill="#ADD8E6"/>
<path opacity="0.4" d="M543.98 617.7H436.72C429.629 617.7 423.88 623.449 423.88 630.54V791.22C423.88 798.311 429.629 804.06 436.72 804.06H543.98C551.071 804.06 556.82 798.311 556.82 791.22V630.54C556.82 623.449 551.071 617.7 543.98 617.7Z" fill="black"/>
<path d="M539.06 637.14H441.62C440.317 637.14 439.26 638.197 439.26 639.5V643.04C439.26 644.343 440.317 645.4 441.62 645.4H539.06C540.363 645.4 541.42 644.343 541.42 643.04V639.5C541.42 638.197 540.363 637.14 539.06 637.14Z" fill="#FAFAFA"/>
<path d="M508.04 657.02H441.62C440.317 657.02 439.26 658.077 439.26 659.38V662.92C439.26 664.223 440.317 665.28 441.62 665.28H508.04C509.343 665.28 510.4 664.223 510.4 662.92V659.38C510.4 658.077 509.343 657.02 508.04 657.02Z" fill="#FAFAFA"/>
<path d="M539.06 676.92H441.62C440.317 676.92 439.26 677.977 439.26 679.28V682.82C439.26 684.123 440.317 685.18 441.62 685.18H539.06C540.363 685.18 541.42 684.123 541.42 682.82V679.28C541.42 677.977 540.363 676.92 539.06 676.92Z" fill="#FAFAFA"/>
<path d="M477.84 696.8H441.62C440.317 696.8 439.26 697.857 439.26 699.16V702.7C439.26 704.003 440.317 705.06 441.62 705.06H477.84C479.143 705.06 480.2 704.003 480.2 702.7V699.16C480.2 697.857 479.143 696.8 477.84 696.8Z" fill="#FAFAFA"/>
<path d="M528.52 696.8H492.3C490.997 696.8 489.94 697.857 489.94 699.16V702.7C489.94 704.003 490.997 705.06 492.3 705.06H528.52C529.823 705.06 530.88 704.003 530.88 702.7V699.16C530.88 697.857 529.823 696.8 528.52 696.8Z" fill="#FAFAFA"/>
<path d="M539.06 716.7H441.62C440.317 716.7 439.26 717.757 439.26 719.06V722.6C439.26 723.903 440.317 724.96 441.62 724.96H539.06C540.363 724.96 541.42 723.903 541.42 722.6V719.06C541.42 717.757 540.363 716.7 539.06 716.7Z" fill="#FAFAFA"/>
<path d="M539.06 736.58H441.62C440.317 736.58 439.26 737.637 439.26 738.94V742.48C439.26 743.783 440.317 744.84 441.62 744.84H539.06C540.363 744.84 541.42 743.783 541.42 742.48V738.94C541.42 737.637 540.363 736.58 539.06 736.58Z" fill="#FAFAFA"/>
<path d="M521.78 756.48H441.62C440.317 756.48 439.26 757.537 439.26 758.84V762.38C439.26 763.683 440.317 764.74 441.62 764.74H521.78C523.083 764.74 524.14 763.683 524.14 762.38V758.84C524.14 757.537 523.083 756.48 521.78 756.48Z" fill="#FAFAFA"/>
<path d="M479.02 776.36H441.62C440.317 776.36 439.26 777.417 439.26 778.72V782.26C439.26 783.563 440.317 784.62 441.62 784.62H479.02C480.323 784.62 481.38 783.563 481.38 782.26V778.72C481.38 777.417 480.323 776.36 479.02 776.36Z" fill="#FAFAFA"/>
<path d="M573 616.56H424.22L490 668.9L590.86 706.9V634.38C590.849 629.65 588.963 625.118 585.615 621.777C582.267 618.436 577.73 616.56 573 616.56Z" fill="#ADD8E6"/>
<path opacity="0.4" d="M573 616.56H424.22L490 668.9L590.86 706.9V634.38C590.849 629.65 588.963 625.118 585.615 621.777C582.267 618.436 577.73 616.56 573 616.56Z" fill="black"/>
<path d="M566.5 643.52H457.64C456.005 643.52 454.68 644.845 454.68 646.48V652C454.68 653.635 456.005 654.96 457.64 654.96H566.5C568.135 654.96 569.46 653.635 569.46 652V646.48C569.46 644.845 568.135 643.52 566.5 643.52Z" fill="#FAFAFA"/>
<path d="M830.3 758.24V653.6C830.3 645.581 823.799 639.08 815.78 639.08H634.08C626.061 639.08 619.56 645.581 619.56 653.6V758.24C619.56 766.259 626.061 772.76 634.08 772.76H815.78C823.799 772.76 830.3 766.259 830.3 758.24Z" fill="#ADD8E6"/>
<path d="M863.48 725.08V620.44C863.48 612.421 856.979 605.92 848.96 605.92H667.26C659.241 605.92 652.74 612.421 652.74 620.44V725.08C652.74 733.099 659.241 739.6 667.26 739.6H848.96C856.979 739.6 863.48 733.099 863.48 725.08Z" fill="#ADD8E6"/>
<path opacity="0.5" d="M863.48 725.08V620.44C863.48 612.421 856.979 605.92 848.96 605.92H667.26C659.241 605.92 652.74 612.421 652.74 620.44V725.08C652.74 733.099 659.241 739.6 667.26 739.6H848.96C856.979 739.6 863.48 733.099 863.48 725.08Z" fill="white"/>
<path d="M845.04 689.22V624.8C845.04 621.232 842.148 618.34 838.58 618.34H779.2C775.632 618.34 772.74 621.232 772.74 624.8V689.22C772.74 692.788 775.632 695.68 779.2 695.68H838.58C842.148 695.68 845.04 692.788 845.04 689.22Z" fill="#ADD8E6"/>
<path opacity="0.7" d="M845.04 689.22V624.8C845.04 621.232 842.148 618.34 838.58 618.34H779.2C775.632 618.34 772.74 621.232 772.74 624.8V689.22C772.74 692.788 775.632 695.68 779.2 695.68H838.58C842.148 695.68 845.04 692.788 845.04 689.22Z" fill="white"/>
<path d="M761.42 720.38V671.02C761.42 668.281 759.199 666.06 756.46 666.06H710.96C708.221 666.06 706 668.281 706 671.02V720.38C706 723.119 708.221 725.34 710.96 725.34H756.46C759.199 725.34 761.42 723.119 761.42 720.38Z" fill="#ADD8E6"/>
<path opacity="0.3" d="M761.42 720.38V671.02C761.42 668.281 759.199 666.06 756.46 666.06H710.96C708.221 666.06 706 668.281 706 671.02V720.38C706 723.119 708.221 725.34 710.96 725.34H756.46C759.199 725.34 761.42 723.119 761.42 720.38Z" fill="white"/>
<path d="M733.7 407.42V380.76C733.7 372.608 727.092 366 718.94 366L230.68 366C222.528 366 215.92 372.608 215.92 380.76V407.42C215.92 415.572 222.528 422.18 230.68 422.18H718.94C727.092 422.18 733.7 415.572 733.7 407.42Z" fill="#ADD8E6"/>
<path opacity="0.5" d="M733.7 407.42V380.76C733.7 372.608 727.092 366 718.94 366L230.68 366C222.528 366 215.92 372.608 215.92 380.76V407.42C215.92 415.572 222.528 422.18 230.68 422.18H718.94C727.092 422.18 733.7 415.572 733.7 407.42Z" fill="white"/>
<path d="M641.32 431.58V412.24H500.82V431.58H641.32Z" fill="#ADD8E6"/>
<path opacity="0.5" d="M641.32 431.58V412.24H500.82V431.58H641.32Z" fill="white"/>
<path d="M784.08 324.42V297.76C784.08 289.608 777.472 283 769.32 283L281.06 283C272.908 283 266.3 289.608 266.3 297.76V324.42C266.3 332.572 272.908 339.18 281.06 339.18H769.32C777.472 339.18 784.08 332.572 784.08 324.42Z" fill="#ADD8E6"/>
<path d="M260.72 578.42C258.96 582.42 257.02 586.74 255.32 590.96C253.62 595.18 251.86 599.52 250.32 603.84C247.16 612.262 244.627 620.905 242.74 629.7L242.16 632.9L241.96 634.1C241.96 634.44 241.96 634.88 241.84 635.28C241.764 637.227 241.804 639.177 241.96 641.12C242.34 645.34 243.02 649.86 243.96 654.38C245.64 663.44 247.78 672.78 249.96 681.98L239.7 685.98C234.917 677.262 230.844 668.172 227.52 658.8C225.769 653.922 224.352 648.931 223.28 643.86C222.679 641.055 222.305 638.205 222.16 635.34C222.16 634.54 222.16 633.78 222.16 632.92C222.16 632.06 222.16 631.1 222.3 630.54L222.7 626.54C223.298 621.389 224.213 616.279 225.44 611.24C226.56 606.24 228 601.38 229.44 596.58C230.88 591.78 232.68 587.06 234.58 582.42C235.52 580.1 236.58 577.8 237.5 575.5C238.42 573.2 239.5 571 240.78 568.54L260.72 578.42Z" fill="#E4897B"/>
<path d="M249.42 679.28L257.22 686.9L240.2 694.9C240.2 694.9 236.08 687.68 238.94 681.16L249.42 679.28Z" fill="#E4897B"/>
<path d="M263.52 698.24L249.14 704.12L240.22 694.82L257.22 686.9L263.52 698.24Z" fill="#E4897B"/>
<path opacity="0.4" d="M554.82 690.04C526.522 686.863 499.801 675.367 478.036 657.005C456.27 638.644 440.437 614.242 432.538 586.883C424.639 559.525 425.029 530.438 433.659 503.301C442.288 476.164 458.769 452.195 481.019 434.424C503.269 416.652 530.288 405.877 558.662 403.459C587.035 401.041 615.488 407.09 640.423 420.841C665.359 434.592 685.658 455.427 698.755 480.713C711.851 505.999 717.156 534.6 714 562.9C711.903 581.703 706.121 599.908 696.985 616.475C687.849 633.043 675.538 647.647 660.755 659.455C645.973 671.262 629.008 680.04 610.831 685.288C592.654 690.536 573.621 692.151 554.82 690.04Z" fill="#FAFAFA"/>
<path opacity="0.4" d="M659.58 433.48L440.58 608.46C439.66 606.46 438.76 604.46 437.92 602.46C432.43 589.401 428.918 575.595 427.5 561.5L616.66 410.36C632.19 415.54 646.71 423.362 659.58 433.48Z" fill="#FAFAFA"/>
<path opacity="0.4" d="M710.12 510.14L504.22 674.64C484.659 664.443 467.708 649.881 454.68 632.08L679.5 452.44C693.992 469.074 704.468 488.815 710.12 510.14Z" fill="#FAFAFA"/>
<path d="M408.78 491.9L406.88 491.26C410.171 481.55 414.306 472.147 419.24 463.16L420.98 464.12C416.112 473.007 412.029 482.302 408.78 491.9ZM433.06 445.22L431.44 444.04C447.876 421.816 469.387 403.843 494.18 391.62L495.08 393.42C470.569 405.517 449.305 423.297 433.06 445.28V445.22ZM652.24 396.16C645.704 392.654 638.943 389.588 632 386.98L632.72 385.1C639.731 387.769 646.559 390.896 653.16 394.46L652.24 396.16Z" fill="#ADD8E6"/>
<path opacity="0.3" d="M408.78 491.9L406.88 491.26C410.171 481.55 414.306 472.147 419.24 463.16L420.98 464.12C416.112 473.007 412.029 482.302 408.78 491.9ZM433.06 445.22L431.44 444.04C447.876 421.816 469.387 403.843 494.18 391.62L495.08 393.42C470.569 405.517 449.305 423.297 433.06 445.28V445.22ZM652.24 396.16C645.704 392.654 638.943 389.588 632 386.98L632.72 385.1C639.731 387.769 646.559 390.896 653.16 394.46L652.24 396.16Z" fill="black"/>
<path d="M719.74 473.38C701.221 434.971 668.631 405.161 628.727 390.13C588.823 375.1 544.665 376.001 505.408 392.648C466.151 409.295 434.805 440.41 417.868 479.543C400.932 518.676 399.705 562.826 414.44 602.84C401.08 607.52 387.88 612.54 374.76 617.72C355.84 625.227 337.093 633.067 318.52 641.24C299.96 649.46 281.48 657.84 263.18 666.6C254 670.9 244.94 675.44 235.8 679.84C231.045 681.883 226.737 684.839 223.12 688.54C221.163 690.59 219.439 692.85 217.98 695.28C216.2 698.154 214.852 701.274 213.98 704.54C212.475 710.425 213.126 716.655 215.815 722.102C218.503 727.55 223.053 731.855 228.64 734.24C231.743 735.541 235.016 736.39 238.36 736.76C241.184 737.08 244.036 737.08 246.86 736.76C251.992 736.137 256.953 734.513 261.46 731.98C270.52 727.4 279.64 722.98 288.64 718.28C306.64 709.1 324.64 699.52 342.42 689.8C360.2 680.08 378 669.9 395.36 659.46C407.36 652.2 419.48 644.78 431.36 637.02C454.172 673.033 489.966 698.89 531.323 709.231C572.68 719.573 616.431 713.607 653.509 692.57C690.588 671.533 718.151 637.037 730.489 596.231C742.826 555.425 738.992 511.436 719.78 473.38H719.74ZM628.82 664.44C605.577 675.913 579.455 680.236 553.755 676.863C528.056 673.489 503.933 662.572 484.439 645.49C464.944 628.408 450.952 605.929 444.232 580.895C437.512 555.862 438.366 529.397 446.686 504.849C455.005 480.301 470.418 458.771 490.973 442.981C511.529 427.191 536.305 417.852 562.168 416.142C588.031 414.433 613.821 420.431 636.276 433.378C658.73 446.325 676.842 465.64 688.32 488.88C695.943 504.314 700.45 521.098 701.585 538.274C702.72 555.451 700.461 572.682 694.936 588.985C689.41 605.288 680.728 620.342 669.383 633.289C658.039 646.236 644.256 656.821 628.82 664.44Z" fill="#ADD8E6"/>
<path opacity="0.3" d="M719.74 473.38C701.221 434.971 668.631 405.161 628.727 390.13C588.823 375.1 544.665 376.001 505.408 392.648C466.151 409.295 434.805 440.41 417.868 479.543C400.932 518.676 399.705 562.826 414.44 602.84C401.08 607.52 387.88 612.54 374.76 617.72C355.84 625.227 337.093 633.067 318.52 641.24C299.96 649.46 281.48 657.84 263.18 666.6C254 670.9 244.94 675.44 235.8 679.84C231.045 681.883 226.737 684.839 223.12 688.54C221.163 690.59 219.439 692.85 217.98 695.28C216.2 698.154 214.852 701.274 213.98 704.54C212.475 710.425 213.126 716.655 215.815 722.102C218.503 727.55 223.053 731.855 228.64 734.24C231.743 735.541 235.016 736.39 238.36 736.76C241.184 737.08 244.036 737.08 246.86 736.76C251.992 736.137 256.953 734.513 261.46 731.98C270.52 727.4 279.64 722.98 288.64 718.28C306.64 709.1 324.64 699.52 342.42 689.8C360.2 680.08 378 669.9 395.36 659.46C407.36 652.2 419.48 644.78 431.36 637.02C454.172 673.033 489.966 698.89 531.323 709.231C572.68 719.573 616.431 713.607 653.509 692.57C690.588 671.533 718.151 637.037 730.489 596.231C742.826 555.425 738.992 511.436 719.78 473.38H719.74ZM628.82 664.44C605.577 675.913 579.455 680.236 553.755 676.863C528.056 673.489 503.933 662.572 484.439 645.49C464.944 628.408 450.952 605.929 444.232 580.895C437.512 555.862 438.366 529.397 446.686 504.849C455.005 480.301 470.418 458.771 490.973 442.981C511.529 427.191 536.305 417.852 562.168 416.142C588.031 414.433 613.821 420.431 636.276 433.378C658.73 446.325 676.842 465.64 688.32 488.88C695.943 504.314 700.45 521.098 701.585 538.274C702.72 555.451 700.461 572.682 694.936 588.985C689.41 605.288 680.728 620.342 669.383 633.289C658.039 646.236 644.256 656.821 628.82 664.44Z" fill="black"/>
<path d="M316 507C316 508.18 316.62 509.14 317.4 509.14C318.18 509.14 318.8 508.18 318.8 507C318.8 505.82 318.18 504.86 317.4 504.86C316.62 504.86 316 505.9 316 507Z" fill="#263238"/>
<path d="M316.56 509.14C317.976 512.762 319.88 516.174 322.22 519.28C321.411 519.859 320.485 520.254 319.507 520.437C318.53 520.62 317.524 520.587 316.56 520.34V509.14Z" fill="#DE5753"/>
<path d="M311.86 500.42C311.749 500.42 311.638 500.395 311.538 500.346C311.438 500.298 311.349 500.227 311.28 500.14C311.176 499.987 311.134 499.8 311.164 499.618C311.194 499.436 311.293 499.272 311.44 499.16C312.321 498.492 313.35 498.047 314.44 497.862C315.53 497.678 316.648 497.759 317.7 498.1C317.795 498.126 317.882 498.171 317.958 498.233C318.034 498.295 318.096 498.372 318.141 498.459C318.185 498.546 318.21 498.642 318.215 498.74C318.22 498.838 318.205 498.935 318.169 499.027C318.134 499.118 318.08 499.201 318.011 499.27C317.942 499.339 317.859 499.393 317.768 499.429C317.676 499.464 317.579 499.479 317.481 499.474C317.383 499.47 317.287 499.444 317.2 499.4C316.365 499.144 315.48 499.092 314.62 499.248C313.761 499.405 312.951 499.766 312.26 500.3C312.142 500.379 312.002 500.42 311.86 500.42Z" fill="#263238"/>
<path d="M275.6 515.9C277.6 526.64 279.8 546.34 272.28 553.52C272.28 553.52 275.22 564.42 295.2 564.42C317.2 564.42 305.68 553.52 305.68 553.52C293.68 550.64 294.02 541.76 296.1 533.4L275.6 515.9Z" fill="#E4897B"/>
<path d="M263.3 559.18C265.68 555.48 261.68 546.5 261.68 546.5C261.68 546.5 297.04 537.6 311.5 551.26C314.5 554.08 311.18 558.24 311.18 558.24L263.3 559.18Z" fill="#ADD8E6"/>
<path opacity="0.1" d="M263.3 559.18C265.68 555.48 261.68 546.5 261.68 546.5C261.68 546.5 297.04 537.6 311.5 551.26C314.5 554.08 311.18 558.24 311.18 558.24L263.3 559.18Z" fill="black"/>
<path d="M204.8 967.24C202.94 967.24 199.96 964.14 199.08 962.98C199.042 962.924 199.022 962.858 199.022 962.79C199.022 962.722 199.042 962.656 199.08 962.6C199.112 962.544 199.159 962.498 199.215 962.466C199.272 962.434 199.335 962.419 199.4 962.42C199.62 962.42 204.52 962.86 205.86 964.6C206.006 964.784 206.11 964.997 206.165 965.225C206.22 965.453 206.225 965.69 206.18 965.92C206.163 966.218 206.053 966.503 205.867 966.736C205.681 966.968 205.427 967.138 205.14 967.22L204.8 967.24ZM200.16 963.24C201.62 964.92 203.96 966.82 204.96 966.58C204.96 966.58 205.36 966.48 205.48 965.84C205.506 965.706 205.502 965.569 205.467 965.437C205.433 965.305 205.369 965.183 205.28 965.08C203.798 963.958 202.016 963.303 200.16 963.2V963.24Z" fill="#ADD8E6"/>
<path d="M200.38 963.2C200.021 963.236 199.659 963.236 199.3 963.2C199.237 963.195 199.176 963.172 199.127 963.133C199.077 963.093 199.04 963.04 199.02 962.98C198.992 962.924 198.977 962.863 198.977 962.8C198.977 962.737 198.992 962.676 199.02 962.62C199.16 962.5 202.1 959.44 204.32 959.44C204.586 959.434 204.85 959.484 205.094 959.588C205.339 959.691 205.559 959.845 205.74 960.04C205.939 960.207 206.075 960.436 206.126 960.691C206.177 960.945 206.14 961.21 206.02 961.44C205.44 962.56 202.38 963.2 200.38 963.2ZM200.12 962.5C202.12 962.5 205.02 961.88 205.5 961C205.5 961 205.64 960.74 205.32 960.42C205.204 960.293 205.061 960.194 204.902 960.128C204.743 960.063 204.572 960.032 204.4 960.04C202.76 960.416 201.27 961.273 200.12 962.5Z" fill="#ADD8E6"/>
<path d="M336.78 1012.64C335.264 1012.63 333.752 1012.49 332.26 1012.22C332.186 1012.21 332.119 1012.17 332.072 1012.11C332.024 1012.05 331.999 1011.98 332 1011.9C331.989 1011.83 331.998 1011.76 332.026 1011.7C332.055 1011.63 332.101 1011.58 332.16 1011.54C332.38 1011.42 337.5 1008.48 339.96 1009.16C340.188 1009.21 340.403 1009.31 340.592 1009.45C340.782 1009.58 340.941 1009.76 341.06 1009.96C341.217 1010.18 341.301 1010.45 341.301 1010.72C341.301 1010.99 341.217 1011.26 341.06 1011.48C340.48 1012.38 338.66 1012.64 336.78 1012.64ZM333.4 1011.7C336.12 1012.1 339.84 1012.08 340.52 1011.12C340.62 1011 340.7 1010.78 340.52 1010.36C340.367 1010.11 340.123 1009.93 339.84 1009.86C338.28 1009.46 335.18 1010.78 333.4 1011.7Z" fill="#ADD8E6"/>
<path d="M332.34 1012.24C332.275 1012.26 332.205 1012.26 332.14 1012.24C332.085 1012.2 332.041 1012.15 332.016 1012.09C331.991 1012.03 331.986 1011.96 332 1011.9C332.136 1009.82 332.935 1007.83 334.28 1006.24C334.552 1006.01 334.872 1005.83 335.217 1005.73C335.562 1005.63 335.925 1005.61 336.28 1005.66C337.24 1005.66 337.52 1006.24 337.58 1006.62C337.84 1008.28 334.34 1011.46 332.56 1012.26L332.34 1012.24ZM335.92 1006.24C335.48 1006.24 335.054 1006.39 334.72 1006.68C333.589 1007.94 332.889 1009.53 332.72 1011.22C334.52 1010.12 336.92 1007.64 336.72 1006.64C336.72 1006.64 336.72 1006.3 336.04 1006.24H335.92Z" fill="#ADD8E6"/>
<path d="M316.18 1011.88H330.88L332.34 977.86H317.64L316.18 1011.88Z" fill="#E4897B"/>
<path d="M185.28 953.48L197.56 961.52L224.68 938.62L212.38 930.56L185.28 953.48Z" fill="#E4897B"/>
<path d="M199.58 960.76L186.82 950.3C186.595 950.115 186.312 950.013 186.02 950.013C185.728 950.013 185.445 950.115 185.22 950.3L174.7 958.56C174.446 958.762 174.241 959.019 174.1 959.312C173.958 959.604 173.885 959.925 173.885 960.25C173.885 960.575 173.958 960.895 174.1 961.188C174.241 961.481 174.446 961.738 174.7 961.94C179.22 965.52 181.6 967.04 187.22 971.64C190.68 974.46 199.22 983.1 204.04 987C208.86 990.9 213.28 986.7 211.68 984.68C204.5 975.58 201.68 967.8 200.86 962.98C200.718 962.109 200.263 961.319 199.58 960.76Z" fill="#263238"/>
<path d="M330.78 1010.18H314.78C314.488 1010.18 314.205 1010.28 313.977 1010.46C313.748 1010.64 313.587 1010.9 313.52 1011.18L310.62 1024.24C310.547 1024.56 310.547 1024.89 310.62 1025.2C310.693 1025.52 310.837 1025.81 311.042 1026.07C311.246 1026.32 311.505 1026.52 311.799 1026.66C312.094 1026.8 312.415 1026.87 312.74 1026.86C318.52 1026.76 326.88 1026.42 334.16 1026.42C342.66 1026.42 350.02 1026.88 359.98 1026.88C365.98 1026.88 367.7 1020.78 365.16 1020.24C353.68 1017.72 344.28 1017.46 334.36 1011.32C333.295 1010.62 332.056 1010.22 330.78 1010.18Z" fill="#263238"/>
<path d="M243.32 557.9C230.58 563.9 223.32 604.1 223.32 604.1L254.46 616.52C259.018 605.39 262.703 593.922 265.48 582.22C269.76 563.7 256.36 551.7 243.32 557.9Z" fill="#263238"/>
<path d="M259.84 580.56C252.14 588.36 248.62 603.64 247.08 613.58L254.54 616.56C258.969 605.746 262.579 594.615 265.34 583.26C264.68 579.02 263.04 577.32 259.84 580.56Z" fill="#203048"/>
<path d="M328.28 557.62C328.28 557.62 343.92 575.3 329.16 684.62H250.58C250.04 672.62 257.62 613.72 245.98 556.88C254.664 555.196 263.45 554.087 272.28 553.56C283.404 552.899 294.556 552.899 305.68 553.56C313.307 554.328 320.863 555.685 328.28 557.62Z" fill="#263238"/>
<path d="M335.46 600.06L322.22 577.24C319.664 587.887 318.621 598.842 319.12 609.78C319.48 617.62 326.66 646.66 333.12 650.9C334.834 634.009 335.615 617.037 335.46 600.06Z" fill="#203048"/>
<path d="M337.3 573.24C339.3 582.96 341.3 592.92 343.44 602.68C345.58 612.44 347.8 622.24 350.38 631.7C351.04 634.04 351.66 636.44 352.38 638.68L352.92 640.4L353.18 641.26V641.16C353.04 640.98 352.88 640.96 353 641.16C353.822 642.058 354.873 642.715 356.04 643.06C357.931 643.764 359.878 644.305 361.86 644.68C371.316 646.179 380.89 646.801 390.46 646.54L392.36 657.42C389.68 658.28 387.18 658.9 384.54 659.52C381.9 660.14 379.3 660.66 376.64 661.06C371.137 661.976 365.557 662.351 359.98 662.18C356.88 662.096 353.797 661.694 350.78 660.98C346.943 660.141 343.338 658.468 340.22 656.08C338.183 654.436 336.503 652.394 335.28 650.08C334.96 649.48 334.68 648.8 334.42 648.22L334.06 647.28L333.32 645.28C332.3 642.74 331.46 640.24 330.54 637.74C327.16 627.74 324.34 617.64 321.86 607.56C319.38 597.48 317.24 587.42 315.46 577.08L337.3 573.24Z" fill="#E4897B"/>
<path d="M308.66 568.34C304.52 581.76 321.3 621.78 321.3 621.78L354.72 613.38C354.72 613.38 353.44 592.58 345.82 576.08C334.34 551.2 313.62 552.24 308.66 568.34Z" fill="#263238"/>
<path d="M390.18 646.54L406.82 646.12L398.82 663.44C398.82 663.44 392.04 664.34 386.48 655.2L380.62 648.2L387.36 646.86C388.288 646.665 389.232 646.558 390.18 646.54Z" fill="#E4897B"/>
<path d="M417.32 649.34L407.8 663.7L398.82 663.44L406.82 646.12L417.32 649.34Z" fill="#E4897B"/>
<path d="M332.34 977.86L331.58 995.4H316.88L317.64 977.86H332.34Z" fill="#CE6F64"/>
<path d="M212.38 930.56L224.68 938.62L210.68 950.42L198.4 942.38L212.38 930.56Z" fill="#CE6F64"/>
<path d="M276.52 504.46C277.4 519 277.18 527.58 284.52 535.04C295.56 546.3 313.54 539.64 317.02 525.04C320.16 511.96 318.2 490.36 303.96 484.56C300.818 483.292 297.405 482.843 294.042 483.255C290.679 483.667 287.475 484.926 284.733 486.916C281.99 488.905 279.797 491.558 278.36 494.627C276.924 497.696 276.291 501.079 276.52 504.46Z" fill="#E4897B"/>
<path d="M259.4 501.9C263.02 515.16 271.54 530.44 282.56 531.42C296.24 532.62 302.42 518.48 304.22 503.88C312.42 498.26 308.12 492.08 316.34 491.3C326.9 490.3 323.52 470.98 309.62 467.88C309.62 467.88 314.28 476.58 304.5 472.18C295.199 467.76 284.866 465.968 274.62 467C274.62 467 287.1 473.24 274.9 476.02C262.7 478.8 259.06 486.32 264.68 490.86C264.68 490.88 257.02 493.18 259.4 501.9Z" fill="#263238"/>
<path d="M295.88 506.88C296.149 510.494 297.604 513.918 300.02 516.62C303.22 520.16 306.56 517.96 307.12 513.66C307.64 509.8 306.58 503.3 302.66 501.34C298.74 499.38 295.62 502.52 295.88 506.88Z" fill="#E4897B"/>
<path d="M301.28 684.62C301.28 684.62 315.6 788.32 304.32 829.88C286.44 895.68 218.08 951.22 218.08 951.22L194.9 936.02C194.9 936.02 253.12 889.12 260.24 834.02C266.64 784.56 250.58 724.74 250.58 684.6L301.28 684.62Z" fill="#ADD8E6"/>
<path opacity="0.1" d="M301.28 684.62C301.28 684.62 315.6 788.32 304.32 829.88C286.44 895.68 218.08 951.22 218.08 951.22L194.9 936.02C194.9 936.02 253.12 889.12 260.24 834.02C266.64 784.56 250.58 724.74 250.58 684.6L301.28 684.62Z" fill="black"/>
<path d="M307.2 743.9C303.388 739.533 299.191 735.516 294.66 731.9C297.1 765.56 299.1 815.42 296.88 850.84C299.865 844.05 302.351 837.051 304.32 829.9C309.82 809.6 309.24 774.54 307.2 743.9Z" fill="#ADD8E6"/>
<path opacity="0.3" d="M307.2 743.9C303.388 739.533 299.191 735.516 294.66 731.9C297.1 765.56 299.1 815.42 296.88 850.84C299.865 844.05 302.351 837.051 304.32 829.9C309.82 809.6 309.24 774.54 307.2 743.9Z" fill="black"/>
<path d="M227.42 946.04C227.52 946.04 218.44 952.04 218.44 952.04L193.12 935.44L201.12 928.82L227.42 946.04Z" fill="#ADD8E6"/>
<path opacity="0.3" d="M227.42 946.04C227.52 946.04 218.44 952.04 218.44 952.04L193.12 935.44L201.12 928.82L227.42 946.04Z" fill="black"/>
<path d="M329.16 684.62C329.16 684.62 351.28 778.42 352.84 823.24C354.6 873.48 337.06 992 337.06 992H312.16C312.16 992 309.1 872.56 308 826.8C306.78 776.9 277.5 684.62 277.5 684.62H329.16Z" fill="#ADD8E6"/>
<path opacity="0.1" d="M329.16 684.62C329.16 684.62 351.28 778.42 352.84 823.24C354.6 873.48 337.06 992 337.06 992H312.16C312.16 992 309.1 872.56 308 826.8C306.78 776.9 277.5 684.62 277.5 684.62H329.16Z" fill="black"/>
<path d="M341.84 982.1C341.96 982.1 340.44 992.42 340.44 992.42H310.16L309.34 983.2L341.84 982.1Z" fill="#ADD8E6"/>
<path opacity="0.3" d="M341.84 982.1C341.96 982.1 340.44 992.42 340.44 992.42H310.16L309.34 983.2L341.84 982.1Z" fill="black"/>
<path d="M712 594.48C713.7 596.08 715.04 597.44 716.44 598.96C717.84 600.48 719.16 601.96 720.44 603.5C723.04 606.56 725.48 609.78 727.84 613.02C732.553 619.519 736.746 626.381 740.38 633.54L741.12 635C741.481 635.707 741.782 636.443 742.02 637.2C742.503 638.663 742.799 640.182 742.9 641.72C743.03 644.432 742.657 647.144 741.8 649.72C740.339 653.999 738.169 658.001 735.38 661.56C730.354 668.014 724.427 673.712 717.78 678.48L712.8 672.76C715.14 670.02 717.58 667.08 719.76 664.14C721.978 661.291 723.984 658.283 725.76 655.14C727.419 652.397 728.647 649.416 729.4 646.3C729.659 645.185 729.706 644.032 729.54 642.9C729.468 642.519 729.347 642.149 729.18 641.8C729.105 641.647 729.018 641.499 728.92 641.36L728.28 640.28C724.423 633.991 720.237 627.909 715.74 622.06C713.52 619.12 711.14 616.3 708.74 613.52C707.56 612.12 706.34 610.76 705.12 609.4C703.9 608.04 702.58 606.68 701.52 605.62L712 594.48Z" fill="#E4897B"/>
<path d="M714.72 671.08L699.78 668.64L707.6 681.72C707.6 681.72 717.22 681.38 719.96 675.72L714.72 671.08Z" fill="#E4897B"/>
<path d="M688.74 674.68L695.86 685.3L707.6 681.72L699.78 668.64L688.74 674.68Z" fill="#E4897B"/>
<path d="M714 1012.46C712.984 1012.55 711.971 1012.27 711.14 1011.68C710.89 1011.44 710.704 1011.15 710.603 1010.82C710.501 1010.49 710.486 1010.14 710.56 1009.8C710.574 1009.59 710.647 1009.38 710.771 1009.2C710.894 1009.03 711.063 1008.89 711.26 1008.8C713 1008.02 717.56 1010.94 718.08 1011.28C718.139 1011.32 718.185 1011.37 718.21 1011.44C718.236 1011.5 718.239 1011.57 718.22 1011.64C718.213 1011.71 718.183 1011.77 718.136 1011.82C718.09 1011.87 718.028 1011.91 717.96 1011.92C716.665 1012.25 715.336 1012.43 714 1012.46ZM712 1009.36C711.854 1009.34 711.706 1009.34 711.56 1009.36C711.472 1009.4 711.397 1009.47 711.344 1009.55C711.291 1009.63 711.262 1009.72 711.26 1009.82C711.207 1010.04 711.212 1010.28 711.275 1010.5C711.339 1010.72 711.457 1010.92 711.62 1011.08C712.38 1011.76 714.34 1011.86 716.96 1011.34C715.459 1010.35 713.771 1009.67 712 1009.36Z" fill="#ADD8E6"/>
<path d="M718 1011.9H717.82C716.4 1011.08 713.66 1007.9 714 1006.16C714.065 1005.89 714.217 1005.64 714.433 1005.46C714.649 1005.28 714.919 1005.17 715.2 1005.16C715.47 1005.12 715.745 1005.14 716.005 1005.23C716.265 1005.31 716.503 1005.45 716.7 1005.64C718.34 1007.08 718.36 1011.4 718.36 1011.64C718.356 1011.7 718.338 1011.76 718.307 1011.81C718.275 1011.86 718.232 1011.91 718.18 1011.94L718 1011.9ZM715.44 1005.9H715.28C714.84 1005.9 714.74 1006.14 714.7 1006.32C714.5 1007.34 716.2 1009.78 717.62 1010.92C717.655 1009.24 717.173 1007.59 716.24 1006.2C716.12 1006.09 715.978 1006 715.823 1005.95C715.667 1005.9 715.503 1005.88 715.34 1005.9H715.44Z" fill="#ADD8E6"/>
<path d="M645.84 1012.46C644.563 1012.58 643.284 1012.26 642.22 1011.54C641.98 1011.33 641.795 1011.06 641.68 1010.76C641.565 1010.46 641.524 1010.14 641.56 1009.82C641.573 1009.63 641.635 1009.44 641.74 1009.27C641.844 1009.11 641.989 1008.97 642.16 1008.88C644.02 1007.84 649.98 1010.88 650.66 1011.26C650.722 1011.3 650.772 1011.36 650.804 1011.42C650.836 1011.49 650.848 1011.57 650.84 1011.64C650.828 1011.71 650.795 1011.77 650.745 1011.82C650.695 1011.88 650.63 1011.91 650.56 1011.92C649.007 1012.25 647.427 1012.43 645.84 1012.46ZM643.18 1009.36C642.951 1009.34 642.723 1009.39 642.52 1009.5C642.448 1009.53 642.387 1009.59 642.345 1009.66C642.302 1009.72 642.28 1009.8 642.28 1009.88C642.249 1010.09 642.27 1010.3 642.34 1010.5C642.409 1010.7 642.526 1010.88 642.68 1011.02C643.6 1011.84 646.06 1011.98 649.38 1011.42C647.444 1010.39 645.348 1009.69 643.18 1009.36Z" fill="#ADD8E6"/>
<path d="M650.5 1011.9H650.34C648.56 1011.1 645.02 1007.9 645.3 1006.16C645.3 1005.76 645.66 1005.26 646.64 1005.16C646.998 1005.12 647.36 1005.16 647.704 1005.26C648.048 1005.37 648.367 1005.55 648.64 1005.78C650.52 1007.34 650.88 1011.38 650.88 1011.56C650.888 1011.62 650.879 1011.68 650.854 1011.74C650.83 1011.8 650.79 1011.84 650.74 1011.88C650.664 1011.91 650.58 1011.92 650.5 1011.9ZM646.92 1005.9H646.7C646.06 1005.9 646.02 1006.22 646 1006.3C645.84 1007.32 648.24 1009.86 650 1010.96C649.826 1009.25 649.128 1007.64 648 1006.34C647.696 1006.08 647.318 1005.93 646.92 1005.9Z" fill="#ADD8E6"/>
<path d="M674.14 548.5C673.56 557.54 672 575.9 678.94 580.98C678.94 580.98 677.68 590.24 661.3 592.4C643.3 594.74 651.52 584.58 651.52 584.58C661.06 580.94 659.84 573.68 657.24 567.04L674.14 548.5Z" fill="#E4897B"/>
<path d="M636.88 532.52C636.781 532.52 636.683 532.499 636.594 532.457C636.504 532.416 636.424 532.355 636.36 532.28C635.788 531.602 635.065 531.067 634.248 530.72C633.432 530.372 632.545 530.222 631.66 530.28C631.566 530.297 631.47 530.295 631.378 530.274C631.285 530.252 631.198 530.212 631.121 530.156C631.044 530.1 630.98 530.029 630.931 529.947C630.883 529.865 630.852 529.774 630.84 529.68C630.817 529.492 630.87 529.302 630.986 529.153C631.102 529.003 631.272 528.905 631.46 528.88C632.589 528.785 633.725 528.964 634.77 529.403C635.815 529.842 636.738 530.527 637.46 531.4C637.547 531.504 637.602 531.631 637.62 531.765C637.638 531.9 637.617 532.036 637.561 532.16C637.505 532.283 637.414 532.388 637.301 532.462C637.188 532.537 637.056 532.577 636.92 532.58L636.88 532.52Z" fill="#263238"/>
<path d="M633.76 541.38C633.05 544.249 631.954 547.007 630.5 549.58C631.168 549.939 631.906 550.147 632.663 550.189C633.42 550.23 634.177 550.104 634.88 549.82L633.76 541.38Z" fill="#DE5753"/>
<path d="M634.56 539.18C634.72 540.38 634.22 541.42 633.44 541.54C632.66 541.66 631.88 540.74 631.74 539.54C631.6 538.34 632.08 537.3 632.86 537.2C633.64 537.1 634.42 537.9 634.56 539.18Z" fill="#263238"/>
<path d="M633.22 537.22L630.24 536.76C630.24 536.76 632 538.82 633.22 537.22Z" fill="#263238"/>
<path d="M666.98 1011.58H651.98L650.98 976.88H665.98L666.98 1011.58Z" fill="#E4897B"/>
<path d="M735.08 1011.58H720.08L715.26 976.88H730.26L735.08 1011.58Z" fill="#E4897B"/>
<path d="M719.16 1009.9H736C736.287 1009.9 736.565 1010 736.783 1010.19C737 1010.37 737.141 1010.64 737.18 1010.92L739.18 1024.26C739.217 1024.6 739.182 1024.94 739.078 1025.26C738.974 1025.58 738.803 1025.88 738.576 1026.13C738.349 1026.38 738.072 1026.58 737.763 1026.72C737.453 1026.85 737.118 1026.92 736.78 1026.92C730.92 1026.82 728.08 1026.48 720.68 1026.48C716.12 1026.48 709.46 1026.94 703.18 1026.94C696.9 1026.94 696.56 1020.72 699.18 1020.16C710.92 1017.64 712.78 1014.16 716.72 1010.82C717.408 1010.25 718.267 1009.93 719.16 1009.9Z" fill="#263238"/>
<path d="M651.48 1009.9H668.3C668.589 1009.9 668.87 1010 669.091 1010.19C669.311 1010.37 669.457 1010.63 669.5 1010.92L671.5 1024.26C671.537 1024.6 671.502 1024.94 671.398 1025.26C671.294 1025.58 671.123 1025.88 670.896 1026.13C670.669 1026.38 670.392 1026.58 670.083 1026.72C669.773 1026.85 669.438 1026.92 669.1 1026.92C663.24 1026.82 660.4 1026.48 653 1026.48C648.44 1026.48 639 1026.94 632.72 1026.94C626.44 1026.94 626.1 1020.72 628.72 1020.16C640.46 1017.64 645.08 1014.16 649.04 1010.82C649.728 1010.25 650.587 1009.93 651.48 1009.9Z" fill="#263238"/>
<path d="M650.98 976.88L651.5 994.78H666.5L665.98 976.88H650.98Z" fill="#CE6F64"/>
<path d="M730.26 976.88H715.26L717.76 994.78H732.74L730.26 976.88Z" fill="#CE6F64"/>
<path d="M674.34 529.78C675.36 544.62 676.1 550.88 669.66 559.42C659.96 572.24 641.52 570.26 636.08 556.02C631.18 543.2 630.34 521.1 643.98 513.34C646.981 511.62 650.371 510.696 653.829 510.654C657.287 510.612 660.699 511.455 663.74 513.102C666.781 514.749 669.351 517.145 671.207 520.064C673.062 522.983 674.14 526.327 674.34 529.78Z" fill="#E4897B"/>
<path d="M682.98 543.56C691.3 548.2 697.48 536.76 697.48 536.76C697.48 536.76 682.56 538.38 683.9 529.5C685.66 517.72 677.22 503.4 656.06 505.24C654.88 505.34 653.76 505.48 652.66 505.66C650.445 504.61 647.94 504.339 645.551 504.891C643.163 505.442 641.03 506.785 639.5 508.7C633.5 509.2 625.4 516.36 630.9 525.82C631.286 524.733 631.884 523.734 632.66 522.88C633.12 528.42 637.96 537.22 644 537.8C645.3 545.38 640.26 554.16 642 562.08C644.58 573.5 663.84 576.08 663.84 576.08C663.176 574.654 662.929 573.069 663.127 571.508C663.325 569.948 663.96 568.475 664.96 567.26C678.04 573.26 686.66 567.4 686.66 567.4C677.74 564.08 680.44 558.16 680.44 558.16C683.52 559.528 687.01 559.648 690.177 558.495C693.343 557.343 695.94 555.007 697.42 551.98C694.457 552.121 691.517 551.4 688.954 549.906C686.392 548.412 684.317 546.208 682.98 543.56Z" fill="#263238"/>
<path d="M649.22 540.08C649.255 541.504 649.008 542.921 648.493 544.25C647.978 545.578 647.206 546.791 646.22 547.82C643.58 550.56 640.34 548.64 639.46 545.14C638.68 541.98 639.12 536.76 642.56 535.32C643.317 535.022 644.136 534.919 644.944 535.019C645.751 535.119 646.521 535.419 647.182 535.892C647.844 536.365 648.377 536.996 648.733 537.727C649.089 538.459 649.256 539.267 649.22 540.08Z" fill="#E4897B"/>
<path d="M661.68 678.34C661.68 678.34 665.48 777.06 674.52 835.02C681.8 881.86 714.14 991.3 714.14 991.3H734.58C734.58 991.3 717.72 885.6 714.02 839.3C704.66 722.12 728.96 696.96 706.02 672.56L661.68 678.34Z" fill="#263238"/>
<path d="M678.76 709.56C678.76 709.56 669.52 707.96 664.12 725.56C666.12 758.9 669.54 803.14 674.52 835.02C675.62 842.12 677.3 850.68 679.36 860.06C675.46 803.74 678.76 709.56 678.76 709.56Z" fill="#161F33"/>
<path d="M645.74 680.42C645.74 680.42 628.9 789.64 629.88 835.34C630.9 882.88 648.32 991.34 648.32 991.34H668.58C668.58 991.34 665.38 885.7 667.16 839.02C669.16 788.12 689.94 674.68 689.94 674.68L645.74 680.42Z" fill="#263238"/>
<path d="M737.54 992.26H710.36L708.24 983.14L737.34 983.34L737.54 992.26Z" fill="#ADD8E6"/>
<path opacity="0.2" d="M737.54 992.26H710.36L708.24 983.14L737.34 983.34L737.54 992.26Z" fill="black"/>
<path d="M705 581C712.82 581.76 724.7 603.98 724.7 603.98L704.96 619.12C704.96 619.12 688.62 604.78 690.56 596.72C692.58 588.34 697.5 580.3 705 581Z" fill="#ADD8E6"/>
<path opacity="0.1" d="M705 581C712.82 581.76 724.7 603.98 724.7 603.98L704.96 619.12C704.96 619.12 688.62 604.78 690.56 596.72C692.58 588.34 697.5 580.3 705 581Z" fill="black"/>
<path d="M699.1 590.56C697.106 590.023 695.043 589.793 692.98 589.88C691.93 592.067 691.119 594.36 690.56 596.72C688.56 604.72 704.96 619.12 704.96 619.12L706.42 618L699.1 590.56Z" fill="#ADD8E6"/>
<path opacity="0.3" d="M699.1 590.56C697.106 590.023 695.043 589.793 692.98 589.88C691.93 592.067 691.119 594.36 690.56 596.72C688.56 604.72 704.96 619.12 704.96 619.12L706.42 618L699.1 590.56Z" fill="black"/>
<path d="M639.04 611.9C633.34 626.32 627.34 640.98 622.56 655.44C622.24 656.36 621.98 657.24 621.7 658.14L621.02 660.36C620.834 661.014 620.834 661.706 621.02 662.36C622.149 664.86 623.94 667.004 626.2 668.56C632.18 672.85 638.695 676.34 645.58 678.94L643.78 686.3C635.31 685.183 627.119 682.512 619.62 678.42C615.005 675.954 611.246 672.147 608.84 667.5C607.459 664.53 606.979 661.22 607.46 657.98C607.506 657.583 607.572 657.189 607.66 656.8L607.86 655.96L608.2 654.44C608.44 653.42 608.68 652.44 608.94 651.44C610.94 643.44 613.5 635.84 616.2 628.3C618.9 620.76 621.72 613.32 624.9 605.9L639.04 611.9Z" fill="#E4897B"/>
<path d="M626.9 591.66C626.9 591.66 620.14 595.08 645.74 680.42L706.1 672.54C701.86 648.1 699.86 632.96 705 581C696.344 580.38 687.656 580.38 679 581C669.785 581.536 660.621 582.739 651.58 584.6C640 587.18 626.9 591.66 626.9 591.66Z" fill="#ADD8E6"/>
<path opacity="0.1" d="M626.9 591.66C626.9 591.66 620.14 595.08 645.74 680.42L706.1 672.54C701.86 648.1 699.86 632.96 705 581C696.344 580.38 687.656 580.38 679 581C669.785 581.536 660.621 582.739 651.58 584.6C640 587.18 626.9 591.66 626.9 591.66Z" fill="black"/>
<path d="M706.54 668.88L710 673.9C710.26 674.3 709.82 674.78 709.14 674.88L645.84 683.16C645.3 683.16 644.8 683.02 644.72 682.68L643.48 677.34C643.38 676.98 643.82 676.6 644.42 676.52L705.54 668.52C705.724 668.491 705.912 668.508 706.086 668.571C706.261 668.634 706.417 668.74 706.54 668.88Z" fill="#ADD8E6"/>
<path opacity="0.2" d="M706.54 668.88L710 673.9C710.26 674.3 709.82 674.78 709.14 674.88L645.84 683.16C645.3 683.16 644.8 683.02 644.72 682.68L643.48 677.34C643.38 676.98 643.82 676.6 644.42 676.52L705.54 668.52C705.724 668.491 705.912 668.508 706.086 668.571C706.261 668.634 706.417 668.74 706.54 668.88Z" fill="black"/>
<path d="M699.22 676.78L700.86 676.56C701.18 676.56 701.4 676.32 701.36 676.12L699.68 669.2C699.617 669.082 699.514 668.99 699.39 668.938C699.266 668.887 699.128 668.881 699 668.92L697.36 669.12C697.02 669.12 696.8 669.36 696.86 669.58L698.54 676.48C698.58 676.7 698.9 676.82 699.22 676.78Z" fill="#263238"/>
<path d="M659.54 681.9L661.18 681.68C661.5 681.68 661.74 681.44 661.68 681.24L660 674.32C659.934 674.203 659.833 674.111 659.71 674.057C659.587 674.003 659.451 673.99 659.32 674.02L657.68 674.24C657.36 674.24 657.12 674.48 657.18 674.68L658.86 681.6C658.9 681.9 659.22 682.02 659.54 681.9Z" fill="#263238"/>
<path d="M629.72 620.62C631.38 628.34 633.72 638.12 637.14 650.5L637.88 619.12L629.72 620.62Z" fill="#ADD8E6"/>
<path opacity="0.3" d="M629.72 620.62C631.38 628.34 633.72 638.12 637.14 650.5L637.88 619.12L629.72 620.62Z" fill="black"/>
<path d="M626.9 591.66C619.4 594.68 612.9 620.34 612.9 620.34L638.7 632.9C638.7 632.9 651.16 601.52 645.58 595.4C640 589.28 635.54 588.2 626.9 591.66Z" fill="#ADD8E6"/>
<path opacity="0.1" d="M626.9 591.66C619.4 594.68 612.9 620.34 612.9 620.34L638.7 632.9C638.7 632.9 651.16 601.52 645.58 595.4C640 589.28 635.54 588.2 626.9 591.66Z" fill="black"/>
<path d="M672.04 992.26H644.86L642.74 983.14L673 983.34L672.04 992.26Z" fill="#ADD8E6"/>
<path opacity="0.2" d="M672.04 992.26H644.86L642.74 983.14L673 983.34L672.04 992.26Z" fill="black"/>
<path d="M646 676.46L643.82 675.56C643.284 675.342 642.7 675.27 642.127 675.35C641.554 675.431 641.013 675.662 640.558 676.019C640.103 676.377 639.751 676.848 639.537 677.386C639.323 677.923 639.255 678.508 639.34 679.08L640.92 689.5C640.996 690.022 641.187 690.52 641.478 690.959C641.77 691.397 642.156 691.766 642.607 692.038C643.059 692.309 643.565 692.477 644.09 692.53C644.614 692.582 645.144 692.517 645.64 692.34C646.433 692.052 647.176 691.64 647.84 691.12C648.563 690.52 649.136 689.759 649.511 688.897C649.886 688.036 650.053 687.098 650 686.16L649.78 681.84C649.742 680.673 649.364 679.542 648.693 678.586C648.021 677.63 647.085 676.892 646 676.46Z" fill="#E4897B"/>
</svg>
